<?xml version="1.0" encoding="utf-8"?>
<!-- Svg Vector Icons : http://www.onlinewebfonts.com/icon -->
<!DOCTYPE svg PUBLIC "-//W3C//DTD SVG 1.1//EN" "http://www.w3.org/Graphics/SVG/1.1/DTD/svg11.dtd">
<svg version="1.1" xmlns="http://www.w3.org/2000/svg" xmlns:xlink="http://www.w3.org/1999/xlink" x="0px" y="0px" viewBox="0 0 1000 1000" enable-background="new 0 0 1000 1000" xml:space="preserve">
<metadata> Svg Vector Icons : http://www.onlinewebfonts.com/icon </metadata>
<g><g transform="translate(0.000000,320.000000) scale(0.100000,-0.100000)"><path d="M9124.2,1241.1c-116.8-38.3-206.8-99.6-281.5-189.6c-44-53.6-300.7-601.4-768-1639.4c-385-858-708.6-1572.4-716.3-1587.7c-11.5-19.2-201.1,249-645.4,907.8c-346.7,515.2-662.7,969.1-704.8,1009.3c-245.1,247.1-670.3,204.9-871.4-90c-28.7-42.1-358.2-754.6-729.7-1582c-371.6-827.4-689.5-1532.2-708.6-1568.6l-32.6-65.1l-630.1,932.7c-346.7,513.3-660.8,965.3-697.1,1001.7c-218.3,222.2-576.5,224.1-802.5,5.7c-103.4-99.6-1356-2191-1403.9-2342.3c-113-365.8,82.4-769.9,421.4-867.6c195.4-57.5,407.9-1.9,557.3,143.6c40.2,38.3,243.2,352.4,459.7,716.3c247.1,411.8,396.5,641.6,408,630.1c9.6-9.6,245.1-352.4,520.9-762.3l503.7-745l727.8-5.7l727.8-3.8L4746-4225c159,350.5,440.5,978.7,628.2,1398.1l342.8,758.4l68.9-97.7c36.4-55.5,325.6-480.7,639.7-948c595.6-884.9,666.5-971,829.3-1026.6c218.3-74.7,438.6-23,599.5,139.8c105.4,105.3,114.9,128.3,1061.1,2231.3C9637.5-164.7,9875,383,9890.4,475c51.7,300.7-109.2,626.3-363.9,739.3C9415.4,1264.1,9229.6,1275.6,9124.2,1241.1z"/></g></g>
</svg>