<?xml version="1.0" encoding="utf-8"?>
<!-- Svg Vector Icons : http://www.onlinewebfonts.com/icon -->
<!DOCTYPE svg PUBLIC "-//W3C//DTD SVG 1.1//EN" "http://www.w3.org/Graphics/SVG/1.1/DTD/svg11.dtd">
<svg version="1.1" xmlns="http://www.w3.org/2000/svg" xmlns:xlink="http://www.w3.org/1999/xlink" x="0px" y="0px" viewBox="0 0 1000 1000" enable-background="new 0 0 1000 1000" xml:space="preserve">
<metadata> Svg Vector Icons : http://www.onlinewebfonts.com/icon </metadata>
<g><g transform="translate(0.000000,512.000000) scale(0.100000,-0.100000)"><path d="M519.2,4990.7c-189.7-67.1-329.6-208.9-390.9-400.5C99.6,4505.9,97.6,4088.1,101.5,79l5.7-4417.3l47.9-95.8c59.4-122.7,174.4-237.6,297-297L548-4779h4455.6h4455.6l95.8,47.9c122.7,59.4,237.6,174.4,297,297l47.9,95.8V117.3V4573l-47.9,95.8c-59.4,122.6-174.4,237.6-297,297l-95.8,47.9l-4426.9,3.8C1044.3,5021.4,597.8,5019.5,519.2,4990.7z M8683.1,2263.7V730.6H7907h-776.1L6686.2,59.8C6440.9-308.1,6235.8-609,6230.1-609c-5.7,0-527,776.1-1159.4,1724.8c-632.4,950.5-1170.9,1743.9-1195.8,1763.1c-65.2,51.7-143.7,46-210.8-15.3c-32.6-30.7-367.9-521.3-747.4-1092.3L2226.8,730.6h-452.3h-450.4v1533.1v1533.1h3679.5h3679.5V2263.7z M4936.5-881.1c632.4-950.5,1170.9-1743.9,1195.8-1763.1c55.6-44.1,132.2-46,189.7-5.8c24.9,17.2,362.2,507.9,753.1,1092.4l707.2,1061.7h450.4h450.4V-2029v-1533.1H5003.6H1324.1V-2029v1533.1h776.1h776.1L3321,174.8c245.3,367.9,450.4,668.8,456.1,668.8S4304.1,67.5,4936.5-881.1z"/></g></g>
</svg>