<?xml version="1.0" encoding="utf-8"?>
<!-- Svg Vector Icons : http://www.onlinewebfonts.com/icon -->
<!DOCTYPE svg PUBLIC "-//W3C//DTD SVG 1.1//EN" "http://www.w3.org/Graphics/SVG/1.1/DTD/svg11.dtd">
<svg version="1.1" xmlns="http://www.w3.org/2000/svg" xmlns:xlink="http://www.w3.org/1999/xlink" x="0px" y="0px" viewBox="0 0 1000 1000" enable-background="new 0 0 1000 1000" xml:space="preserve">
<metadata> Svg Vector Icons : http://www.onlinewebfonts.com/icon </metadata>
<g><g transform="translate(0.000000,512.000000) scale(0.100000,-0.100000)"><path d="M565.2,5006.8c-92-23-254.9-118.8-306.6-180.1c-26.8-32.6-70.9-101.6-99.6-155.2l-51.7-97.7l-5.7-4417.3c-3.8-4007.2-1.9-4426.9,26.8-4515c46-147.6,149.5-272.1,295.1-350.7l124.6-69h4455.6h4455.6l120.7,65.2c134.2,72.8,191.6,132.2,268.3,277.9l51.7,97.7v3842.4v3842.4l-69,124.6c-44.1,80.5-99.7,149.5-159.1,193.6c-185.9,141.8-1.9,132.2-2780.7,132.2H4394.2l-7.7,389l-5.7,387.1l-65.2,120.7c-72.8,134.1-132.2,191.6-277.9,268.3l-97.7,51.7l-1657.7,3.8C1370.1,5018.3,597.8,5014.5,565.2,5006.8z M3167.7,3282.1c5.7-486.8,7.7-519.3,46-569.2c21.1-28.7,63.2-70.9,92-92c51.7-40.2,59.4-40.2,2715.5-46l2661.9-3.8V-495.2v-3066.2H5003.6H1324.1V118.1v3679.5H2244H3162L3167.7,3282.1z"/><path d="M4572.4,1317.7c-70.9-32.6-134.1-99.7-161-170.6c-13.4-32.6-21.1-243.4-21.1-540.4V120l-515.5-5.8c-486.8-5.7-519.3-7.7-569.2-46c-130.3-97.7-132.2-101.5-132.2-563.4c0-461.9,1.9-465.7,132.2-563.4c49.8-38.3,82.4-40.3,567.3-46l515.5-5.8l5.8-515.5c5.7-484.8,7.7-517.4,46-567.3c97.7-130.3,101.6-132.2,563.4-132.2c461.8,0,465.7,1.9,563.4,132.2c38.3,49.8,40.3,82.4,46,567.3l5.7,515.5l515.5,5.8c484.8,5.7,517.4,7.7,567.2,46c130.3,97.7,132.2,101.5,132.2,563.4c0,461.9-1.9,465.7-132.2,563.4c-49.8,38.3-82.4,40.3-567.2,46l-515.5,5.8l-5.7,515.5c-5.8,484.8-7.7,517.4-46,567.3c-95.8,128.4-105.4,132.2-540.4,136.1C4723.8,1342.7,4616.5,1338.8,4572.4,1317.7z"/></g></g>
</svg>