<?xml version="1.0" encoding="utf-8"?>
<!-- Svg Vector Icons : http://www.onlinewebfonts.com/icon -->
<!DOCTYPE svg PUBLIC "-//W3C//DTD SVG 1.1//EN" "http://www.w3.org/Graphics/SVG/1.1/DTD/svg11.dtd">
<svg version="1.1" xmlns="http://www.w3.org/2000/svg" xmlns:xlink="http://www.w3.org/1999/xlink" x="0px" y="0px" viewBox="0 0 1000 1000" enable-background="new 0 0 1000 1000" xml:space="preserve">
<metadata> Svg Vector Icons : http://www.onlinewebfonts.com/icon </metadata>
<g><g transform="translate(0.000000,512.000000) scale(0.100000,-0.100000)"><path d="M3633.9,4993.2c-193.5-69-390.9-289.3-456-503.9l-23-80.5l-998.2-5.8l-998.2-5.7l-95.8-47.9c-122.6-59.4-237.6-174.4-297-297l-47.9-95.8v-4148v-4148l47.9-95.8c59.4-122.6,174.4-237.6,297-297l95.8-47.9H5000h3841.4l95.8,47.9c122.6,59.4,237.6,174.3,297,297l47.9,95.8v4148v4148l-47.9,95.8c-59.4,122.6-174.3,237.6-297,297l-95.8,47.9l-998.2,5.7l-998.2,5.8l-24.9,80.5c-55.6,189.7-235.7,404.3-406.2,482.8l-101.6,47.9l-1302.8-1.9C3963.5,5018.1,3693.3,5012.3,3633.9,4993.2z M5613.1,3487.3v-306.6H5000h-613.1v306.6v306.5H5000h613.1V3487.3z M3164.5,2793.7c5.7-367.9,7.7-394.7,53.6-484.7c59.4-122.6,174.4-237.6,297-297l95.8-47.9H5000h1389.1l95.8,47.9c122.6,59.4,237.6,174.4,297,297c46,90.1,47.9,116.9,53.6,484.7l5.7,387h613.1h611.2v-3372v-3372H5000H1934.5v3372v3372h611.2h613.1L3164.5,2793.7z"/><path d="M4568.9,1314.6c-70.9-32.6-134.1-99.6-160.9-170.5c-13.4-32.6-21.1-243.3-21.1-540.3V117.1l-515.4-5.8c-486.6-5.8-519.2-7.7-569-46c-130.3-97.7-132.2-101.6-132.2-563.3c0-461.7,1.9-465.6,132.2-563.3c49.8-38.3,82.4-40.2,567.1-46l515.4-5.7l5.8-515.4c5.7-484.7,7.7-517.3,46-567.1c97.7-130.3,101.5-132.2,563.3-132.2c461.7,0,465.6,1.9,563.3,132.2c38.3,49.8,40.2,82.4,46,567.1l5.7,515.4l515.4,5.7c484.7,5.7,517.3,7.6,567.1,46c130.3,97.7,132.2,101.6,132.2,563.3c0,461.7-1.9,465.6-132.2,563.3c-49.8,38.3-82.4,40.2-567.1,46l-515.4,5.8l-5.7,515.4c-5.8,484.7-7.7,517.3-46,567.1c-95.8,128.4-105.4,132.2-540.3,136C4720.3,1339.5,4613,1335.7,4568.9,1314.6z"/></g></g>
</svg>