<?xml version="1.0" encoding="utf-8"?>
<!-- Svg Vector Icons : http://www.onlinewebfonts.com/icon -->
<!DOCTYPE svg PUBLIC "-//W3C//DTD SVG 1.1//EN" "http://www.w3.org/Graphics/SVG/1.1/DTD/svg11.dtd">
<svg version="1.1" xmlns="http://www.w3.org/2000/svg" xmlns:xlink="http://www.w3.org/1999/xlink" x="0px" y="0px" viewBox="0 0 1000 1000" enable-background="new 0 0 1000 1000" xml:space="preserve">
<metadata> Svg Vector Icons : http://www.onlinewebfonts.com/icon </metadata>
<g><g transform="translate(0.000000,512.000000) scale(0.100000,-0.100000)"><path d="M2967.1,4994.3c-187.9-65.2-326-205.2-391.2-395.1c-26.9-80.5-30.7-216.7-30.7-1058.6v-966.6l-1001.1-5.8l-1003-5.7l-95.9-47.9c-122.7-59.5-237.8-174.5-297.3-297.3l-47.9-95.9v-3231.5v-3231.5l47.9-95.9c59.5-122.8,174.5-237.8,297.3-297.3l95.9-47.9h3231.5h3231.5l95.9,47.9c122.8,59.5,237.8,174.5,297.3,297.3l47.9,95.9l5.8,1001.1l5.8,1001.1l1001.1,5.8l1001.1,5.7l95.9,47.9c122.7,59.5,237.8,174.5,297.3,297.3l47.9,95.9v3231.5v3231.5l-47.9,95.9c-59.4,122.7-174.5,237.8-297.3,297.3l-95.9,47.9l-3202.7,3.8C3381.4,5025,3043.8,5023.1,2967.1,4994.3z M8682.2,1344.7v-2454.8h-613.7h-613.7L7451,506.7l-5.8,1614.8l-47.9,95.9c-59.5,122.7-174.5,237.8-297.3,297.3l-95.9,47.9l-1614.8,5.7l-1616.7,3.8v613.7v613.7h2454.8h2454.8V1344.7z M6227.4-1110.1v-2454.8H3772.6H1317.8v2454.8v2454.8h2454.8h2454.8V-1110.1z"/><path d="M3341.1,704.2c-71-32.6-134.2-99.7-161.1-170.7c-13.4-32.6-21.1-243.6-21.1-540.8v-487.1l-515.9-5.8c-487.1-5.8-519.7-7.7-569.6-46c-130.4-97.8-132.3-101.6-132.3-563.8c0-462.2,1.9-466,132.3-563.8c49.9-38.4,82.5-40.3,567.7-46l515.9-5.7l5.8-515.9c5.7-485.2,7.7-517.8,46-567.7c97.8-130.4,101.6-132.3,563.8-132.3s466,1.9,563.8,132.3c38.4,49.9,40.3,82.5,46,567.7l5.8,515.9l515.9,5.7c485.2,5.7,517.8,7.7,567.7,46c130.4,97.8,132.3,101.6,132.3,563.8c0,462.2-1.9,466-132.3,563.8c-49.9,38.3-82.5,40.3-567.7,46l-515.9,5.8l-5.8,515.9c-5.7,485.2-7.7,517.8-46,567.7c-95.9,128.5-105.5,132.3-540.8,136.2C3492.6,729.1,3385.2,725.3,3341.1,704.2z"/></g></g>
</svg>