<?xml version="1.0" encoding="utf-8"?>
<!-- Svg Vector Icons : http://www.onlinewebfonts.com/icon -->
<!DOCTYPE svg PUBLIC "-//W3C//DTD SVG 1.1//EN" "http://www.w3.org/Graphics/SVG/1.1/DTD/svg11.dtd">
<svg version="1.1" xmlns="http://www.w3.org/2000/svg" xmlns:xlink="http://www.w3.org/1999/xlink" x="0px" y="0px" viewBox="0 0 1000 1000" enable-background="new 0 0 1000 1000" xml:space="preserve">
<metadata> Svg Vector Icons : http://www.onlinewebfonts.com/icon </metadata>
<g><g transform="translate(0.000000,431.000000) scale(0.100000,-0.100000)"><path d="M3438.3,3428.2c-488.2-74.7-796.5-187.6-1148.8-419.3C1091,2223.9,771.3,600.4,1579.2-588.6c70.8-103.4,126.4-189.5,122.5-191.4c-78.5-44.1-356.1-271.9-492-404c-317.8-306.3-557.1-635.6-748.6-1033.9C185.4-2784.6,87.8-3280.5,101.2-4046.3l5.7-392.5l59.4-105.3c63.2-114.9,189.5-214.4,310.2-248.9c47.9-11.5,1139.2-19.1,3231.8-19.1c3471.1,0,3272-7.7,3421.3,114.9c38.3,34.5,93.8,101.5,124.4,149.3l51.7,90l5.7,440.4c7.7,463.3-11.5,702.6-76.6,1003.2c-90,423.1-327.4,957.3-585.9,1323c-195.3,275.7-714.1,783.1-917.1,897.9c-23,11.5-7.6,44,76.6,158.9c214.4,300.6,381,700.7,442.3,1066.4c57.4,344.6,32.5,796.5-63.2,1141.1c-183.8,656.7-672,1252.1-1282.8,1568c-382.9,197.2-693.1,277.6-1121.9,289.1C3625.9,3434,3470.8,3432.1,3438.3,3428.2z M4016.5,2375.2c583.9-120.6,1043.4-561,1192.8-1144.9c51.7-204.9,51.7-516.9,0-733.3c-47.9-199.1-143.6-402.1-264.2-561c-118.7-155.1-172.3-206.8-382.9-363.8C4437.7-521.6,4386-575.2,4349.6-646c-61.3-118.7-74.7-281.4-32.5-407.8c55.5-166.6,118.7-222.1,438.4-377.1c358-172.3,572.5-325.5,806-566.7c199.1-206.8,352.3-426.9,471-670.1c141.7-294.8,248.9-718,248.9-987.9v-122.5H3706.3H1131.2v88.1c0,277.6,109.1,716,252.7,1018.5c271.9,574.4,815.6,1077.9,1397.6,1296.2c124.5,46,241.2,151.3,294.8,266.1c80.4,172.3,49.8,425-65.1,553.3c-17.2,21.1-111.1,95.7-208.7,168.5C2402.5-85,2195.7,299.8,2170.8,789.9c-17.2,344.6,63.2,641.4,248.9,920.9c109.1,162.7,327.4,375.2,488.2,472.9c135.9,82.3,384.8,178.1,526.5,201C3597.2,2411.6,3861.4,2407.8,4016.5,2375.2z"/><path d="M7954.8,1335.6c-111.1-67-122.5-124.5-122.5-583.9V338.1h-425c-494,0-522.7-7.7-580.1-158.9c-47.9-126.4-36.4-668.2,17.2-746.7c74.7-109.1,116.8-118.7,572.5-124.5l415.5-5.8v-404c0-605,1.9-608.8,513.1-608.8c369.5,0,417.4,11.5,482.5,120.6c34.5,55.5,38.3,97.7,38.3,476.7v413.5l426.9,7.7c471,5.7,494,11.5,568.6,135.9c34.5,53.6,38.3,97.6,38.3,382.9c0,358-13.4,407.8-120.6,472.9c-55.5,34.5-97.7,38.3-486.3,38.3h-426.9v427c0,610.8,1.9,606.9-520.8,606.9C8054.3,1372,8006.5,1368.1,7954.8,1335.6z"/></g></g>
</svg>