<?xml version="1.0" encoding="utf-8"?>
<!-- Svg Vector Icons : http://www.onlinewebfonts.com/icon -->
<!DOCTYPE svg PUBLIC "-//W3C//DTD SVG 1.1//EN" "http://www.w3.org/Graphics/SVG/1.1/DTD/svg11.dtd">
<svg version="1.1" xmlns="http://www.w3.org/2000/svg" xmlns:xlink="http://www.w3.org/1999/xlink" x="0px" y="0px" viewBox="0 0 1000 1000" enable-background="new 0 0 1000 1000" xml:space="preserve">
<metadata> Svg Vector Icons : http://www.onlinewebfonts.com/icon </metadata>
<g><g transform="translate(0.000000,512.000000) scale(0.100000,-0.100000)"><path d="M1610.1,4990.2c-373.4-70.9-691.3-241.3-967-515.1C210.3,4042.4,24.6,3460.2,128,2868.5c51.7-293,226-689.4,338.9-769.8c109.1-74.7,212.5-17.2,360,201.1C1349.7,3077.2,2106,3713,2962,4094.1c256.6,114.9,316,164.7,316,268.1c0,59.4-15.3,86.2-105.3,172.3c-201.1,193.4-486.4,350.4-792.8,428.9C2186.5,5015.1,1809.2,5028.5,1610.1,4990.2z"/><path d="M3957.8,4992.1c-180-78.5-237.4-323.6-111.1-473c76.6-90,151.3-113,360-113h181.9v-331.3v-329.4l-185.7-34.5C2584.8,3414.3,1246.3,2158.1,848,564.9C746.5,162.8,723.5-44,723.5-495.9c-1.9-442.3,23-651.1,114.9-1024.5c124.5-499.8,352.3-1001.5,637.7-1411.3l90-128.3l-377.2-379.1c-444.2-446.2-467.2-480.6-467.2-733.4c1.9-191.5,46-306.4,172.3-430.8c124.5-126.4,239.4-172.3,430.8-172.3c248.9,0,287.2,24.9,733.4,469.2l379.2,375.3l128.3-90c517-361.9,1145.1-610.9,1813.4-720c294.9-47.9,949.8-47.9,1244.7,0c275.8,46,662.5,147.4,890.4,233.6c315.9,120.6,765.9,363.8,1003.4,541.9l72.8,55.5l135.9-145.5c388.7-417.4,608.9-630,697-674c74.7-36.4,122.5-46,254.7-46c191.5,0,304.5,44,430.9,170.4c122.6,122.5,170.4,241.3,170.4,423.2c1.9,243.2-32.6,300.6-467.2,754.5l-365.7,384.9l84.2,118.7c354.3,499.8,607,1139.4,716.2,1805.7c47.9,293,46,947.9-1.9,1244.7c-118.7,743-383,1371.1-817.7,1949.4C7787.5,2926,6832,3521.5,5799.9,3711.1l-185.7,34.5v329.4v327.4l208.7,7.7c176.2,3.8,218.3,11.5,262.3,45.9c101.5,74.7,132.1,136,132.1,256.6c0,120.6-30.6,181.9-132.1,256.6c-51.7,40.2-76.6,40.2-1060.8,44C4214.3,5017,4003.7,5013.2,3957.8,4992.1z M5581.6,2510.4C6822.4,2267.2,7797.1,1277.3,8019.2,30.7c47.9-262.3,47.9-811.9,1.9-1053.2c-226-1164.2-1024.5-2062.3-2135.1-2403.2c-323.6-97.7-496-122.6-875.1-122.6c-407.9,0-614.7,30.6-955.5,143.6c-1070.4,354.3-1842.1,1229.4-2064.3,2340c-61.3,308.3-61.3,829.2,0,1137.5c268.1,1342.3,1355.7,2338.1,2713.4,2483.6C4888.4,2575.5,5380.5,2550.7,5581.6,2510.4z"/><path d="M4197.1,1311.7c-191.5-70.8-329.4-210.6-392.6-402.1c-26.8-82.3-28.7-218.3-24.9-1137.5l5.7-1043.6l47.9-95.7c59.4-122.5,174.3-237.4,296.8-296.8l95.7-47.9h1081.9h1081.9l95.7,47.9c122.6,59.4,237.5,174.3,296.8,296.8c67,137.9,67,379.2,0,517c-59.3,122.6-174.2,237.5-296.8,296.8l-95.7,47.9l-693.2,5.7l-693.2,5.8l-5.7,693.2l-5.7,693.2l-47.9,95.7c-61.3,122.5-176.2,237.4-296.8,294.9C4522.6,1342.4,4317.7,1355.8,4197.1,1311.7z"/><path d="M7737.8,4988.3c-327.5-59.4-685.5-235.5-901.9-448.1c-93.8-90-111.1-118.7-111.1-174.3c0-101.5,47.9-149.4,247-241.3c289.1-134,513.2-250.8,679.8-354.2c570.6-356.2,1150.8-915.3,1522.3-1466.8c132.1-195.3,149.4-212.6,239.4-227.9c93.8-15.3,147.4,24.9,239.4,181.9c337,566.8,329.4,1309.8-21.1,1882.3c-130.2,212.6-394.5,476.8-607,607C8645.4,4978.7,8172.4,5068.7,7737.8,4988.3z"/></g></g>
</svg>