<?xml version="1.0" encoding="utf-8"?>
<!-- Svg Vector Icons : http://www.onlinewebfonts.com/icon -->
<!DOCTYPE svg PUBLIC "-//W3C//DTD SVG 1.1//EN" "http://www.w3.org/Graphics/SVG/1.1/DTD/svg11.dtd">
<svg version="1.1" xmlns="http://www.w3.org/2000/svg" xmlns:xlink="http://www.w3.org/1999/xlink" x="0px" y="0px" viewBox="0 0 1000 1000" enable-background="new 0 0 1000 1000" xml:space="preserve">
<metadata> Svg Vector Icons : http://www.onlinewebfonts.com/icon </metadata>
<g><g transform="translate(0.000000,512.000000) scale(0.100000,-0.100000)"><path d="M519.2,4990.7c-189.7-67.1-329.6-208.9-390.9-400.5C99.6,4505.9,97.6,4088.1,101.5,79l5.7-4417.3l47.9-95.8c59.4-122.7,174.4-237.6,297-297L548-4779h4455.6h4455.6l95.8,47.9c122.7,59.4,237.6,174.4,297,297l47.9,95.8V117.3V4573l-47.9,95.8c-59.4,122.6-174.4,237.6-297,297l-95.8,47.9l-4426.9,3.8C1044.3,5021.4,597.8,5019.5,519.2,4990.7z M8683.1,117.3v-3679.5H5003.6H1324.1V117.3v3679.5h3679.5h3679.5V117.3z"/><path d="M3345.9,1317c-78.6-34.5-159.1-132.2-172.5-208.9c-5.7-34.5-9.6-778.1-5.7-1655.8c5.7-1575.3,5.7-1594.4,46-1646.2c97.7-130.3,101.6-132.2,563.4-132.2c461.9,0,465.7,1.9,563.4,132.2c40.2,51.7,40.2,65.1,40.2,1697.9s0,1646.2-40.2,1697.9c-95.8,128.4-105.4,132.2-540.4,136.1C3499.2,1341.9,3390,1338.1,3345.9,1317z"/><path d="M5798.9,90.5c-78.6-34.5-159.1-132.2-172.5-208.9c-5.8-34.5-9.6-502.1-5.8-1042.5c5.8-956.3,7.7-981.2,46-1032.9c97.7-130.3,101.6-132.2,563.4-132.2s465.7,1.9,563.4,132.2c40.2,51.7,40.2,72.8,40.2,1084.7s0,1032.9-40.2,1084.7c-95.8,128.4-105.4,132.2-540.4,136.1C5952.2,115.4,5843,111.6,5798.9,90.5z"/></g></g>
</svg>