<?xml version="1.0" encoding="utf-8"?>
<!-- Svg Vector Icons : http://www.onlinewebfonts.com/icon -->
<!DOCTYPE svg PUBLIC "-//W3C//DTD SVG 1.1//EN" "http://www.w3.org/Graphics/SVG/1.1/DTD/svg11.dtd">
<svg version="1.1" xmlns="http://www.w3.org/2000/svg" xmlns:xlink="http://www.w3.org/1999/xlink" x="0px" y="0px" viewBox="0 0 1000 1000" enable-background="new 0 0 1000 1000" xml:space="preserve">
<metadata> Svg Vector Icons : http://www.onlinewebfonts.com/icon </metadata>
<g><g transform="translate(0.000000,512.000000) scale(0.100000,-0.100000)"><path d="M519.2,4990.7c-189.7-67.1-329.6-208.9-390.9-400.5C99.6,4505.9,97.6,4088.1,101.5,79l5.7-4417.3l47.9-95.8c59.4-122.7,174.4-237.6,297-297L548-4779h4455.6h4455.6l95.8,47.9c122.7,59.4,237.6,174.4,297,297l47.9,95.8V117.3V4573l-47.9,95.8c-59.4,122.6-174.4,237.6-297,297l-95.8,47.9l-4426.9,3.8C1044.3,5021.4,597.8,5019.5,519.2,4990.7z M8683.1,117.3v-3679.5H5003.6H1324.1V117.3v3679.5h3679.5h3679.5V117.3z"/><path d="M3777.1,2570.3V1959l-515.5-5.8c-486.8-5.7-519.3-7.7-569.2-46c-28.7-21.1-70.9-63.2-92-92c-40.2-51.7-40.2-65.2-40.2-1697.9s0-1646.2,40.2-1697.9c21.1-28.7,63.2-70.9,92-92c49.8-38.3,82.4-40.3,569.2-46l515.5-5.8v-611.3v-613.2h306.6h306.6V117.3v3066.2h-306.6h-306.6V2570.3z"/><path d="M6843.3,2263.7v-917.9l-515.5-5.8c-486.8-5.7-519.3-7.7-569.2-46c-28.8-21.1-70.9-63.2-92-92c-40.2-51.7-40.2-72.8-40.2-1084.7s0-1032.9,40.2-1084.7c21.1-28.7,63.2-70.9,92-92c49.8-38.3,82.4-40.3,569.2-46l515.5-5.8v-918v-919.9H7150h306.6V117.3v3066.2H7150h-306.6V2263.7z"/></g></g>
</svg>