<?xml version="1.0" encoding="utf-8"?>
<!-- Svg Vector Icons : http://www.onlinewebfonts.com/icon -->
<!DOCTYPE svg PUBLIC "-//W3C//DTD SVG 1.1//EN" "http://www.w3.org/Graphics/SVG/1.1/DTD/svg11.dtd">
<svg version="1.1" xmlns="http://www.w3.org/2000/svg" xmlns:xlink="http://www.w3.org/1999/xlink" x="0px" y="0px" viewBox="0 0 1000 1000" enable-background="new 0 0 1000 1000" xml:space="preserve">
<metadata> Svg Vector Icons : http://www.onlinewebfonts.com/icon </metadata>
<g><g transform="translate(0.000000,512.000000) scale(0.100000,-0.100000)"><path d="M519.2,4990.7c-189.7-67.1-329.6-208.9-390.9-400.5C99.6,4505.9,97.6,4088.1,101.5,79l5.7-4417.3l47.9-95.8c59.4-122.7,174.4-237.6,297-297L548-4779h4455.6h4455.6l95.8,47.9c122.7,59.4,237.6,174.4,297,297l47.9,95.8V117.3V4573l-47.9,95.8c-59.4,122.6-174.4,237.6-297,297l-95.8,47.9l-4426.9,3.8C1044.3,5021.4,597.8,5019.5,519.2,4990.7z M8683.1,117.3v-3679.5H5003.6H1324.1V117.3v3679.5h3679.5h3679.5V117.3z"/><path d="M1937.4,2263.7v-306.6h613.2H3162l5.8-515.5c5.7-486.8,7.7-519.3,46-569.2c21.1-28.8,63.2-70.9,92-92c51.7-40.2,65.2-40.2,1697.9-40.2s1646.2,0,1697.9,40.2c28.8,21.1,70.9,63.2,92,92c38.3,49.8,40.2,82.4,46,569.2l5.7,515.5h611.3h613.2v306.6v306.6H5003.6H1937.4V2263.7z"/><path d="M1937.4-802.5v-306.6h613.2H3162l5.8-515.5c5.7-486.8,7.7-519.4,46-569.2c21.1-28.8,63.2-70.9,92-92c51.7-40.3,65.2-40.3,1697.9-40.3s1646.2,0,1697.9,40.3c28.8,21.1,70.9,63.2,92,92c38.3,49.8,40.2,82.4,46,569.2l5.7,515.5h611.3h613.2v306.6v306.6H5003.6H1937.4V-802.5z"/></g></g>
</svg>