<?xml version="1.0" encoding="utf-8"?>
<!-- Svg Vector Icons : http://www.onlinewebfonts.com/icon -->
<!DOCTYPE svg PUBLIC "-//W3C//DTD SVG 1.1//EN" "http://www.w3.org/Graphics/SVG/1.1/DTD/svg11.dtd">
<svg version="1.1" xmlns="http://www.w3.org/2000/svg" xmlns:xlink="http://www.w3.org/1999/xlink" x="0px" y="0px" viewBox="0 0 1000 1000" enable-background="new 0 0 1000 1000" xml:space="preserve">
<metadata> Svg Vector Icons : http://www.onlinewebfonts.com/icon </metadata>
<g><g transform="translate(0.000000,512.000000) scale(0.100000,-0.100000)"><path d="M4711,4996.7c-488.3-91.9-934.5-388.7-1206.4-802.3c-559.2-850.2-321.7-1981.9,532.3-2541.1c76.6-49.8,185.7-109.1,245.1-134l105.3-44v-367.7V737.9l-386.8-5.8c-367.7-5.7-394.5-7.7-484.5-53.6c-122.6-59.4-237.4-174.3-296.8-296.8c-67-137.9-67-379.2,0-517c59.4-122.6,174.3-237.5,296.8-296.8c90-46,116.8-47.9,484.5-53.6l386.8-5.8v-1196.8c0-674-7.7-1194.9-17.2-1194.9c-51.7,0-511.3,128.3-651.1,181.9c-536.2,204.9-1074.3,572.5-1426.6,976.6c-141.7,162.8-314,388.7-379.2,497.9l-40.2,70.9l262.3,260.4c201.1,203,260.4,273.8,260.4,312.1c0,93.8-26.8,95.7-1104.9,90c-974.7-5.7-999.6-5.7-1051.3-46c-28.7-21.1-70.8-63.2-91.9-91.9c-40.2-51.7-40.2-76.6-46-1051.3c-5.7-1078.1-3.8-1104.9,90-1104.9c38.3,0,114.9,65.1,348.5,298.7l296.8,296.8L998-2389.1c195.3-241.3,584-630,804.3-808.1c532.3-425.1,1193-769.8,1767.5-919.2l189.6-47.9l237.4-231.7c365.8-352.3,444.3-383,1005.3-383c555.3,0,633.8,30.6,1009.1,392.5c143.6,135.9,266.2,239.4,287.2,239.4c61.3,0,444.3,114.9,641.5,193.4c616.6,245.1,1116.4,582.1,1631.5,1097.2c170.4,170.4,367.7,383,440.4,474.9c70.9,93.8,134,168.5,139.8,168.5s141.7-128.3,302.5-287.2c314.1-306.4,360-333.2,419.4-241.3c26.8,38.3,28.7,168.5,24.9,1051.3c-5.7,982.3-5.7,1007.2-45.9,1058.9c-21.1,28.7-63.2,70.8-91.9,91.9c-51.7,40.2-76.6,40.2-1051.3,46c-1089.6,5.7-1104.9,3.8-1104.9-93.8c0-44,47.9-105.3,258.5-319.8l258.5-266.2l-88.1-132.1c-423.2-635.7-1036-1124-1752.1-1395.9c-139.8-53.6-599.4-181.9-651.1-181.9c-9.6,0-17.2,520.9-17.2,1194.9v1196.8l388.7,5.8c365.8,5.7,392.6,7.6,482.6,53.6c122.6,59.3,237.5,174.2,296.8,296.8c67,137.9,67,379.2,0,517c-59.4,122.5-174.2,237.5-296.8,296.8c-90,46-116.8,47.9-484.5,53.6l-386.8,5.8l3.8,356.2l5.7,354.3l134,55.5c434.7,185.7,815.7,593.6,968.9,1036c233.6,683.6,90,1411.3-383,1914.9c-340.8,363.8-744.9,545.8-1246.6,563C4937,5021.6,4808.7,5015.8,4711,4996.7z M5258.7,3740.5c120.6-57.5,235.5-172.3,296.8-294.9c67-137.9,67-379.2,0-517c-59.4-122.5-174.2-237.4-296.8-296.8c-135.9-67-377.2-67-517,0c-497.9,241.3-455.7,947.9,67,1137.5C4929.3,3813.3,5134.2,3799.9,5258.7,3740.5z"/></g></g>
</svg>