<?xml version="1.0" encoding="utf-8"?>
<!-- Svg Vector Icons : http://www.onlinewebfonts.com/icon -->
<!DOCTYPE svg PUBLIC "-//W3C//DTD SVG 1.1//EN" "http://www.w3.org/Graphics/SVG/1.1/DTD/svg11.dtd">
<svg version="1.1" xmlns="http://www.w3.org/2000/svg" xmlns:xlink="http://www.w3.org/1999/xlink" x="0px" y="0px" viewBox="0 0 1000 1000" enable-background="new 0 0 1000 1000" xml:space="preserve">
<metadata> Svg Vector Icons : http://www.onlinewebfonts.com/icon </metadata>
<g><g transform="translate(0.000000,409.000000) scale(0.100000,-0.100000)"><path d="M1040.8,2967.9c-72.8-34.5-186-139.9-473.5-440.9c-209-218.6-396.8-433.3-421.7-477.4c-59.4-115-61.3-335.5-1.9-446.7c23-44.1,567.4-628.8,1213.5-1301.7L2528.4-921.8L2378.9-1077c-80.5-86.3-596.2-625-1146.4-1198.2C563.5-2974.9,218.4-3346.8,182-3412c-42.2-80.5-51.8-122.7-51.8-226.2c1.9-220.5,26.8-255,638.4-878c209-212.8,264.6-258.8,345.1-285.6c111.2-36.4,239.6-28.8,347,21.1c101.6,47.9,3412.3,3500.5,3481.4,3629c65.2,120.8,67.1,339.3,5.7,454.3c-53.7,99.7-3397,3590.6-3496.7,3650.1C1336,3021.6,1163.5,3027.4,1040.8,2967.9z"/><path d="M5948.4,2967.9c-72.8-34.5-186-139.9-473.5-440.9c-208.9-218.6-396.8-433.3-421.7-477.4c-59.4-115-61.3-335.5-1.9-446.7c23-42.2,567.4-628.8,1211.6-1301.7L7436.1-921.8L7286.5-1079c-80.5-84.3-596.2-623-1146.4-1196.2C5471.1-2974.9,5126-3346.8,5091.5-3412c-44.1-80.5-53.7-122.7-53.7-226.2c1.9-220.5,26.8-255,638.4-878c264.6-270.3,333.6-312.5,500.4-312.5c189.8,0,149.5-38.3,1949.6,1838.4c1094.6,1140.6,1692.8,1779,1723.4,1838.4c65.2,120.8,67.1,339.3,5.7,454.3c-53.7,99.7-3397,3590.6-3496.7,3650.1C6243.7,3021.6,6071.1,3027.4,5948.4,2967.9z"/></g></g>
</svg>