<?xml version="1.0" encoding="utf-8"?>
<!-- Svg Vector Icons : http://www.onlinewebfonts.com/icon -->
<!DOCTYPE svg PUBLIC "-//W3C//DTD SVG 1.1//EN" "http://www.w3.org/Graphics/SVG/1.1/DTD/svg11.dtd">
<svg version="1.1" xmlns="http://www.w3.org/2000/svg" xmlns:xlink="http://www.w3.org/1999/xlink" x="0px" y="0px" viewBox="0 0 1000 1000" enable-background="new 0 0 1000 1000" xml:space="preserve">
<metadata> Svg Vector Icons : http://www.onlinewebfonts.com/icon </metadata>
<g><g transform="translate(0.000000,512.000000) scale(0.100000,-0.100000)"><path d="M519.2,4990.7c-189.7-67.1-329.6-208.9-390.9-400.5C99.6,4505.9,97.6,4088.1,101.5,79l5.7-4417.3l47.9-95.8c59.4-122.7,174.4-237.6,297-297L548-4779h4455.6h4455.6l95.8,47.9c122.7,59.4,237.6,174.4,297,297l47.9,95.8V117.3V4573l-47.9,95.8c-59.4,122.6-174.4,237.6-297,297l-95.8,47.9l-4426.9,3.8C1044.3,5021.4,597.8,5019.5,519.2,4990.7z M8683.1,117.3v-3679.5H5003.6H1324.1V117.3v3679.5h3679.5h3679.5V117.3z"/><path d="M4150.8,2541.6c-69-34.5-2132.9-2190.4-2178.9-2276.7c-42.2-78.6-42.2-197.4,0-276c46-84.3,2119.5-2249.8,2194.3-2292c82.4-44.1,182.1-40.2,262.5,11.5c103.5,65.2,513.6,498.3,546.2,574.9c36.4,86.2,36.4,168.7,1.9,249.1c-15.3,34.5-354.5,404.4-757,822.1c-400.5,419.7-730.2,766.6-730.2,772.3s323.9,348.8,720.6,762.7c396.7,413.9,732.1,778.1,747.4,812.6c34.5,80.5,34.5,162.9-1.9,247.2c-32.6,76.7-467.6,538.5-553.8,586.4C4329,2576.1,4225.6,2578,4150.8,2541.6z"/><path d="M7217.1,2541.6c-69-34.5-2132.9-2190.4-2178.9-2276.7c-42.2-78.6-42.2-197.4,0-276c46-84.3,2119.5-2249.8,2194.3-2292c82.4-44.1,182.1-40.2,262.5,11.5c103.5,65.2,513.6,498.3,546.2,574.9c36.4,86.2,36.4,168.7,1.9,249.1c-15.3,34.5-354.5,404.4-757,822.1c-402.4,419.7-730.1,766.6-730.1,772.3s323.9,348.8,720.5,762.7c396.7,412,732.1,778.1,747.4,812.6c34.5,80.5,34.5,162.9-1.9,247.2c-32.6,76.7-467.6,538.5-553.8,586.4C7395.3,2576.1,7291.8,2578,7217.1,2541.6z"/></g></g>
</svg>