<?xml version="1.0" encoding="utf-8"?>
<!-- Svg Vector Icons : http://www.onlinewebfonts.com/icon -->
<!DOCTYPE svg PUBLIC "-//W3C//DTD SVG 1.1//EN" "http://www.w3.org/Graphics/SVG/1.1/DTD/svg11.dtd">
<svg version="1.1" xmlns="http://www.w3.org/2000/svg" xmlns:xlink="http://www.w3.org/1999/xlink" x="0px" y="0px" viewBox="0 0 1000 1000" enable-background="new 0 0 1000 1000" xml:space="preserve">
<metadata> Svg Vector Icons : http://www.onlinewebfonts.com/icon </metadata>
<g><g transform="translate(0.000000,512.000000) scale(0.100000,-0.100000)"><path d="M519.2,4990.7c-189.7-67.1-329.6-208.9-390.9-400.5C99.6,4505.9,97.6,4088.1,101.5,79l5.7-4417.3l47.9-95.8c59.4-122.7,174.4-237.6,297-297L548-4779h4455.6h4455.6l95.8,47.9c122.7,59.4,237.6,174.4,297,297l47.9,95.8V117.3V4573l-47.9,95.8c-59.4,122.6-174.4,237.6-297,297l-95.8,47.9l-4426.9,3.8C1044.3,5021.4,597.8,5019.5,519.2,4990.7z M8683.1,117.3v-3679.5H5003.6H1324.1V117.3v3679.5h3679.5h3679.5V117.3z"/><path d="M2520,2535.8c-86.2-46-521.3-509.8-555.8-588.3c-34.5-82.4-34.5-166.7,0-245.3c15.3-34.5,354.5-404.4,757-822.1c402.4-419.7,730.1-766.6,730.1-772.3S3127.5-241,2730.8-655c-396.7-412-732.1-778-747.4-812.6c-34.5-78.6-34.5-162.9,0-245.3c34.5-78.6,469.5-542.3,555.8-588.3c76.7-42.1,178.2-42.1,254.9-1.9c82.4,46,2125.3,2180.9,2171.3,2270.9c47.9,90.1,47.9,189.7,0,279.8s-2108,2244.1-2190.4,2290.1C2698.2,2578,2596.6,2578,2520,2535.8z"/><path d="M5586.2,2535.8c-86.3-46-521.3-509.8-555.8-588.3c-34.5-82.4-34.5-166.7,0-245.3c15.3-34.5,354.5-404.4,757-822.1c402.5-419.7,730.2-766.6,730.2-772.3S6193.7-241,5797-655c-396.7-412-732.1-778-747.4-812.6c-34.5-78.6-34.5-162.9,0-245.3c34.5-78.6,469.5-542.3,555.8-588.3c76.7-42.1,178.2-42.1,254.9-1.9c82.4,46,2125.3,2180.9,2171.3,2270.9c47.9,90.1,47.9,189.7,0,279.8s-2108,2244.1-2190.4,2290.1C5764.4,2578,5662.8,2578,5586.2,2535.8z"/></g></g>
</svg>