<?xml version="1.0" encoding="utf-8"?>
<!-- Svg Vector Icons : http://www.onlinewebfonts.com/icon -->
<!DOCTYPE svg PUBLIC "-//W3C//DTD SVG 1.1//EN" "http://www.w3.org/Graphics/SVG/1.1/DTD/svg11.dtd">
<svg version="1.1" xmlns="http://www.w3.org/2000/svg" xmlns:xlink="http://www.w3.org/1999/xlink" x="0px" y="0px" viewBox="0 0 1000 1000" enable-background="new 0 0 1000 1000" xml:space="preserve">
<metadata> Svg Vector Icons : http://www.onlinewebfonts.com/icon </metadata>
<g><g transform="translate(0.000000,409.000000) scale(0.100000,-0.100000)"><path d="M3689.3,2983.6c-30.7-11.5-84.3-40.2-118.8-65.2C3491.9,2859,234-544.6,178.4-625.1c-93.9-138-103.5-333.5-28.7-492.5c51.7-105.4,3380.6-3587.6,3497.5-3656.5c107.3-63.2,310.5-67.1,425.4-5.8c97.7,51.7,816.4,799.1,875.8,910.3c59.4,115,61.3,335.4,1.9,448.4c-23,42.2-569.2,628.6-1213.1,1301.3L2566.3-897.2L2687-770.7c67.1,69,582.6,607.5,1146,1195.8c688,716.7,1042.5,1101.9,1078.9,1167.1c42.2,78.6,51.7,120.7,51.7,224.2c-1.9,218.5-24.9,253-628.6,868.1c-130.3,134.2-270.2,258.7-308.5,276C3944.2,3000.8,3767.9,3014.2,3689.3,2983.6z"/><path d="M8595.4,2983.6c-30.7-11.5-84.3-40.2-118.8-65.2C8398,2859,5140.1-544.6,5084.5-625.1c-93.9-138-103.5-335.4-28.8-492.5c51.7-105.4,3380.6-3587.6,3497.5-3656.5c107.3-63.2,310.5-67.1,425.4-5.8c97.7,51.7,816.4,799.1,875.8,910.3c59.4,113.1,61.3,335.4,1.9,446.5c-21.1,42.2-567.3,628.6-1211.2,1301.2L7472.4-897.2l120.7,126.5c67.1,69,582.6,607.5,1146,1195.8c688,716.7,1042.5,1101.9,1078.9,1167.1c42.2,78.6,51.7,120.7,51.7,224.2c-1.9,220.4-26.8,254.9-638.2,877.7c-197.4,201.2-266.4,258.7-335.4,283.6C8796.6,3010.4,8679.7,3012.3,8595.4,2983.6z"/></g></g>
</svg>