<?xml version="1.0" encoding="utf-8"?>
<!-- Svg Vector Icons : http://www.onlinewebfonts.com/icon -->
<!DOCTYPE svg PUBLIC "-//W3C//DTD SVG 1.1//EN" "http://www.w3.org/Graphics/SVG/1.1/DTD/svg11.dtd">
<svg version="1.1" xmlns="http://www.w3.org/2000/svg" xmlns:xlink="http://www.w3.org/1999/xlink" x="0px" y="0px" viewBox="0 0 1000 1000" enable-background="new 0 0 1000 1000" xml:space="preserve">
<metadata> Svg Vector Icons : http://www.onlinewebfonts.com/icon </metadata>
<g><g transform="translate(0.000000,426.000000) scale(0.100000,-0.100000)"><path d="M4670.8,3305.2c-112.9-61.2-111-34.4-111-1280.5V885.9H2502.2c-2009.8,0-2057.6,0-2159.1-38.3c-111-42.1-191.4-112.9-222-197.1C105.7,614.1,100,156.6,100-743c0-1464.2-3.8-1416.4,112.9-1515.9c134-112.9,68.9-109.1,2302.6-109.1h2044.2l3.8-1165.7l5.7-1165.7l45.9-49.8c55.5-59.3,155-80.4,243.1-53.6c36.4,11.5,1186.7,761.8,2553.4,1669.1L9900-1483.7V-743l-1.9,738.8L7434.7,1636.2c-1355.2,903.4-2495.9,1653.7-2534.2,1671C4812.4,3343.5,4737.8,3343.5,4670.8,3305.2z"/></g></g>
</svg>