<?xml version="1.0" encoding="utf-8"?>
<!-- Svg Vector Icons : http://www.onlinewebfonts.com/icon -->
<!DOCTYPE svg PUBLIC "-//W3C//DTD SVG 1.1//EN" "http://www.w3.org/Graphics/SVG/1.1/DTD/svg11.dtd">
<svg version="1.1" xmlns="http://www.w3.org/2000/svg" xmlns:xlink="http://www.w3.org/1999/xlink" x="0px" y="0px" viewBox="0 0 1000 1000" enable-background="new 0 0 1000 1000" xml:space="preserve">
<metadata> Svg Vector Icons : http://www.onlinewebfonts.com/icon </metadata>
<g><g transform="translate(0.000000,448.000000) scale(0.100000,-0.100000)"><path d="M4681.3,3735.7c-44.1-19.2-1006-854.6-2270.6-1971.7C-49.6-405,101.8-255.6,101.8-520c0-224.2,38.3-281.7,402.4-605.5C2431.8-2834.6,4620-4746.9,4681.3-4775.7c42.2-19.2,95.8-36.4,118.8-36.4c61.3,0,149.5,84.3,174.4,168.6c17.3,53.6,23,389,23,1178.4v1105.6l2239.9,3.8l2238,5.7l132.2,67.1c143.7,72.8,237.6,183.9,275.9,325.7c13.4,49.8,19.2,551.8,15.3,1479.2l-5.8,1404.5l-42.2,78.6c-69,128.4-134.1,193.5-251,251l-109.2,53.6l-2245.7,5.7l-2247.6,3.8v1094.1c0,743.4-7.7,1119-21.1,1178.4c-24.9,93.9-109.2,180.1-176.3,180.1C4777.1,3772.1,4723.5,3754.8,4681.3,3735.7z M3771.1,696.7V93.2h2452.6h2452.6V-520v-613.2H6223.8H3771.1v-603.6c0-331.5-3.8-603.6-9.6-603.6c-26.8,0-2059.8,1808.8-2054.1,1826c7.7,24.9,2027.2,1810.7,2050.2,1812.6C3765.4,1300.3,3771.1,1028.2,3771.1,696.7z"/></g></g>
</svg>