<?xml version="1.0" encoding="utf-8"?>
<!-- Svg Vector Icons : http://www.onlinewebfonts.com/icon -->
<!DOCTYPE svg PUBLIC "-//W3C//DTD SVG 1.1//EN" "http://www.w3.org/Graphics/SVG/1.1/DTD/svg11.dtd">
<svg version="1.1" xmlns="http://www.w3.org/2000/svg" xmlns:xlink="http://www.w3.org/1999/xlink" x="0px" y="0px" viewBox="0 0 1000 1000" enable-background="new 0 0 1000 1000" xml:space="preserve">
<metadata> Svg Vector Icons : http://www.onlinewebfonts.com/icon </metadata>
<g><g transform="translate(0.000000,426.000000) scale(0.100000,-0.100000)"><path d="M5945.8,3285.7C5809.8,3209.1,249-484.7,195.4-534.5C88.2-632.1,71-768.1,145.6-883c36.4-55.5,5719.7-3856.6,5842.3-3908.2c82.3-36.4,170.4-34.5,233.6,3.8c111.1,65.1,107.2,15.3,113,1267.7l5.7,1152.8h1778.9H9900v1627.7V888.3H8119.2H6340.2l-5.7,1154.7c-5.7,1064.7-7.6,1156.6-40.2,1202.5C6223.4,3352.7,6091.3,3366.1,5945.8,3285.7z"/></g></g>
</svg>