<?xml version="1.0" encoding="utf-8"?>
<!-- Svg Vector Icons : http://www.onlinewebfonts.com/icon -->
<!DOCTYPE svg PUBLIC "-//W3C//DTD SVG 1.1//EN" "http://www.w3.org/Graphics/SVG/1.1/DTD/svg11.dtd">
<svg version="1.1" xmlns="http://www.w3.org/2000/svg" xmlns:xlink="http://www.w3.org/1999/xlink" x="0px" y="0px" viewBox="0 0 1000 1000" enable-background="new 0 0 1000 1000" xml:space="preserve">
<metadata> Svg Vector Icons : http://www.onlinewebfonts.com/icon </metadata>
<g><g transform="translate(0.000000,512.000000) scale(0.100000,-0.100000)"><path d="M4862.4,5009c-160.9-53.7-210.7-105.4-2138-2298.9C1665,1503.1,781.8,485.8,762.6,449.4c-74.7-147.5-15.3-279.7,149.4-325.7c49.8-13.4,436.8-21.1,1162.9-21.1h1086.3v-2130.4c0-1431.1,7.7-2168.7,21.1-2247.2c42.1-241.4,201.2-434.9,400.4-488.5c49.8-13.4,546-19.2,1459.8-15.3l1385.1,5.7l101.5,55.6c151.4,84.3,251,235.6,289.3,442.5c15.3,76.6,21.1,787.4,21.1,2245.3V102.6h1088.2c724.1,0,1111.2,7.7,1161,21.1c170.5,47.9,226.1,182,141.8,339.1c-24.9,42.2-908.1,1059.5-1961.8,2258.7C5155.5,5123.9,5272.4,5005.1,5031,5018.5C4967.8,5022.4,4891.2,5018.5,4862.4,5009z M5919.9,2363.2l900.4-1025l-603.5-5.7l-603.5-3.8v-2442.6v-2442.6h-613h-613v2442.6v2442.6l-603.5,3.8l-603.5,5.7L4084.6,2369c498.1,565.2,911.9,1026.9,919.6,1025C5011.8,3390.1,5423.7,2926.5,5919.9,2363.2z"/></g></g>
</svg>