<?xml version="1.0" encoding="utf-8"?>
<!-- Svg Vector Icons : http://www.onlinewebfonts.com/icon -->
<!DOCTYPE svg PUBLIC "-//W3C//DTD SVG 1.1//EN" "http://www.w3.org/Graphics/SVG/1.1/DTD/svg11.dtd">
<svg version="1.1" xmlns="http://www.w3.org/2000/svg" xmlns:xlink="http://www.w3.org/1999/xlink" x="0px" y="0px" viewBox="0 0 1000 1000" enable-background="new 0 0 1000 1000" xml:space="preserve">
<metadata> Svg Vector Icons : http://www.onlinewebfonts.com/icon </metadata>
<g><g transform="translate(0.000000,512.000000) scale(0.100000,-0.100000)"><path d="M1131.7,4991.7c-189.8-67.1-329.7-208.9-391-400.6C712,4506.7,710.1,4088.9,713.9,79l5.7-4418.1l47.9-95.8c59.4-122.7,174.4-237.7,297.1-297.1l95.8-47.9h3843.1h3843.1l95.8,47.9c122.7,59.4,237.7,174.4,297.1,297.1l47.9,95.8V117.4v4456.5l-47.9,95.8c-59.4,122.7-174.4,237.7-297.1,297.1l-95.8,47.9l-3814.4,3.8C1601.3,5022.4,1208.4,5020.4,1131.7,4991.7z M8070.4,117.4v-3680.2H5003.6H1936.8V117.4v3680.2h3066.8h3066.8V117.4z"/><path d="M2732.2,3157.3c-78.6-34.5-159.1-132.3-172.5-208.9c-5.7-34.5-9.6-502.2-5.7-1042.7c5.7-956.5,7.7-981.4,46-1033.1c21.1-28.8,63.2-70.9,92-92c51.8-40.3,59.4-40.3,2311.6-40.3c2252.2,0,2259.9,0,2311.6,40.3c28.8,21.1,70.9,63.3,92,92c40.3,51.8,40.3,72.8,40.3,1084.9c0,1012,0,1033.1-40.3,1084.9c-21.1,28.8-63.3,70.9-92,92c-51.7,40.2-63.3,40.2-2288.6,44.1C3196.1,3182.3,2778.2,3178.4,2732.2,3157.3z"/><path d="M2732.2,90.5c-78.6-34.5-159.1-132.3-172.5-208.9c-7.7-34.5-9.6-226.2-5.7-429.4c5.7-402.5,9.6-417.9,138-511.8c51.8-40.3,59.4-40.3,2311.6-40.3c2252.2,0,2259.9,0,2311.6,40.3c130.4,97.8,132.3,101.6,132.3,563.5c0,462-1.9,465.8-132.3,563.5c-51.7,40.2-63.3,40.2-2288.6,44.1C3196.1,115.4,2778.2,111.6,2732.2,90.5z"/><path d="M2732.2-1749.6c-78.6-34.5-159.1-132.3-172.5-208.9c-7.7-34.5-9.6-226.2-5.7-429.4c5.7-402.5,9.6-417.9,138-511.8c51.8-40.2,59.4-40.2,2311.6-40.2c2252.2,0,2259.9,0,2311.6,40.2c130.4,97.8,132.3,101.6,132.3,563.5c0,462-1.9,465.8-132.3,563.5c-51.7,40.3-63.3,40.3-2288.6,44.1C3196.1-1724.7,2778.2-1728.5,2732.2-1749.6z"/></g></g>
</svg>