<?xml version="1.0" encoding="utf-8"?>
<!-- Svg Vector Icons : http://www.onlinewebfonts.com/icon -->
<!DOCTYPE svg PUBLIC "-//W3C//DTD SVG 1.1//EN" "http://www.w3.org/Graphics/SVG/1.1/DTD/svg11.dtd">
<svg version="1.1" xmlns="http://www.w3.org/2000/svg" xmlns:xlink="http://www.w3.org/1999/xlink" x="0px" y="0px" viewBox="0 0 1000 1000" enable-background="new 0 0 1000 1000" xml:space="preserve">
<metadata> Svg Vector Icons : http://www.onlinewebfonts.com/icon </metadata>
<g><g transform="translate(0.000000,511.000000) scale(0.100000,-0.100000)"><path d="M4858.9,4999.2c-203.8-43.5-373.9-174.1-476.8-362.1l-67.3-124.6l-9.9-1315.6l-9.9-1315.6l-49.5-96.9c-27.7-55.4-73.2-116.7-102.9-136.5c-69.2-51.4-221.6-65.3-324.5-29.7c-45.5,15.8-552,300.7-1127.7,633.1c-575.7,332.4-1076.3,613.3-1113.8,625.2c-110.8,37.6-342.3,29.7-466.9-17.8c-152.3-57.4-304.7-201.8-377.9-358.1c-49.5-106.8-57.4-148.4-57.4-292.8c0-150.4,5.9-184,65.3-300.7c39.6-79.1,98.9-162.2,150.4-207.7c47.5-41.5,548-342.3,1111.9-666.7C2567.9,706,3054.6,421.1,3084.3,399.3c148.4-106.8,191.9-306.6,102.9-457C3123.9-166.5,3114-172.4,1940.8-851c-680.6-393.7-1014.9-597.5-1074.3-656.8c-134.5-132.6-189.9-275-191.9-478.8c0-144.4,7.9-186,57.4-290.8c69.2-150.4,205.8-284.9,364-356.1c89-41.5,142.5-53.4,261.2-51.4c81.1,0,184,11.9,229.5,29.7c43.5,15.8,546,298.7,1115.8,629.1c571.8,330.4,1068.3,613.3,1107.9,627.2c191.9,67.3,350.2,9.9,435.3-162.2l49.5-98.9l9.9-1315.7l9.9-1315.6l67.3-124.6c150.4-275,433.3-417.5,728.1-362.1c231.5,41.5,391.7,156.3,502.5,362.1l67.3,124.6l9.9,1315.6l9.9,1315.7l49.5,98.9c65.3,130.6,152.3,187.9,284.9,187.9c55.4,0,136.5-17.8,180-37.6c45.5-19.8,520.3-288.9,1058.5-599.5c538.1-310.6,1018.9-585.6,1068.3-611.3c132.6-67.3,385.8-75.2,538.1-17.8c156.3,57.4,296.8,190,375.9,352.2c59.4,116.7,65.3,150.4,65.3,300.7c0,150.4-7.9,184-63.3,296.8c-35.6,71.2-96.9,162.2-138.5,201.8c-41.5,39.6-532.2,336.3-1113.8,672.7c-571.8,330.4-1064.4,617.3-1092.1,641C6690.9,1.7,6712.7,268.8,6960,431c57.4,37.6,542.1,320.5,1074.3,629.1c534.2,308.6,1001.1,585.6,1040.6,617.3c97,73.2,184,215.6,225.5,360.1c93,318.5-81.1,670.7-401.6,819.1c-146.4,67.3-381.8,71.2-518.4,9.9c-49.5-21.8-546-304.7-1103.9-627.2c-557.9-324.5-1054.5-603.4-1104-619.2c-108.8-37.6-249.3-25.7-322.5,27.7c-27.7,19.8-73.2,81.1-100.9,136.5l-49.5,96.9l-9.9,1315.6l-9.9,1315.6l-67.3,124.6c-79.1,144.4-186,245.3-332.4,314.6C5171.5,5003.1,4975.6,5024.9,4858.9,4999.2z"/></g></g>
</svg>