<?xml version="1.0" encoding="utf-8"?>
<!-- Svg Vector Icons : http://www.onlinewebfonts.com/icon -->
<!DOCTYPE svg PUBLIC "-//W3C//DTD SVG 1.1//EN" "http://www.w3.org/Graphics/SVG/1.1/DTD/svg11.dtd">
<svg version="1.1" xmlns="http://www.w3.org/2000/svg" xmlns:xlink="http://www.w3.org/1999/xlink" x="0px" y="0px" viewBox="0 0 1000 1000" enable-background="new 0 0 1000 1000" xml:space="preserve">
<metadata> Svg Vector Icons : http://www.onlinewebfonts.com/icon </metadata>
<g><g transform="translate(0.000000,512.000000) scale(0.100000,-0.100000)"><path d="M2621.9,5004.5c-159.2-46-235.9-151.5-234-322.2c0-99.7,32.6-170.7,565.8-1238.9L3519.4,2310l-78.6-24.9c-276.2-80.6-801.7-333.7-1104.7-531.2C1920,1483.4,1463.6,1073,1175.9,712.4C629.3,27.8,282.2-762.4,144.1-1636.9c-42.2-257-44.1-322.2-44.1-1486.3V-4341l47.9-95.9c59.5-122.7,174.5-237.8,297.3-297.3l95.9-47.9H5000h4458.9l95.9,47.9c122.7,59.4,237.8,174.5,297.3,297.3l47.9,95.9v1208.2c0,1260-3.8,1321.4-88.2,1754.8c-235.9,1187.1-957,2284.1-1973.4,3005.2c-410.4,289.6-767.1,467.9-1338.6,667.4c-15.3,5.8,159.2,374,523.6,1102.7c301.1,602.2,560,1141.1,573.4,1196.7c46,176.4-5.8,306.9-153.4,383.6c-74.8,40.3-90.1,40.3-2414.5,44.1C3513.7,5023.7,2666,5017.9,2621.9,5004.5z M5525.5,3163.4l-318.4-638.6l-209,5.8l-211,5.8l-314.5,632.9l-316.4,631H5000h843.8L5525.5,3163.4z M5360.5,1285.8c1497.8-163,2750.1-1187.1,3168.2-2591c126.6-421.9,138.1-537,147.7-1438.3l9.6-820.8H5001.9H1317.8v688.5c0,377.8,9.6,776.7,19.2,886c71,698.1,364.4,1405.8,805.5,1944.7c147.7,180.3,473.7,492.9,652.1,625.2c510.1,379.7,1150.7,632.9,1783.6,705.7C4787.1,1308.9,5145.7,1310.8,5360.5,1285.8z"/></g></g>
</svg>