<?xml version="1.0" encoding="utf-8"?>
<!-- Svg Vector Icons : http://www.onlinewebfonts.com/icon -->
<!DOCTYPE svg PUBLIC "-//W3C//DTD SVG 1.1//EN" "http://www.w3.org/Graphics/SVG/1.1/DTD/svg11.dtd">
<svg version="1.1" xmlns="http://www.w3.org/2000/svg" xmlns:xlink="http://www.w3.org/1999/xlink" x="0px" y="0px" viewBox="0 0 1000 1000" enable-background="new 0 0 1000 1000" xml:space="preserve">
<metadata> Svg Vector Icons : http://www.onlinewebfonts.com/icon </metadata>
<g><g transform="translate(0.000000,512.000000) scale(0.100000,-0.100000)"><path d="M4731.5,4994.9c-339.5-72.9-667.4-327.9-822.7-640.5c-94-191.8-136.2-372.1-136.2-586.9v-155.3l-147.7-53.7c-851.5-301.1-1609-889.9-2132.6-1658.9C1112.6,1343.4,865.2,702.8,750.1-18.3c-24.9-153.4-34.5-379.7-40.3-953.2l-9.6-749.8l-207.1-7.7c-224.4-5.8-268.5-23-352.9-138.1c-38.4-49.9-40.3-78.6-40.3-471.8c0-462.2,1.9-466,132.3-563.8c51.8-40.3,72.9-40.3,1486.3-46l1434.5-3.8l13.4-151.5c65.2-790.1,634.8-1447.9,1423-1645.5c182.2-46,638.6-46,820.8,0c343.3,86.3,627.1,245.5,876.4,492.9C6611-3936.3,6797-3545.1,6833.4-3104l13.4,151.5l1434.5,3.8c1413.4,5.7,1434.5,5.7,1486.3,46c130.4,97.8,132.3,101.7,132.3,563.8c0,393.1-1.9,421.9-40.3,471.8c-84.4,115.1-128.5,132.3-352.9,138.1l-207.1,7.7l-9.6,749.8c-9.6,801.6-21.1,935.9-122.7,1365.5C8822.2,1861.2,7757.8,3069.4,6377,3558.5l-149.6,53.7v155.3C6225.5,4578.7,5514,5163.7,4731.5,4994.9z M5326,2551.6c688.5-84.4,1296.4-387.4,1793.2-891.8c471.8-477.5,772.9-1072.1,905.2-1783.6c21.1-111.2,30.7-354.8,38.4-876.4l9.6-724.9H5000H1927.7l9.6,724.9c9.6,751.8,19.2,841.9,109.3,1192.9c157.3,609.9,535.1,1225.5,1003,1632.1c477.5,414.2,1027.9,655.9,1672.3,732.6C4850.4,2572.7,5174.5,2568.9,5326,2551.6z M5609.9-3161.6c-5.8-226.3-23-270.4-138.1-354.8c-49.9-38.4-78.6-40.3-471.8-40.3c-393.1,0-421.9,1.9-471.8,40.3c-115.1,84.4-132.3,128.5-138.1,354.8l-7.7,209H5000h617.5L5609.9-3161.6z"/></g></g>
</svg>