<?xml version="1.0" encoding="utf-8"?>
<!-- Svg Vector Icons : http://www.onlinewebfonts.com/icon -->
<!DOCTYPE svg PUBLIC "-//W3C//DTD SVG 1.1//EN" "http://www.w3.org/Graphics/SVG/1.1/DTD/svg11.dtd">
<svg version="1.1" xmlns="http://www.w3.org/2000/svg" xmlns:xlink="http://www.w3.org/1999/xlink" x="0px" y="0px" viewBox="0 0 1000 1000" enable-background="new 0 0 1000 1000" xml:space="preserve">
<metadata> Svg Vector Icons : http://www.onlinewebfonts.com/icon </metadata>
<g><g transform="translate(0.000000,512.000000) scale(0.100000,-0.100000)"><path d="M4194.5,4996.3c-191.8-69-329.9-211-393.2-404.7c-24.9-76.7-30.7-153.4-24.9-347.1c5.8-216.7,11.5-257,46-303c84.4-115.1,128.5-132.3,354.8-138.1l209-7.7v-324.1c0-320.3,0-324.1-42.2-331.8c-24.9-5.8-153.4-26.8-287.7-47.9c-546.6-90.1-1116.2-266.6-1597.5-498.6C1135.6,1956.6,345.5,919.1,134.5-457.9c-26.8-174.5-32.6-345.2-34.5-824.7v-604.1l47.9-95.9c59.5-122.7,174.5-237.8,297.3-297.3l95.9-47.9l1923.6-5.7l1921.6-3.8v-613.7v-613.7l-1921.6-3.8l-1923.6-5.8l-95.9-47.9c-122.7-59.4-237.8-174.5-297.3-297.3c-44.1-90.1-47.9-115.1-47.9-387.4c0-318.3,7.7-343.3,132.3-435.3l51.8-40.3H5000h4715.9l51.8,40.3c124.7,92.1,132.3,117,132.3,435.3c0,272.3-3.8,297.3-47.9,387.4c-59.4,122.8-174.5,237.8-297.3,297.3l-95.9,47.9l-1921.6,5.8l-1923.6,3.8v613.7v613.7l1923.6,3.8l1921.6,5.7l95.9,47.9c122.7,59.4,237.8,174.5,297.3,297.3l47.9,95.9v604.1c-1.9,778.6-44.1,1070.1-232.1,1612.9c-500.6,1442.2-1904.4,2472.1-3776.2,2769.3c-105.5,17.3-211,34.5-234,40.3c-44.1,7.7-44.1,11.5-44.1,331.8v324.1l209.1,7.7c226.3,5.8,270.4,23,354.8,138.1c36.4,47.9,40.3,80.6,40.3,343.3c0,272.3-3.8,297.3-47.9,387.4c-59.4,122.7-174.5,237.8-297.3,297.3l-95.9,47.9l-747.9,3.8C4386.3,5025.1,4269.3,5021.3,4194.5,4996.3z M5792.1,1901C7188.2,1690,8168.2,970.9,8524.9-107c90.1-270.4,157.3-659.7,157.3-911v-92.1H5000H1317.8v92.1c0,49.9,9.6,168.8,19.2,262.7c136.2,1208.2,864.9,2067.4,2103.8,2475.9c347.1,115.1,671.2,178.4,1166,226.3C4814,1968.1,5538.9,1939.4,5792.1,1901z"/></g></g>
</svg>