<?xml version="1.0" encoding="utf-8"?>
<!-- Svg Vector Icons : http://www.onlinewebfonts.com/icon -->
<!DOCTYPE svg PUBLIC "-//W3C//DTD SVG 1.1//EN" "http://www.w3.org/Graphics/SVG/1.1/DTD/svg11.dtd">
<svg version="1.1" xmlns="http://www.w3.org/2000/svg" xmlns:xlink="http://www.w3.org/1999/xlink" x="0px" y="0px" viewBox="0 0 1000 1000" enable-background="new 0 0 1000 1000" xml:space="preserve">
<metadata> Svg Vector Icons : http://www.onlinewebfonts.com/icon </metadata>
<g><g transform="translate(0.000000,512.000000) scale(0.100000,-0.100000)"><path d="M4223.4,5005c-49.8-21.1-95.8-74.7-128.3-145.6c-19.2-46-26.8-415.6-34.5-1806.1l-9.6-1750.6l-756.5,547.8c-591.8,429-779.5,553.5-860,578.4c-136,40.2-331.4,28.7-448.2-28.7c-247.1-118.8-383.1-406-319.9-668.4c47.9-203,67-222.2,1013.2-932.8c486.5-363.9,883-670.4,883-678c0-9.6-388.8-308.4-863.8-662.7c-473.1-356.3-894.4-685.7-934.7-729.7c-241.3-275.8-145.6-712.5,195.4-892.5c107.3-57.5,379.2-61.3,517.1-9.6c49.8,19.2,423.3,275.8,829.3,570.8c406,293,741.2,534.4,747,534.4c3.8,0,7.7-762.3,7.7-1695c0-1189.4,5.7-1723.8,21.1-1794.6c44-197.3,176.2-270.1,354.3-189.6c69,30.6,3577.8,2143.2,3803.8,2286.9c139.8,92,168.5,195.4,78.5,300.7c-26.8,32.6-465.4,392.6-971.1,800.6C6184.7-426.9,5535.4,103.7,5535.4,119c0,15.3,645.5,543.9,1823.4,1492c513.3,411.8,946.2,768,963.4,791c40.2,59.4,36.4,153.2-9.6,212.6c-21.1,26.8-243.3,174.3-494.2,325.6c-249,151.3-1095.6,666.5-1878.9,1143.4c-785.3,476.9-1461.4,883-1503.5,902.1C4351.8,5024.1,4284.7,5029.8,4223.4,5005z M5966.4,2777.4c352.4-212.6,635.9-390.7,628.2-398.4c-68.9-61.3-1289-1034.3-1296.6-1034.3c-5.8,0-11.5,409.9-11.5,909.8c0,540.1,7.7,909.8,17.2,909.8C5313.2,3164.3,5612,2990,5966.4,2777.4z M5933.8-1606.7c344.8-275.8,637.8-511.4,651.2-524.8c19.2-17.2-109.2-101.5-618.6-407.9c-354.3-212.6-653.1-386.9-662.7-386.9c-9.6,0-17.2,369.6-17.2,909.8c0,499.9,3.8,909.8,9.6,909.8S5589-1332.8,5933.8-1606.7z"/></g></g>
</svg>