<?xml version="1.0" encoding="utf-8"?>
<!-- Svg Vector Icons : http://www.onlinewebfonts.com/icon -->
<!DOCTYPE svg PUBLIC "-//W3C//DTD SVG 1.1//EN" "http://www.w3.org/Graphics/SVG/1.1/DTD/svg11.dtd">
<svg version="1.1" xmlns="http://www.w3.org/2000/svg" xmlns:xlink="http://www.w3.org/1999/xlink" x="0px" y="0px" viewBox="0 0 1000 1000" enable-background="new 0 0 1000 1000" xml:space="preserve">
<metadata> Svg Vector Icons : http://www.onlinewebfonts.com/icon </metadata>
<g><g transform="translate(0.000000,512.000000) scale(0.100000,-0.100000)"><path d="M2033.5,4992.9c-281.5-61.3-547.7-256.6-653.1-482.6l-51.7-111.1V-92.1v-4491.2l44-68.9c84.3-137.9,262.4-166.6,448.2-72.8c46,23,773.8,480.7,1620.3,1015.1c846.5,536.3,1545.6,974.9,1555.2,974.9c9.6,0,691.4-427.1,1516.9-949.9c825.4-522.9,1553.3-980.6,1616.5-1017c216.4-118.8,398.4-101.5,490.3,49.8l44.1,68.9l5.7,4462.5c3.8,3326.8,0,4489.3-15.3,4567.9c-63.2,294.9-296.9,501.8-632.1,553.5c-82.3,13.4-1101.2,21.1-2997.3,19.2C2690.5,5019.7,2129.3,5014,2033.5,4992.9z M7447.9,614.6c0-1748.6-5.7-3175.5-13.4-3171.7c-9.6,3.8-497.9,295-1085.9,645.4c-589.9,350.5-1107,653.1-1149.1,672.2c-105.3,47.9-300.7,47.9-406,0c-42.1-19.2-559.2-321.7-1149.1-672.2c-588-350.5-1076.4-641.6-1085.9-645.4c-7.7-3.8-13.4,1423-13.4,3171.7v3181.2h2451.5h2451.5V614.6z"/></g></g>
</svg>