<?xml version="1.0" encoding="utf-8"?>
<!-- Svg Vector Icons : http://www.onlinewebfonts.com/icon -->
<!DOCTYPE svg PUBLIC "-//W3C//DTD SVG 1.1//EN" "http://www.w3.org/Graphics/SVG/1.1/DTD/svg11.dtd">
<svg version="1.1" xmlns="http://www.w3.org/2000/svg" xmlns:xlink="http://www.w3.org/1999/xlink" x="0px" y="0px" viewBox="0 0 1000 1000" enable-background="new 0 0 1000 1000" xml:space="preserve">
<metadata> Svg Vector Icons : http://www.onlinewebfonts.com/icon </metadata>
<g><g transform="translate(0.000000,512.000000) scale(0.100000,-0.100000)"><path d="M2677.1,5000.3c-208.8-49.8-407.9-216.4-515.2-432.8l-63.2-130.2L2093-40.1c-1.9-2981.7,1.9-4504.2,15.3-4552.1c42.1-155.1,153.2-220.2,298.7-172.4c44,15.3,547.7,406,1317.6,1020.7c685.6,549.6,1260.1,997.8,1275.4,997.8c15.3,0,589.8-448.1,1275.4-997.8c769.9-614.7,1273.5-1005.4,1317.5-1020.7c145.5-47.9,256.6,17.2,298.8,172.4c13.4,47.9,17.2,1578,15.3,4578.9l-5.7,4508l-49.8,118.7c-61.3,143.6-114.9,212.6-227.9,289.2c-178.1,122.6-82.3,118.7-2594.9,116.8C3776.3,5017.5,2717.3,5009.9,2677.1,5000.3z M6742.7,607.2v-3169.4l-664.5,532.4c-421.3,335.1-704.7,549.6-771.8,578.3c-90,40.2-134.1,47.9-306.4,47.9c-178.1,0-214.5-5.7-310.2-51.7c-84.3-38.3-1085.8-815.8-1398-1083.9c-32.6-26.8-34.5,124.5-34.5,3142.6v3173.2H5000h1742.7V607.2z"/></g></g>
</svg>