<?xml version="1.0" encoding="utf-8"?>
<!-- Svg Vector Icons : http://www.onlinewebfonts.com/icon -->
<!DOCTYPE svg PUBLIC "-//W3C//DTD SVG 1.1//EN" "http://www.w3.org/Graphics/SVG/1.1/DTD/svg11.dtd">
<svg version="1.1" xmlns="http://www.w3.org/2000/svg" xmlns:xlink="http://www.w3.org/1999/xlink" x="0px" y="0px" viewBox="0 0 1000 1000" enable-background="new 0 0 1000 1000" xml:space="preserve">
<metadata> Svg Vector Icons : http://www.onlinewebfonts.com/icon </metadata>
<g><g transform="translate(0.000000,512.000000) scale(0.100000,-0.100000)"><path d="M2225.3,4994.7c-367.8-65.1-691.5-237.5-967.4-513.4c-201.1-201.1-341-417.6-429.1-657.1C708.2,3491,714,3650,714,121.5c0-3528.4-5.7-3369.5,114.9-3702.8c174.3-480.8,605.3-911.8,1086.1-1086.1c335.2-120.7,174.3-114.9,3712.3-111.1l3218.1,5.7l95.8,47.9c122.6,59.4,237.5,174.3,296.9,296.9l47.9,95.8V121.5v4453.7l-47.9,95.8c-59.4,122.6-174.3,237.5-296.9,296.9l-95.8,47.9l-3237.3,3.8C2924.5,5021.5,2346,5017.7,2225.3,4994.7z M5008.6,2362.7c5.7-1254.7,9.6-1440.5,34.5-1455.8c15.3-9.6,34.5-19.2,42.1-19.2c5.7,0,101.5,91.9,210.7,205c107.3,114.9,295,306.5,413.8,427.2l214.5,220.3l206.9-210.7c113-116.8,298.8-308.4,411.8-427.2c114.9-116.8,214.5-214.5,220.3-214.5c7.7,0,26.8,9.6,42.1,19.2c24.9,15.3,28.7,201.1,34.5,1455.8l3.8,1436.7h613h613V1347.5v-2451.9H5246.2c-2974.9,0-2986.3,0-3225.8-84.3l-80.5-28.7l3.8,2283.3l5.7,2283.3l51.7,97.7c28.7,53.6,72.8,122.6,99.6,155.2c51.7,61.3,216.5,157.1,306.5,180.1c32.6,7.6,630.2,13.4,1327.5,15.3l1270,1.9L5008.6,2362.7z M8069.7-2943.4v-613l-2838.9,3.8l-2840.8,5.7l-97.7,51.7c-145.6,76.6-205,134.1-275.8,266.3c-180.1,337.2-21.1,739.4,344.8,865.8c76.6,26.8,392.7,30.7,2898.2,32.6h2810.1V-2943.4z"/></g></g>
</svg>