<?xml version="1.0" encoding="utf-8"?>
<!-- Svg Vector Icons : http://www.onlinewebfonts.com/icon -->
<!DOCTYPE svg PUBLIC "-//W3C//DTD SVG 1.1//EN" "http://www.w3.org/Graphics/SVG/1.1/DTD/svg11.dtd">
<svg version="1.1" xmlns="http://www.w3.org/2000/svg" xmlns:xlink="http://www.w3.org/1999/xlink" x="0px" y="0px" viewBox="0 0 1000 1000" enable-background="new 0 0 1000 1000" xml:space="preserve">
<metadata> Svg Vector Icons : http://www.onlinewebfonts.com/icon </metadata>
<g><g transform="translate(0.000000,512.000000) scale(0.100000,-0.100000)"><path d="M565.2,5004.6c-90.1-23-254.9-118.8-306.6-180.1c-26.8-32.6-70.9-101.6-99.6-155.2l-51.7-97.7l-5.7-4417.3c-3.8-4007.2-1.9-4426.9,26.8-4515c46-147.6,149.5-272.1,295.1-350.7l124.6-69h4455.6h4455.6l120.7,65.2c134.2,72.8,191.6,132.2,268.3,277.9l51.7,97.7V115.9v4455.6l-69,124.6c-78.6,143.7-201.2,247.2-346.9,295.1c-88.1,28.7-494.4,30.7-4478.6,28.7C2596.6,5018,597.8,5012.3,565.2,5004.6z M2408.8,4358.8c130.3-97.7,132.2-101.6,132.2-563.4c0-461.9-1.9-465.7-132.2-563.4c-49.8-38.3-78.6-40.2-471.4-40.2c-392.9,0-421.6,1.9-471.4,40.2c-128.4,93.9-132.2,109.2-138,511.7c-7.7,423.5-1.9,469.5,67.1,551.9c90.1,105.4,128.4,113.1,565.3,107.3C2326.4,4399,2360.9,4395.2,2408.8,4358.8z M8683.1-497.3v-3066.2H5003.6H1324.1v3066.2v3066.2h3679.5h3679.5V-497.3z"/></g></g>
</svg>