<?xml version="1.0" encoding="utf-8"?>
<!-- Svg Vector Icons : http://www.onlinewebfonts.com/icon -->
<!DOCTYPE svg PUBLIC "-//W3C//DTD SVG 1.1//EN" "http://www.w3.org/Graphics/SVG/1.1/DTD/svg11.dtd">
<svg version="1.1" xmlns="http://www.w3.org/2000/svg" xmlns:xlink="http://www.w3.org/1999/xlink" x="0px" y="0px" viewBox="0 0 1000 1000" enable-background="new 0 0 1000 1000" xml:space="preserve">
<metadata> Svg Vector Icons : http://www.onlinewebfonts.com/icon </metadata>
<g><g transform="translate(0.000000,512.000000) scale(0.100000,-0.100000)"><path d="M1131.7,4991.7c-189.8-67.1-329.7-208.9-391-400.6C712,4506.7,710.1,4088.9,713.9,79l5.7-4418.1l47.9-95.8c59.4-122.7,174.4-237.7,297.1-297.1l95.8-47.9h3843.1h3843.1l95.8,47.9c122.7,59.4,237.7,174.4,297.1,297.1l47.9,95.8V117.4v4456.5l-47.9,95.8c-59.4,122.7-174.4,237.7-297.1,297.1l-95.8,47.9l-3814.4,3.8C1601.3,5022.4,1208.4,5020.4,1131.7,4991.7z M8070.4,2877.5v-920H5003.6H1936.8v920v920.1h3066.8h3066.8V2877.5z M8070.4-1416.1v-2146.8H5003.6H1936.8v2146.8V730.7h3066.8h3066.8V-1416.1z"/><path d="M2550.2-496v-613.4h613.4h613.4V-496v613.4h-613.4h-613.4V-496z"/><path d="M4390.2-496v-613.4h613.4H5617V-496v613.4h-613.4h-613.4V-496z"/><path d="M6230.3-496v-613.4h613.4h613.4V-496v613.4h-613.4h-613.4V-496z"/><path d="M2550.2-2336.1v-613.4h613.4h613.4v613.4v613.4h-613.4h-613.4V-2336.1z"/><path d="M4390.2-2336.1v-613.4h613.4H5617v613.4v613.4h-613.4h-613.4V-2336.1z"/><path d="M6230.3-2336.1v-613.4h613.4h613.4v613.4v613.4h-613.4h-613.4V-2336.1z"/></g></g>
</svg>