<?xml version="1.0" encoding="utf-8"?>
<!-- Svg Vector Icons : http://www.onlinewebfonts.com/icon -->
<!DOCTYPE svg PUBLIC "-//W3C//DTD SVG 1.1//EN" "http://www.w3.org/Graphics/SVG/1.1/DTD/svg11.dtd">
<svg version="1.1" xmlns="http://www.w3.org/2000/svg" xmlns:xlink="http://www.w3.org/1999/xlink" x="0px" y="0px" viewBox="0 0 1000 1000" enable-background="new 0 0 1000 1000" xml:space="preserve">
<metadata> Svg Vector Icons : http://www.onlinewebfonts.com/icon </metadata>
<g><g transform="translate(0.000000,512.000000) scale(0.100000,-0.100000)"><path d="M512.4,4996.3c-122.7-44.1-239.7-130.4-303-224.4c-117-174.5-109.3,191.8-109.3-4664.1v-4449.3l47.9-95.9c59.5-122.7,174.5-237.8,297.3-297.3l95.9-47.9H5000h4458.9l95.9,47.9c122.8,59.4,237.8,174.5,297.3,297.3l47.9,95.9V117.4v4458.8l-47.9,95.9c-59.5,122.7-174.5,237.8-297.3,297.3c-90.2,44.1-115.1,47.9-387.4,47.9c-318.3,0-343.3-7.7-435.3-132.3c-38.4-49.9-40.3-82.5-49.9-778.6s-11.5-728.8-49.9-778.6c-21.1-28.8-63.3-71-92.1-92.1c-51.8-40.3-72.9-40.3-1085.5-40.3c-1012.6,0-1033.7,0-1085.5,40.3c-28.8,21.1-71,63.3-92.1,92.1c-38.3,49.9-40.3,82.5-49.9,778.6s-11.5,728.8-49.9,778.6c-21.1,28.8-63.3,71-92.1,92.1c-51.8,40.3-72.9,40.3-1085.5,40.3c-1012.6,0-1033.7,0-1085.5-40.3c-28.8-21.1-71-63.3-92.1-92.1c-38.4-49.9-40.3-82.5-49.9-778.6c-9.6-696.2-11.5-728.8-49.9-778.6c-21.1-28.8-63.3-71-92-92.1c-51.8-40.3-72.9-40.3-1085.5-40.3c-1012.6,0-1033.7,0-1085.5,40.3c-28.8,21.1-71,63.3-92,92.1c-38.4,49.9-40.3,82.5-49.9,778.6c-9.6,696.2-11.5,728.8-49.9,778.6c-90.1,120.8-120.8,132.3-406.6,136.2C660.1,5025,579.6,5019.3,512.4,4996.3z M8682.2-803.1v-2761.6H5000H1317.9v2761.6v2761.6H5000h3682.2V-803.1z"/><path d="M6678.1,1314.1c-30.7-15.3-544.7-519.7-1141.1-1121.9L4453.5-900.9l-527.4,491c-289.6,270.4-552.3,508.2-584.9,529.3c-67.1,42.2-182.2,47.9-255.1,9.6c-28.8-15.3-157.3-134.3-285.8-264.7c-245.5-249.3-276.2-301.1-245.5-435.3c17.3-76.7,55.6-117,805.5-828.5c349-329.8,707.7-671.2,797.8-757.5c126.6-118.9,184.1-161.1,237.8-172.6c159.2-28.8,115.1-69,1624.4,1455.6C7232.4,349.5,7433.7,562.4,7445.2,621.8c26.9,136.2,0,182.2-247.4,433.4C6912.1,1346.7,6823.9,1390.8,6678.1,1314.1z"/><path d="M2113.8,5000.1c-78.6-34.5-159.2-132.3-172.6-209c-7.7-34.5-9.6-226.3-5.7-429.6c5.7-402.7,9.6-418.1,138.1-512c49.9-38.4,78.6-40.3,471.8-40.3c393.1,0,421.9,1.9,471.8,40.3c130.4,97.8,132.3,101.6,132.3,563.8c0,393.1-1.9,421.9-40.3,471.8c-95.9,128.5-105.5,132.3-540.8,136.2C2267.2,5025,2157.9,5021.2,2113.8,5000.1z"/><path d="M7023.3,5000.1c-78.6-34.5-159.2-132.3-172.6-209c-7.7-34.5-9.6-226.3-5.8-429.6c5.8-402.7,9.6-418.1,138.1-512c49.9-38.4,78.6-40.3,471.8-40.3c393.1,0,421.9,1.9,471.8,40.3c130.4,97.8,132.3,101.6,132.3,563.8c0,393.1-1.9,421.9-40.3,471.8c-95.9,128.5-105.5,132.3-540.8,136.2C7176.7,5025,7067.4,5021.2,7023.3,5000.1z"/></g></g>
</svg>