<?xml version="1.0" encoding="utf-8"?>
<!-- Svg Vector Icons : http://www.onlinewebfonts.com/icon -->
<!DOCTYPE svg PUBLIC "-//W3C//DTD SVG 1.1//EN" "http://www.w3.org/Graphics/SVG/1.1/DTD/svg11.dtd">
<svg version="1.1" xmlns="http://www.w3.org/2000/svg" xmlns:xlink="http://www.w3.org/1999/xlink" x="0px" y="0px" viewBox="0 0 1000 1000" enable-background="new 0 0 1000 1000" xml:space="preserve">
<metadata> Svg Vector Icons : http://www.onlinewebfonts.com/icon </metadata>
<g><g transform="translate(0.000000,512.000000) scale(0.100000,-0.100000)"><path d="M4537.5,4995.7c-76.6-28.7-193.5-109.2-237.5-162.8c-55.6-67-275.8-530.5-392.6-823.6c-475-1206.7-741.2-2597.2-741.2-3888.1c0-1524.6,386.9-3248.4,1005.5-4481.9c76.6-151.3,126.4-226,191.5-283.5c159-139.8,159-139.8,1151.1-134.1l879.2,5.7l95.8,47.9c122.6,59.4,237.5,174.3,296.9,296.9l47.9,95.8v775.7v775.7l-47.9,95.8c-59.4,122.6-174.3,237.5-296.9,296.9c-91.9,44.1-116.8,47.9-565,57.5c-448.2,9.6-473.1,13.4-565,57.5c-122.6,59.4-237.5,174.3-296.9,296.9l-47.9,95.8V121.2v2001.5l47.9,95.8c59.4,122.6,176.2,237.5,296.9,296.9c90,44.1,118.8,46,565,57.5c430.9,11.5,476.9,15.3,555.4,53.6c136,65.1,216.4,143.7,289.2,275.8l65.1,120.7v775.7v775.7l-65.1,120.7c-70.9,132.2-151.3,208.8-289.2,275.8c-86.2,44.1-93.9,44.1-976.8,47.9C4763.4,5022.5,4598.7,5018.7,4537.5,4995.7z"/></g></g>
</svg>