<?xml version="1.0" encoding="utf-8"?>
<!-- Svg Vector Icons : http://www.onlinewebfonts.com/icon -->
<!DOCTYPE svg PUBLIC "-//W3C//DTD SVG 1.1//EN" "http://www.w3.org/Graphics/SVG/1.1/DTD/svg11.dtd">
<svg version="1.1" xmlns="http://www.w3.org/2000/svg" xmlns:xlink="http://www.w3.org/1999/xlink" x="0px" y="0px" viewBox="0 0 1000 1000" enable-background="new 0 0 1000 1000" xml:space="preserve">
<metadata> Svg Vector Icons : http://www.onlinewebfonts.com/icon </metadata>
<g><g transform="translate(0.000000,512.000000) scale(0.100000,-0.100000)"><path d="M2947.9,5010.2c-145.8-46-280-166.9-349-318.4c-40.3-88.2-44.1-128.5-49.9-492.9l-7.7-397l-1027.9-5.8c-1014.5-5.8-1031.8-5.8-1106.6-47.9c-107.4-57.5-226.3-191.8-270.4-304.9c-34.5-92.1-36.4-203.3-36.4-3939.2s1.9-3847.1,36.4-3939.2c44.1-113.1,163-247.4,270.4-304.9l76.7-42.2h4458.9h4458.9l109.3,51.8c138.1,65.2,274.2,187.9,337.5,312.6l51.8,95.9v3826v3826l-51.8,95.9c-63.3,124.7-199.4,247.4-337.5,312.6l-109.3,51.8l-972.3,5.8l-972.3,5.8l-5.8,377.8c-5.8,366.3-7.7,381.7-57.5,473.7c-63.3,124.7-199.4,247.4-337.5,312.6l-109.3,51.8l-1975.4,3.8C3885.8,5023.6,2974.8,5017.9,2947.9,5010.2z M5322.2,1282c189.9-65.2,329.9-153.4,471.8-291.5c143.8-140,241.6-297.3,310.7-498.6c46-132.3,53.7-184.1,53.7-374c0-189.9-7.7-241.6-53.7-374c-170.7-494.8-584.9-815.1-1095.1-845.7c-563.8-36.4-1056.7,310.7-1248.5,874.5c-28.8,80.5-36.4,161.1-36.4,345.2c0,266.6,19.2,349,140,584.9c99.7,195.6,314.5,402.7,523.6,506.3c214.8,105.5,362.5,138.1,602.2,128.5C5132.3,1331.9,5218.6,1318.5,5322.2,1282z M2493.4-58.5c38.4-575.3,285.8-1121.9,700-1541.9c726.9-738.4,1837.3-941.7,2777-506.3c788.2,364.4,1321.4,1120,1409.6,2006l23,218.6h638.6h640.5v-1841.1v-1841.1H5000H1317.8v1841.1V117.9h581.1h583L2493.4-58.5z"/></g></g>
</svg>