<?xml version="1.0" encoding="utf-8"?>
<!-- Svg Vector Icons : http://www.onlinewebfonts.com/icon -->
<!DOCTYPE svg PUBLIC "-//W3C//DTD SVG 1.1//EN" "http://www.w3.org/Graphics/SVG/1.1/DTD/svg11.dtd">
<svg version="1.1" xmlns="http://www.w3.org/2000/svg" xmlns:xlink="http://www.w3.org/1999/xlink" x="0px" y="0px" viewBox="0 0 1000 1000" enable-background="new 0 0 1000 1000" xml:space="preserve">
<metadata> Svg Vector Icons : http://www.onlinewebfonts.com/icon </metadata>
<g><g transform="translate(0.000000,512.000000) scale(0.100000,-0.100000)"><path d="M3188.7,4993.3c-128.4-34.5-249.1-113-350.6-224.2c-137.9-155.2-145.6-195.4-145.6-881.3v-590.1l-885.2-5.7l-887.1-5.7l-126.5-59.4c-151.4-72.8-268.2-174.4-339.1-293.1l-51.7-88.1l-5.7-3571.4l-3.8-3571.3l46-99.6c61.3-136,180.1-249.1,333.4-321.9L901-4780h4186.4h4186.4l88.1,51.7c103.5,61.3,176.3,162.8,218.4,306.5c26.8,92,28.7,477.1,24.9,3715l-5.8,3609.7l-44,95.8c-53.7,115-122.6,191.6-224.2,245.2c-74.7,42.1-93.9,42.1-1048,47.9l-973.3,5.7v601.6c0,615-11.5,741.5-78.5,873.7c-46,93.9-172.4,201.2-260.6,226.1C6859.6,5029.7,3305.5,5025.8,3188.7,4993.3z M6156.5,3579.3l5.8-283.6H5001.2H3842v274c0,151.4,5.7,281.7,13.4,287.4c5.7,7.7,526.9,11.5,1153.4,9.6l1141.9-5.7L6156.5,3579.3z M8459.5-756.5V-3640H5001.2H1542.9v2883.5V2127h3458.3h3458.3V-756.5z"/><path d="M4598.8,1521.6c-214.6-38.3-429.2-111.1-641.8-220.3C3326.6,981.3,2897.5,418,2744.2-287.1c-55.6-262.5-53.7-685.9,3.8-944.6c99.6-438.8,285.5-787.5,586.3-1103.6c448.3-471.3,1019.3-716.6,1666.9-716.6c636.1,0,1164.9,220.3,1620.9,674.4c354.4,356.4,565.2,756.8,651.4,1247.3c32.6,182,32.6,578.6,0,766.4c-82.4,475.2-306.5,902.4-653.3,1245.4c-346.8,344.9-760.6,559.5-1233.9,641.8C5177.4,1559.9,4805.7,1558,4598.8,1521.6z M5374.8,339.4c274-97.7,507.7-297,641.8-551.8C6260-676,6164.2-1239.3,5779-1593.8c-128.3-120.7-327.6-229.9-492.4-272.1c-149.5-38.3-425.3-40.2-571-1.9c-256.7,67.1-526.9,260.6-674.4,484.7c-331.5,496.2-210.8,1195.6,266.3,1550c231.8,172.4,450.3,239.5,741.5,228C5183.2,391.1,5267.5,375.8,5374.8,339.4z"/></g></g>
</svg>