<?xml version="1.0" encoding="utf-8"?>
<!-- Svg Vector Icons : http://www.onlinewebfonts.com/icon -->
<!DOCTYPE svg PUBLIC "-//W3C//DTD SVG 1.1//EN" "http://www.w3.org/Graphics/SVG/1.1/DTD/svg11.dtd">
<svg version="1.1" xmlns="http://www.w3.org/2000/svg" xmlns:xlink="http://www.w3.org/1999/xlink" x="0px" y="0px" viewBox="0 0 1000 1000" enable-background="new 0 0 1000 1000" xml:space="preserve">
<metadata> Svg Vector Icons : http://www.onlinewebfonts.com/icon </metadata>
<g><g transform="translate(0.000000,512.000000) scale(0.100000,-0.100000)"><path d="M516.3,4994c-180.3-61.4-276.2-145.8-372.1-328c-36.4-71-44.1-115.1-44.1-249.4c0-140,7.7-176.5,51.8-262.8c69.1-132.4,168.8-230.2,299.3-291.6c103.6-48,124.7-49.9,487.2-55.6l377.9-7.7V992.4V-1816l40.3-111.3c53.7-138.1,180.3-276.2,322.3-345.3l107.4-53.7h3520.1h3520.1l109.3,53.7c462.3,226.3,462.3,874.7,0,1101.1l-109.3,53.7L5686-1112l-3142.1,3.8v306.9v306.9h2856.3c2793,0,2858.3,0,2979.1,38.4c212.9,65.2,422,249.4,502.6,445c15.3,36.4,253.2,1066.6,529.4,2290.4c535.2,2369.1,527.5,2332.6,450.8,2484.2c-53.7,105.5-143.9,188-253.2,228.3c-101.6,38.4-151.5,38.4-4548.3,38.4C834.7,5028.5,610.3,5026.6,516.3,4994z M8624.9,3789.3c0-9.6-188-700.2-416.3-1534.6L7790.4,733.4H5168.1H2543.9v1534.6v1534.6h3040.5C7257.1,3802.7,8624.9,3796.9,8624.9,3789.3z"/><path d="M2622.5-2980.4c-485.3-130.4-786.5-635-663.7-1110.7c128.5-491.1,631.1-796.1,1112.6-671.4c491.1,128.5,796.1,631.1,671.4,1108.8C3614.3-3156.9,3104-2849.9,2622.5-2980.4z"/><path d="M7533.4-2980.4c-485.4-130.4-786.5-635-663.7-1110.7c128.5-491.1,631.1-796.1,1112.6-671.4c491.1,128.5,796.1,631.1,671.4,1108.8C8525.1-3156.9,8014.9-2849.9,7533.4-2980.4z"/></g></g>
</svg>