<?xml version="1.0" encoding="utf-8"?>
<!-- Svg Vector Icons : http://www.onlinewebfonts.com/icon -->
<!DOCTYPE svg PUBLIC "-//W3C//DTD SVG 1.1//EN" "http://www.w3.org/Graphics/SVG/1.1/DTD/svg11.dtd">
<svg version="1.1" xmlns="http://www.w3.org/2000/svg" xmlns:xlink="http://www.w3.org/1999/xlink" x="0px" y="0px" viewBox="0 0 1000 1000" enable-background="new 0 0 1000 1000" xml:space="preserve">
<metadata> Svg Vector Icons : http://www.onlinewebfonts.com/icon </metadata>
<g><g transform="translate(0.000000,512.000000) scale(0.100000,-0.100000)"><path d="M513.2,4996.1c-176.4-61.4-312.6-191.8-385.4-370.1c-44.1-111.2-34.5-354.8,21.1-469.8c59.4-122.7,174.5-237.8,297.2-297.2c90.1-44.1,118.9-47.9,483.2-53.7l389.3-7.7l3.8-3146.8l5.8-3148.8l51.8-97.8c76.7-145.8,134.2-205.2,268.5-278.1l120.8-65.2l479.4-9.6c293.4-5.8,448.7-15.3,400.8-23c-138.1-24.9-337.5-140-452.6-260.8c-118.9-124.6-193.7-257-235.9-420c-124.6-477.5,180.3-979.9,671.2-1108.4c481.3-124.6,983.7,180.3,1112.2,675c122.7,473.7-178.3,976.1-667.3,1108.4c-86.3,23,233.9,26.9,2537,26.9c2337.6,0,2625.2-3.8,2533.2-28.8c-485.2-130.4-786.2-634.8-663.5-1110.3c128.5-490.9,630.9-795.8,1112.2-671.2c166.8,44.1,320.2,134.2,437.2,257c349,366.3,349,905.1-1.9,1271.4c-115.1,120.8-314.5,235.9-452.6,260.8c-47.9,7.7,107.4,17.3,400.8,23l479.4,9.6l120.8,65.2c134.2,72.9,191.8,132.3,268.5,278.1c44.1,84.4,51.8,120.8,51.8,260.8s-7.7,178.3-53.7,272.3c-61.4,124.6-170.7,232-299.2,291.5l-88.2,40.3l-3455.6,5.8l-3457.5,3.8v613.6v613.6l3457.5,3.8l3455.6,5.7l95.9,47.9c122.7,59.4,237.8,174.5,297.2,297.2l47.9,95.9v2310.7v2310.8l-69,124.6c-78.6,143.8-201.3,247.4-347.1,295.3c-88.2,28.8-496.7,30.7-4491.1,30.7C1048.2,5026.8,589.9,5023,513.2,4996.1z M8682.3,2267.3V733.2H5614.1H2545.9v1534.1v1534.1h3068.2h3068.2V2267.3z"/></g></g>
</svg>