<?xml version="1.0" encoding="utf-8"?>
<!-- Svg Vector Icons : http://www.onlinewebfonts.com/icon -->
<!DOCTYPE svg PUBLIC "-//W3C//DTD SVG 1.1//EN" "http://www.w3.org/Graphics/SVG/1.1/DTD/svg11.dtd">
<svg version="1.1" xmlns="http://www.w3.org/2000/svg" xmlns:xlink="http://www.w3.org/1999/xlink" x="0px" y="0px" viewBox="0 0 1000 1000" enable-background="new 0 0 1000 1000" xml:space="preserve">
<metadata> Svg Vector Icons : http://www.onlinewebfonts.com/icon </metadata>
<g><g transform="translate(0.000000,256.000000) scale(0.100000,-0.100000)"><path d="M4807.1-20.9c-122.7-42.2-239.7-128.5-302.9-222.4c-63.3-88.2-118.9-237.8-118.9-310.6v-47.9l-1921.2-3.8L541-611.5l-95.9-47.9c-122.7-59.4-237.7-174.5-297.2-297.2l-47.9-95.9v-1390.1v-1390.1l47.9-95.9c59.4-122.7,174.5-237.8,297.2-297.2l95.9-47.9l1919.3-5.8l1919.3-3.8l11.5-86.3c26.9-191.7,164.9-379.6,349-469.7l95.9-47.9h1390.1H7616l95.9,47.9c184.1,90.1,322.1,278,349,469.7l11.5,84.4l692.2,5.8l692.1,5.8l95.9,47.9c122.7,59.4,237.8,174.5,297.2,297.2c67.1,138.1,67.1,379.6,0,517.7c-59.4,122.7-174.5,237.7-297.2,297.2l-95.9,47.9l-694.1,5.8l-696,5.8v611.6v611.6l696,5.8l694.1,5.8l95.9,47.9c122.7,59.4,237.8,174.5,297.2,297.2c67.1,138,67.1,379.6,0,517.7c-59.4,122.7-174.5,237.7-297.2,297.2l-95.9,47.9l-692.1,5.7l-692.2,5.8l-11.5,84.4c-26.9,191.7-164.9,379.6-349,469.7L7616,2.1L6254.7,5.9C5054.4,9.7,4883.8,5.9,4807.1-20.9z M6839.5-2442.5v-1227.1h-613.6h-613.6v1227.1v1227.1h613.6h613.6V-2442.5z M4385.3-2442.5v-613.5H2851.4H1317.5v613.5v613.6h1533.9h1533.9V-2442.5z"/></g></g>
</svg>