<?xml version="1.0" encoding="utf-8"?>
<!-- Svg Vector Icons : http://www.onlinewebfonts.com/icon -->
<!DOCTYPE svg PUBLIC "-//W3C//DTD SVG 1.1//EN" "http://www.w3.org/Graphics/SVG/1.1/DTD/svg11.dtd">
<svg version="1.1" xmlns="http://www.w3.org/2000/svg" xmlns:xlink="http://www.w3.org/1999/xlink" x="0px" y="0px" viewBox="0 0 1000 1000" enable-background="new 0 0 1000 1000" xml:space="preserve">
<metadata> Svg Vector Icons : http://www.onlinewebfonts.com/icon </metadata>
<g><g transform="translate(0.000000,512.000000) scale(0.100000,-0.100000)"><path d="M4854.2,4975.5c-57.4-63.2,34.5,174.2-1248.2-3197C2591.4-888.1,2557-981.9,2557-1112.1c-1.9-164.6,44-252.7,176.1-331.2l90-51.7l1087.3-5.7l1085.4-5.8v-1636.7V-4780l202.9,5.7l202.9,5.7L6416.3-2098c582,1531.5,1018.4,2708.8,1024.2,2760.5c21,176.1-88.1,346.5-260.4,407.8c-70.8,24.9-235.5,28.7-1133.3,28.7h-1051l-1.9,1891.4c0,1918.2-3.8,2006.2-68.9,2029.2C4911.6,5023.4,4879.1,5002.3,4854.2,4975.5z"/></g></g>
</svg>