<?xml version="1.0" encoding="utf-8"?>
<!-- Svg Vector Icons : http://www.onlinewebfonts.com/icon -->
<!DOCTYPE svg PUBLIC "-//W3C//DTD SVG 1.1//EN" "http://www.w3.org/Graphics/SVG/1.1/DTD/svg11.dtd">
<svg version="1.1" xmlns="http://www.w3.org/2000/svg" xmlns:xlink="http://www.w3.org/1999/xlink" x="0px" y="0px" viewBox="0 0 1000 1000" enable-background="new 0 0 1000 1000" xml:space="preserve">
<metadata> Svg Vector Icons : http://www.onlinewebfonts.com/icon </metadata>
<g><g transform="translate(0.000000,512.000000) scale(0.100000,-0.100000)"><path d="M519.2,4990.7c-189.7-67.1-329.6-208.9-390.9-400.5C99.6,4505.9,97.6,4088.1,101.5,79l5.7-4417.3l47.9-95.8c59.4-122.7,174.4-237.6,297-297L548-4779h4455.6h4455.6l95.8,47.9c122.7,59.4,237.6,174.4,297,297l47.9,95.8V117.3V4573l-47.9,95.8c-59.4,122.6-174.4,237.6-297,297l-95.8,47.9l-4426.9,3.8C1044.3,5021.4,597.8,5019.5,519.2,4990.7z M8683.1,117.3v-3679.5H5003.6H1324.1V117.3v3679.5h3679.5h3679.5V117.3z"/><path d="M6584.6,1926.4c-30.7-17.2-538.5-509.8-1124.9-1096.2L4390.4-237.2L3936.2,217c-251,249.1-482.9,465.7-517.4,482.9c-155.2,78.6-256.8,30.7-553.8-258.7c-312.4-308.5-366-419.7-277.9-588.3c21.1-38.3,398.6-431.2,839.4-870c703.3-701.4,810.6-801.1,883.5-820.2c184-47.9,99.7-120.7,1674.9,1452.6C7535.2,1165.6,7479.6,1104.3,7447,1280.6c-11.5,61.3-57.5,118.8-283.6,348.8c-149.5,151.4-299,287.5-333.5,300.9C6749.4,1964.7,6657.5,1962.8,6584.6,1926.4z"/></g></g>
</svg>