<?xml version="1.0" encoding="utf-8"?>
<!-- Svg Vector Icons : http://www.onlinewebfonts.com/icon -->
<!DOCTYPE svg PUBLIC "-//W3C//DTD SVG 1.1//EN" "http://www.w3.org/Graphics/SVG/1.1/DTD/svg11.dtd">
<svg version="1.1" xmlns="http://www.w3.org/2000/svg" xmlns:xlink="http://www.w3.org/1999/xlink" x="0px" y="0px" viewBox="0 0 1000 1000" enable-background="new 0 0 1000 1000" xml:space="preserve">
<metadata> Svg Vector Icons : http://www.onlinewebfonts.com/icon </metadata>
<g><g transform="translate(0.000000,372.000000) scale(0.100000,-0.100000)"><path d="M8668.2,2258.5c-40.2-15.3-92-42.1-116.9-61.3C8513,2166.5,4781-1477.3,3947.6-2297.3l-289.3-287.4L2549.1-1496.5c-609.2,597.7-1138,1101.6-1174.4,1120.8c-109.2,55.6-214.6,65.1-335.3,28.7c-99.6-28.7-139.8-61.3-486.6-392.7c-222.2-210.7-394.6-392.7-415.7-434.9c-49.8-101.5-49.8-298.9,1.9-387c21.1-34.5,758.6-766.3,1638-1624.6c1764.4-1724.2,1699.3-1668.6,1915.8-1647.6c59.4,3.8,137.9,24.9,172.4,42.1c36.4,19.2,396.6,358.3,802.7,756.7c406.2,396.6,1726.1,1684,2933.1,2860.3C9903.8,1072.6,9900,1068.8,9900,1231.6c0,176.3-17.2,201.2-417.6,592c-206.9,205-411.9,388.9-452.1,410C8932.5,2283.4,8763.9,2294.9,8668.2,2258.5z"/></g></g>
</svg>