<?xml version="1.0" encoding="utf-8"?>
<!-- Svg Vector Icons : http://www.onlinewebfonts.com/icon -->
<!DOCTYPE svg PUBLIC "-//W3C//DTD SVG 1.1//EN" "http://www.w3.org/Graphics/SVG/1.1/DTD/svg11.dtd">
<svg version="1.1" xmlns="http://www.w3.org/2000/svg" xmlns:xlink="http://www.w3.org/1999/xlink" x="0px" y="0px" viewBox="0 0 1000 1000" enable-background="new 0 0 1000 1000" xml:space="preserve">
<metadata> Svg Vector Icons : http://www.onlinewebfonts.com/icon </metadata>
<g><g transform="translate(0.000000,512.000000) scale(0.100000,-0.100000)"><path d="M4530.1,5007.9C3375.4,4889,2341.7,4400,1530.4,3588.6C751.6,2809.9,287.5,1860.5,124.4,723.1c-32.6-226.3-32.6-982,0-1208.3c163-1137.4,629.1-2086.8,1405.9-2865.5c776.8-776.8,1730-1244.8,2865.5-1405.9c226.3-32.6,982-32.6,1208.3,0c939.8,134.3,1779.9,491,2474.2,1053c987.8,797.9,1611.1,1916.1,1797.2,3218.4c32.6,226.3,32.6,982,0,1208.3c-161.1,1135.5-629.1,2088.7-1405.9,2865.5c-759.5,759.5-1687.8,1223.7-2779.2,1392.5C5448.8,5017.5,4775.6,5034.8,4530.1,5007.9z M5364.4,3782.4c464.2-47.9,847.8-161.1,1275.5-374c707.7-352.9,1244.8-880.4,1615-1578.5c406.6-767.2,527.4-1649.5,339.5-2495.3c-74.8-329.9-147.7-537.1-306.9-855.4c-364.4-734.6-913-1283.1-1647.6-1647.6c-318.4-159.2-525.5-232.1-855.4-306.9c-845.8-188-1728.1-67.1-2495.3,339.5c-698.1,370.2-1225.6,907.2-1578.5,1614.9c-212.9,427.7-326.1,811.3-374,1275.5c-103.6,1003.1,228.3,2027.3,909.1,2804.1c504.4,575.4,1260.1,1014.6,2008.1,1164.2C4626,3797.7,5011.5,3818.8,5364.4,3782.4z"/><path d="M4852.3,2541.4c-94-51.8-2246-2115.5-2278.6-2184.6c-36.4-76.7-36.4-166.9-1.9-235.9c40.3-76.7,527.5-540.9,600.3-571.6c82.5-34.5,186-32.6,258.9,5.8c30.7,17.3,257,218.7,502.5,448.8l443,418.1l9.6-1281.2c9.6-1258.2,9.6-1283.1,49.9-1334.9c97.8-130.4,101.7-132.3,563.9-132.3c462.3,0,466.1,1.9,563.9,132.3c40.3,51.8,40.3,76.7,49.9,1327.3l9.6,1273.5l446.9-423.9c247.4-232.1,477.6-435.4,512.1-450.7c82.5-34.5,166.9-34.5,245.5,0c72.9,30.7,560.1,492.9,598.4,569.6c36.5,67.1,36.5,153.5,1.9,234c-28.8,71-2198,2150.1-2297.8,2205.7c-34.5,17.3-97.8,32.6-140,32.6C4948.2,2574,4884.9,2558.7,4852.3,2541.4z"/></g></g>
</svg>