<?xml version="1.0" encoding="utf-8"?>
<!-- Svg Vector Icons : http://www.onlinewebfonts.com/icon -->
<!DOCTYPE svg PUBLIC "-//W3C//DTD SVG 1.1//EN" "http://www.w3.org/Graphics/SVG/1.1/DTD/svg11.dtd">
<svg version="1.1" xmlns="http://www.w3.org/2000/svg" xmlns:xlink="http://www.w3.org/1999/xlink" x="0px" y="0px" viewBox="0 0 1000 1000" enable-background="new 0 0 1000 1000" xml:space="preserve">
<metadata> Svg Vector Icons : http://www.onlinewebfonts.com/icon </metadata>
<g><g transform="translate(0.000000,512.000000) scale(0.100000,-0.100000)"><path d="M4530.1,5007.9C3375.4,4889,2341.7,4400,1530.4,3588.6C751.6,2809.9,287.5,1860.5,124.4,723.1c-32.6-226.3-32.6-982,0-1208.3c163-1137.4,629.1-2086.8,1405.9-2865.5c776.8-776.8,1730-1244.8,2865.5-1405.9c226.3-32.6,982-32.6,1208.3,0c939.8,134.3,1779.9,491,2474.2,1053c987.8,797.9,1611.1,1916.1,1797.2,3218.4c32.6,226.3,32.6,982,0,1208.3c-161.1,1135.5-629.1,2088.7-1405.9,2865.5c-759.5,759.5-1687.8,1223.7-2779.2,1392.5C5448.8,5017.5,4775.6,5034.8,4530.1,5007.9z M5364.4,3782.4c464.2-47.9,847.8-161.1,1275.5-374c707.7-352.9,1244.8-880.4,1615-1578.5c406.6-767.2,527.4-1649.5,339.5-2495.3c-74.8-329.9-147.7-537.1-306.9-855.4c-364.4-734.6-913-1283.1-1647.6-1647.6c-318.4-159.2-525.5-232.1-855.4-306.9c-845.8-188-1728.1-67.1-2495.3,339.5c-698.1,370.2-1225.6,907.2-1578.5,1614.9c-212.9,427.7-326.1,811.3-374,1275.5c-103.6,1003.1,228.3,2027.3,909.1,2804.1c504.4,575.4,1260.1,1014.6,2008.1,1164.2C4626,3797.7,5011.5,3818.8,5364.4,3782.4z"/><path d="M5393.2,2547.2c-69-30.7-2176.9-2232.5-2209.5-2307.4c-32.6-76.7-28.8-197.5,9.6-268.5c49.9-90.2,2113.6-2246,2182.7-2278.6c76.7-36.4,166.9-36.4,235.9-1.9c76.7,40.3,538.9,525.5,569.6,598.4c36.4,86.3,34.5,188-5.8,262.8c-17.3,34.5-285.8,328-598.4,656c-312.6,326.1-634.9,663.6-715.4,748l-147.7,155.4l734.6,769.1c460.3,481.4,744.2,794,757.6,832.4c28.8,82.5,26.8,159.2-5.8,234c-30.7,72.9-492.9,560.1-569.6,598.4C5565.8,2579.8,5469.9,2581.7,5393.2,2547.2z"/></g></g>
</svg>