<?xml version="1.0" encoding="utf-8"?>
<!-- Svg Vector Icons : http://www.onlinewebfonts.com/icon -->
<!DOCTYPE svg PUBLIC "-//W3C//DTD SVG 1.1//EN" "http://www.w3.org/Graphics/SVG/1.1/DTD/svg11.dtd">
<svg version="1.1" xmlns="http://www.w3.org/2000/svg" xmlns:xlink="http://www.w3.org/1999/xlink" x="0px" y="0px" viewBox="0 0 1000 1000" enable-background="new 0 0 1000 1000" xml:space="preserve">
<metadata> Svg Vector Icons : http://www.onlinewebfonts.com/icon </metadata>
<g><g transform="translate(0.000000,512.000000) scale(0.100000,-0.100000)"><path d="M3633.9,4993.2c-193.5-69-390.9-289.3-456-503.9l-23-80.5l-998.2-5.8l-998.2-5.7l-95.8-47.9c-122.6-59.4-237.6-174.4-297-297l-47.9-95.8v-4148v-4148l47.9-95.8c59.4-122.6,174.4-237.6,297-297l95.8-47.9H5000h3841.4l95.8,47.9c122.6,59.4,237.6,174.3,297,297l47.9,95.8v4148v4148l-47.9,95.8c-59.4,122.6-174.3,237.6-297,297l-95.8,47.9l-998.2,5.7l-998.2,5.8l-24.9,80.5c-55.6,189.7-235.7,404.3-406.2,482.8l-101.6,47.9l-1302.8-1.9C3963.5,5018.1,3693.3,5012.3,3633.9,4993.2z M5613.1,3487.3v-306.6H5000h-613.1v306.6v306.5H5000h613.1V3487.3z M3164.5,2793.7c5.7-367.9,7.7-394.7,53.6-484.7c59.4-122.6,174.4-237.6,297-297l95.8-47.9H5000h1389.1l95.8,47.9c122.6,59.4,237.6,174.4,297,297c46,90.1,47.9,116.9,53.6,484.7l5.7,387h613.1h611.2v-3372v-3372H5000H1934.5v3372v3372h611.2h613.1L3164.5,2793.7z"/><path d="M2729.6,1314.6c-128.4-55.6-201.2-203.1-174.4-346.8c17.2-90.1,113-195.4,199.3-220.3c47.9-15.3,768.3-19.2,2287.6-15.3c2203.3,5.7,2216.7,5.7,2268.5,46c101.6,74.7,132.2,136,132.2,256.7c0,120.7-30.6,182-132.2,256.7c-51.7,40.2-63.2,40.2-2287.6,44.1C3193.3,1339.5,2775.6,1335.7,2729.6,1314.6z"/><path d="M2729.6,88.4c-128.4-55.6-201.2-203.1-174.4-346.8c17.2-90,113-195.4,199.3-220.3c47.9-15.3,584.4-19.2,1674.5-15.3c1584.5,5.8,1603.6,5.8,1655.4,46c101.6,74.7,132.2,136,132.2,256.7c0,120.7-30.6,182-132.2,256.7c-51.7,40.2-69,40.2-1674.5,44.1C3089.8,113.3,2775.6,109.5,2729.6,88.4z"/><path d="M2729.6-1137.8c-128.4-55.5-201.2-203.1-174.4-346.8c17.2-90,113-195.4,199.3-220.3c47.9-15.3,768.3-19.2,2287.6-15.3c2203.3,5.7,2216.7,5.7,2268.5,46c101.6,74.7,132.2,136.1,132.2,256.7c0,120.7-30.6,182-132.2,256.7c-51.7,40.2-63.2,40.2-2287.6,44.1C3193.3-1112.9,2775.6-1116.7,2729.6-1137.8z"/><path d="M2729.6-2364c-128.4-55.6-201.2-203.1-174.4-346.8c17.2-90,113-195.4,199.3-220.3c47.9-15.3,584.4-19.2,1674.5-15.3c1584.5,5.8,1603.6,5.8,1655.4,46c101.6,74.7,132.2,136,132.2,256.7c0,120.7-30.6,182-132.2,256.7c-51.7,40.2-69,40.2-1674.5,44.1C3089.8-2339.1,2775.6-2342.9,2729.6-2364z"/></g></g>
</svg>