<?xml version="1.0" encoding="utf-8"?>
<!-- Svg Vector Icons : http://www.onlinewebfonts.com/icon -->
<!DOCTYPE svg PUBLIC "-//W3C//DTD SVG 1.1//EN" "http://www.w3.org/Graphics/SVG/1.1/DTD/svg11.dtd">
<svg version="1.1" xmlns="http://www.w3.org/2000/svg" xmlns:xlink="http://www.w3.org/1999/xlink" x="0px" y="0px" viewBox="0 0 1000 1000" enable-background="new 0 0 1000 1000" xml:space="preserve">
<metadata> Svg Vector Icons : http://www.onlinewebfonts.com/icon </metadata>
<g><g transform="translate(0.000000,512.000000) scale(0.100000,-0.100000)"><path d="M3633.9,4993.2c-193.5-69-390.9-289.3-456-503.9l-23-80.5l-998.2-5.8l-998.2-5.7l-95.8-47.9c-122.6-59.4-237.6-174.4-297-297l-47.9-95.8v-4148v-4148l47.9-95.8c59.4-122.6,174.4-237.6,297-297l95.8-47.9H5000h3841.4l95.8,47.9c122.6,59.4,237.6,174.3,297,297l47.9,95.8v4148v4148l-47.9,95.8c-59.4,122.6-174.3,237.6-297,297l-95.8,47.9l-998.2,5.7l-998.2,5.8l-24.9,80.5c-55.6,189.7-235.7,404.3-406.2,482.8l-101.6,47.9l-1302.8-1.9C3963.5,5018.1,3693.3,5012.3,3633.9,4993.2z M3166.4,3094.5c26.8-191.6,164.8-379.4,348.7-469.4l95.8-47.9H5000h1389.1l95.8,47.9c183.9,90.1,321.9,277.8,348.7,469.4l11.5,86.2h609.3h611.2v-3372v-3372H5000H1934.5v3372v3372h611.2H3155L3166.4,3094.5z"/></g></g>
</svg>