<?xml version="1.0" encoding="utf-8"?>
<!-- Svg Vector Icons : http://www.onlinewebfonts.com/icon -->
<!DOCTYPE svg PUBLIC "-//W3C//DTD SVG 1.1//EN" "http://www.w3.org/Graphics/SVG/1.1/DTD/svg11.dtd">
<svg version="1.1" xmlns="http://www.w3.org/2000/svg" xmlns:xlink="http://www.w3.org/1999/xlink" x="0px" y="0px" viewBox="0 0 1000 1000" enable-background="new 0 0 1000 1000" xml:space="preserve">
<metadata> Svg Vector Icons : http://www.onlinewebfonts.com/icon </metadata>
<g><g transform="translate(0.000000,512.000000) scale(0.100000,-0.100000)"><path d="M560.3,5010.4c-172.6-42.2-329.9-172.6-412.3-337.5L100,4577V118.1v-4458.9l47.9-95.9c59.5-122.7,174.5-237.8,297.3-297.2l95.9-47.9H5000h4458.9l95.9,47.9c122.7,59.4,237.8,174.5,297.3,297.2l47.9,95.9V118.1V4577l-47.9,95.9c-59.4,122.7-174.5,237.8-297.3,297.3l-95.9,47.9l-4420.5,3.8C2606.6,5021.9,592.9,5018.1,560.3,5010.4z M2545.2,3186.6v-613.7h-613.7h-613.7v613.7v613.7h613.7h613.7V3186.6z M8682.2,3186.6v-613.7H6227.4H3772.6v613.7v613.7h2454.8h2454.8V3186.6z M8682.2-1109.3v-2454.8H5000H1317.8v2454.8v2454.8H5000h3682.2V-1109.3z"/><path d="M3782.2,704.9c-30.7-15.3-180.3-149.6-329.9-301.1c-421.9-429.6-427.7-406.6,211-1047.1l462.2-466l-462.2-464.1c-642.5-646.3-636.7-617.5-191.8-1064.4c260.8-258.9,299.2-291.5,372.1-303c157.3-24.9,191.8-1.9,692.3,496.7l464.1,460.3l456.4-452.6c249.3-249.3,481.4-466,515.9-483.3c74.8-38.4,159.2-38.4,241.6-3.8c34.5,13.4,184.1,149.6,333.7,301.1c421.9,429.6,427.7,406.6-211,1047.1l-462.2,466l462.2,464.1c638.6,642.5,632.9,619.5,211,1049c-149.6,151.5-299.2,287.7-333.7,301.1c-82.5,34.5-166.9,34.5-241.6-3.8c-34.5-17.3-266.6-234-515.9-483.3L5000-236.7l-454.5,454.5c-295.3,293.4-481.4,464.1-527.4,483.3C3931.8,737.5,3858.9,739.4,3782.2,704.9z"/></g></g>
</svg>