<?xml version="1.0" encoding="utf-8"?>
<!-- Svg Vector Icons : http://www.onlinewebfonts.com/icon -->
<!DOCTYPE svg PUBLIC "-//W3C//DTD SVG 1.1//EN" "http://www.w3.org/Graphics/SVG/1.1/DTD/svg11.dtd">
<svg version="1.1" xmlns="http://www.w3.org/2000/svg" xmlns:xlink="http://www.w3.org/1999/xlink" x="0px" y="0px" viewBox="0 0 1000 1000" enable-background="new 0 0 1000 1000" xml:space="preserve">
<metadata> Svg Vector Icons : http://www.onlinewebfonts.com/icon </metadata>
<g><g transform="translate(0.000000,512.000000) scale(0.100000,-0.100000)"><path d="M565.2,5004.6c-90.1-23-254.9-118.8-306.6-180.1c-26.8-32.6-70.9-101.6-99.6-155.2l-51.7-97.7l-5.7-4417.3c-3.8-4007.2-1.9-4426.9,26.8-4515c46-147.6,149.5-272.1,295.1-350.7l124.6-69h4455.6h4455.6l120.7,65.2c134.2,72.8,191.6,132.2,268.3,277.9l51.7,97.7V115.9v4455.6l-69,124.6c-78.6,143.7-201.2,247.2-346.9,295.1c-88.1,28.7-494.4,30.7-4478.6,28.7C2596.6,5018,597.8,5012.3,565.2,5004.6z M2408.8,4358.8c130.3-97.7,132.2-101.6,132.2-563.4c0-461.9-1.9-465.7-132.2-563.4c-49.8-38.3-78.6-40.2-471.4-40.2c-392.9,0-421.6,1.9-471.4,40.2c-128.4,93.9-132.2,109.2-138,511.7c-7.7,423.5-1.9,469.5,67.1,551.9c90.1,105.4,128.4,113.1,565.3,107.3C2326.4,4399,2360.9,4395.2,2408.8,4358.8z M8683.1-497.3v-3066.2H5003.6H1324.1v3066.2v3066.2h3679.5h3679.5V-497.3z"/><path d="M3805.9,1321.3c-36.4-9.6-161-120.7-339.2-299c-433.1-438.9-438.9-412,201.2-1055.9l463.8-463.8l-454.2-456.1c-249.1-249.1-465.7-481-482.9-515.5c-38.3-74.7-38.3-159.1-3.8-241.5c13.4-34.5,149.5-184,300.9-331.5c245.3-241.5,285.5-274,356.4-285.5c157.1-24.9,189.7-1.9,691.8,496.4l463.8,459.9l456.1-452.3c249.1-249.1,481-465.7,515.5-482.9c74.7-38.3,159.1-38.3,241.4-3.8c34.5,13.4,184,149.5,333.5,300.9c421.6,429.3,427.4,406.3-210.8,1046.3l-461.9,465.7l461.9,463.8c642,647.7,636.3,617.1,191.6,1063.6c-243.4,241.5-302.8,293.2-362.2,302.8c-168.6,30.7-180.1,24.9-691.8-484.8l-473.3-471.4l-456.1,452.3C4028.2,1348.1,3987.9,1375,3805.9,1321.3z"/></g></g>
</svg>