<?xml version="1.0" encoding="utf-8"?>
<!-- Svg Vector Icons : http://www.onlinewebfonts.com/icon -->
<!DOCTYPE svg PUBLIC "-//W3C//DTD SVG 1.1//EN" "http://www.w3.org/Graphics/SVG/1.1/DTD/svg11.dtd">
<svg version="1.1" xmlns="http://www.w3.org/2000/svg" xmlns:xlink="http://www.w3.org/1999/xlink" x="0px" y="0px" viewBox="0 0 1000 1000" enable-background="new 0 0 1000 1000" xml:space="preserve">
<metadata> Svg Vector Icons : http://www.onlinewebfonts.com/icon </metadata>
<g><g transform="translate(0.000000,368.000000) scale(0.100000,-0.100000)"><path d="M4891.6,2006.6c-228.1-24.9-573.1-105.4-783.9-182.1C3043.9,1439.3,2359.6,613.2,2288.7-372l-11.5-168.7h-109.3c-61.3,0-185.9-13.4-279.8-28.8C613.5-791.8-185.8-2035.7,195.6-3204.9c197.4-609.5,713-1119.4,1347.5-1332.1c360.4-120.8,116.9-113.1,3369.6-118.8c3258.4-7.7,3156.9-9.6,3524.8,107.3c711.1,230,1232.5,774.4,1418.4,1489.3c38.3,145.7,44.1,214.7,44.1,467.7c-1.9,254.9-9.6,323.9-51.8,483c-107.3,402.5-291.3,720.7-586.5,1012c-260.7,258.8-527.1,423.6-835.7,519.4L8288-533l-11.5,172.5c-28.8,425.5-153.3,791.6-391,1148.1c-414,624.9-1121.3,1044.6-2008.7,1194.1C5664,2016.2,5108.2,2031.6,4891.6,2006.6z M5685.1,963.9C6379,850.9,6886.9,505.9,7088.2,9.4c88.2-214.7,101.6-331.6,101.6-866.4c0-548.2,7.7-586.5,120.7-668.9c47.9-34.5,92-42.2,345-51.8c249.2-9.6,310.5-19.2,419.8-61.3c490.7-189.8,808.9-653.6,743.7-1086.8c-55.6-362.3-350.8-701.5-739.8-849.1L7966-3617l-2911.5-5.7c-3214.4-5.8-3005.4-11.5-3268,116.9c-153.3,72.8-408.3,320.1-486.8,465.8c-189.8,360.3-122.7,801.2,170.6,1119.4c113.1,120.8,256.8,212.8,444.7,283.7c124.6,47.9,145.7,49.8,707.3,59.4c799.3,15.4,753.3-26.8,753.3,716.9c0,557.8,17.2,676.6,126.5,908.5C3695.6,456,4107.7,762.7,4661.6,916c80.5,21.1,195.5,46,258.8,55.6C5104.4,998.4,5499.2,994.6,5685.1,963.9z"/></g></g>
</svg>