<?xml version="1.0" encoding="utf-8"?>
<!-- Svg Vector Icons : http://www.onlinewebfonts.com/icon -->
<!DOCTYPE svg PUBLIC "-//W3C//DTD SVG 1.1//EN" "http://www.w3.org/Graphics/SVG/1.1/DTD/svg11.dtd">
<svg version="1.1" xmlns="http://www.w3.org/2000/svg" xmlns:xlink="http://www.w3.org/1999/xlink" x="0px" y="0px" viewBox="0 0 1000 1000" enable-background="new 0 0 1000 1000" xml:space="preserve">
<metadata> Svg Vector Icons : http://www.onlinewebfonts.com/icon </metadata>
<g><g transform="translate(0.000000,369.000000) scale(0.100000,-0.100000)"><path d="M4833.8,2285.5c-700.4-102-1304.6-394.3-1775.4-865.1c-476.7-474.8-735.7-1037.8-784.7-1700.9l-13.7-192.3h-111.8c-494.4,0-1116.3-300.2-1485.1-718C427.6-1457.6,243.2-1797,153-2134.4c-49-176.6-53-223.7-53-565c0-343.3,3.9-388.4,53-568.9c66.7-247.2,231.5-586.6,386.5-790.6c296.2-394.3,710.2-667,1214.4-804.3c186.4-51,196.2-51,1055.5-58.9c967.2-7.9,965.2-7.9,1045.6,125.5c39.2,60.8,41.2,88.3,35.3,447.3c-5.9,376.7-5.9,382.5-54.9,433.6c-102,107.9-94.2,107.9-926,107.9c-845.5,0-875,3.9-1114.3,119.7c-86.3,43.2-176.6,111.8-276.6,211.9c-231.5,231.5-339.4,478.7-339.4,786.7c0,478.7,319.8,916.2,771,1061.3c113.8,37.3,194.2,43.2,690.6,54.9c525.8,11.8,565,13.7,606.2,51c88.3,80.4,92.2,109.9,104,716.1c11.8,631.7,25.5,741.6,127.5,965.2c362.9,798.4,1377.2,1210.4,2377.7,963.2c329.6-80.4,619.9-235.4,849.5-455.1c186.4-176.6,304.1-362.9,390.4-610.1l62.8-186.4l11.8-627.8c9.8-672.9,9.8-670.9,119.7-763.1c54.9-47.1,74.6-51,249.1-51c280.5,0,421.8-27.5,612.1-121.6c311.9-153,580.7-490.4,647.4-814.1c111.8-529.7-280.5-1126.1-835.7-1271.3c-92.2-23.5-257-29.4-886.8-29.4c-833.8,0-824,0-926-107.9c-49-51-49-56.9-54.9-433.6c-5.9-359-3.9-386.5,35.3-447.3c80.4-133.4,78.5-133.4,1045.6-123.6c933.8,9.8,959.3,11.8,1269.3,123.6c741.5,264.8,1285,916.2,1422.3,1702.8c153,882.8-251.1,1853.9-973,2340.5c-178.6,121.6-280.5,172.6-468.9,241.3l-147.1,54.9L8265-255c-43.1,645.4-298.2,1222.2-737.6,1671.5c-437.5,447.3-982.9,723.9-1675.4,849.5C5618.6,2307.1,5067.3,2318.9,4833.8,2285.5z"/><path d="M4578.8-1067.2c-125.6-84.4-135.4-127.5-135.4-625.8v-447.3h-445.3c-408.1,0-453.2-3.9-510.1-39.2c-119.7-72.6-133.4-125.6-133.4-523.8c0-329.6,3.9-361,41.2-410c98.1-133.4,104-135.4,598.4-141.2l449.2-5.9v-441.4c0-402.2,3.9-447.3,39.2-517.9c68.7-133.4,117.7-147.1,510.1-147.1c543.4,0,547.3,5.9,549.3,670.9v435.5l449.2,5.9c494.4,5.9,500.3,7.8,598.4,141.2c37.2,49,41.2,80.4,41.2,410c0,398.2-13.8,451.2-133.4,523.8c-56.9,35.3-102,39.2-508.1,39.2h-447.3v447.3c0,498.3-9.8,541.5-135.4,625.8c-62.8,43.1-86.3,45.1-413.9,45.1C4665.1-1022.1,4641.6-1024,4578.8-1067.2z"/></g></g>
</svg>