<?xml version="1.0" encoding="utf-8"?>
<!-- Svg Vector Icons : http://www.onlinewebfonts.com/icon -->
<!DOCTYPE svg PUBLIC "-//W3C//DTD SVG 1.1//EN" "http://www.w3.org/Graphics/SVG/1.1/DTD/svg11.dtd">
<svg version="1.1" xmlns="http://www.w3.org/2000/svg" xmlns:xlink="http://www.w3.org/1999/xlink" x="0px" y="0px" viewBox="0 0 1000 1000" enable-background="new 0 0 1000 1000" xml:space="preserve">
<metadata> Svg Vector Icons : http://www.onlinewebfonts.com/icon </metadata>
<g><g transform="translate(0.000000,369.000000) scale(0.100000,-0.100000)"><path d="M4833.8,2285c-700.4-102-1304.6-394.3-1775.4-865.1C2581.7,945.1,2322.7,382.1,2273.7-281l-13.7-192.3h-111.8c-341.4,0-818.1-168.7-1137.8-402.2c-174.6-127.5-425.7-386.5-537.5-555.2c-131.4-198.2-260.9-482.6-319.8-704.3c-49-176.6-53-223.7-53-565c0-343.3,3.9-388.4,53-568.9c66.7-247.2,231.5-586.6,386.5-790.6c296.2-394.3,710.2-667,1214.4-804.3c186.4-51,194.2-51,1061.3-56.9c978.9-7.9,967.2-9.8,1049.6,131.4c35.3,62.8,39.2,102,39.2,421.8c0,398.2-15.7,451.2-147.1,521.8c-62.8,35.3-125.6,37.3-843.6,37.3c-849.5,0-878.9,3.9-1118.2,119.6c-166.8,82.4-404.1,315.9-486.5,480.6c-92.2,184.4-129.5,329.6-127.5,519.9c3.9,478.7,298.2,890.7,753.3,1051.5c141.2,51,162.8,52.9,700.4,60.8l555.2,7.9l60.8,51c107.9,92.2,113.8,127.5,113.8,723.9c0,582.6,17.7,723.9,117.7,955.4c260.9,608.2,996.6,1031.9,1793.1,1031.9c788.7,0,1473.3-372.7,1749.9-951.5C7158.6-33.8,7174.3-141.7,7184.1-797c11.8-645.4,15.7-667,129.5-735.7c49-31.4,98.1-39.2,239.4-39.2c266.8,0,410-29.4,598.3-121.6c311.9-153,580.7-490.5,647.4-814.2c111.8-529.7-280.5-1126.1-835.7-1271.3c-92.2-23.5-257-29.4-880.9-29.4c-853.4,0-855.3,0-945.6-135.4c-43.1-62.8-45.1-84.4-45.1-421.8c0-396.3,11.8-441.4,141.2-521.8c62.8-39.2,88.3-41.2,937.8-33.4c939.7,7.9,965.2,11.8,1275.2,123.6c741.5,264.8,1285,916.2,1422.3,1702.9c153,882.8-251.1,1853.9-973,2340.4c-178.6,121.6-280.5,172.6-468.9,241.3l-147.1,54.9L8265-255.5c-43.1,645.4-298.2,1222.2-737.6,1671.5c-437.5,447.3-982.9,723.9-1675.4,849.5C5618.6,2306.6,5067.3,2318.4,4833.8,2285z"/><path d="M4867.2-516.4c-25.5-25.5-290.4-362.9-584.6-751.4c-296.2-388.4-621.9-820-727.8-957.4c-208-272.7-233.5-343.3-151.1-425.7c37.3-37.3,64.7-39.2,539.5-39.2h498.3l5.9-743.5c5.9-716.1,7.8-747.4,47.1-798.5c96.1-129.5,113.8-135.4,494.4-135.4c313.9,0,353.1,3.9,415.9,39.2c135.4,80.4,137.3,90.2,137.3,908.3v729.8h500.3h502.2l47.1,49c52.9,51,58.8,80.4,29.4,155c-23.6,64.7-1392.9,1865.7-1483.1,1950C5055.5-457.6,4943.7-449.7,4867.2-516.4z"/></g></g>
</svg>