<?xml version="1.0" encoding="utf-8"?>
<!-- Svg Vector Icons : http://www.onlinewebfonts.com/icon -->
<!DOCTYPE svg PUBLIC "-//W3C//DTD SVG 1.1//EN" "http://www.w3.org/Graphics/SVG/1.1/DTD/svg11.dtd">
<svg version="1.1" xmlns="http://www.w3.org/2000/svg" xmlns:xlink="http://www.w3.org/1999/xlink" x="0px" y="0px" viewBox="0 0 1000 1000" enable-background="new 0 0 1000 1000" xml:space="preserve">
<metadata> Svg Vector Icons : http://www.onlinewebfonts.com/icon </metadata>
<g><g transform="translate(0.000000,384.000000) scale(0.100000,-0.100000)"><path d="M5825.1,2496.4c-1242.6-140-2322.3-885.9-2876.5-1992.4c-55.6-111.2-120.8-253.1-143.8-316.4l-44.1-115.1L2496.1,61C1805.7,28.5,1288-194,818.2-663.8c-360.5-360.5-573.4-751.7-680.8-1248.4c-49.9-228.2-49.9-730.6,0-958.8c107.4-496.7,320.2-885.9,680.8-1248.4c354.8-354.8,751.7-571.4,1248.4-680.8c153.4-34.5,285.7-36.4,2358.7-36.4c2019.3,0,2211,1.9,2377.9,34.5c435.3,80.5,688.4,164.9,1064.3,350.9c734.5,364.3,1282.9,912.8,1647.2,1647.2c187.9,375.9,272.3,636.7,350.9,1064.3c46,255,46,895.5,0,1150.6c-187.9,1031.7-696.1,1842.8-1530.3,2439.2c-224.4,161.1-690.3,395-956.9,483.2C6897,2490.7,6314.1,2552,5825.1,2496.4z M6745.5,1234.6c477.5-109.3,861-322.2,1210-671.2C8342.9,178,8575-278.4,8651.6-805.7c117-776.6-134.2-1524.5-696.1-2086.4c-385.4-387.4-843.7-619.4-1365.3-696.1c-295.3-44.1-4098-46-4301.2-1.9c-556.1,117-970.3,629-970.3,1198.5c0,757.5,703.8,1344.2,1445.9,1206.2c61.4-11.5,241.6-71,402.7-134.2c331.7-132.3,398.9-138.1,494.7-40.3c51.8,51.8,61.4,82.5,113.1,389.3c72.9,433.4,130.4,630.9,255,891.7C4396.4,670.9,5104,1169.4,5959.3,1278.7C6110.8,1297.9,6586.4,1271.1,6745.5,1234.6z"/></g></g>
</svg>