<?xml version="1.0" encoding="utf-8"?>
<!-- Svg Vector Icons : http://www.onlinewebfonts.com/icon -->
<!DOCTYPE svg PUBLIC "-//W3C//DTD SVG 1.1//EN" "http://www.w3.org/Graphics/SVG/1.1/DTD/svg11.dtd">
<svg version="1.1" xmlns="http://www.w3.org/2000/svg" xmlns:xlink="http://www.w3.org/1999/xlink" x="0px" y="0px" viewBox="0 0 1000 1000" enable-background="new 0 0 1000 1000" xml:space="preserve">
<metadata> Svg Vector Icons : http://www.onlinewebfonts.com/icon </metadata>
<g><g transform="translate(0.000000,512.000000) scale(0.100000,-0.100000)"><path d="M4194.5,4996.4c-193.7-71-329.9-211-393.2-404.7c-26.8-80.5-30.7-166.8-24.9-525.5c5.8-412.3,7.7-433.4,53.7-525.5c59.5-122.7,174.5-237.8,297.3-297.3c138.1-67.1,379.7-67.1,517.8,0c122.7,59.5,237.8,174.5,297.3,297.3c47.9,94,47.9,103.6,47.9,565.8s0,471.8-47.9,565.8c-61.4,122.7-176.4,237.8-297.3,295.3C4520.5,5027.1,4315.3,5040.5,4194.5,4996.4z"/><path d="M6035.6,4996.4c-193.7-71-329.9-211-393.2-404.7c-26.9-80.5-30.7-166.8-24.9-525.5c5.7-412.3,7.7-433.4,53.7-525.5c59.5-122.7,174.5-237.8,297.3-297.3c138.1-67.1,379.7-67.1,517.8,0c122.7,59.5,237.8,174.5,297.3,297.3c47.9,94,47.9,103.6,47.9,565.8s0,471.8-47.9,565.8c-61.4,122.7-176.4,237.8-297.3,295.3C6361.6,5027.1,6156.4,5040.5,6035.6,4996.4z"/><path d="M7876.7,4996.4c-193.7-71-329.9-211-393.1-404.7c-26.9-80.5-30.7-166.8-24.9-525.5c5.8-412.3,7.7-433.4,53.7-525.5c59.5-122.7,174.5-237.8,297.3-297.3c138.1-67.1,379.7-67.1,517.8,0c122.8,59.5,237.8,174.5,297.3,297.3c47.9,94,47.9,103.6,47.9,565.8s0,471.8-47.9,565.8c-61.4,122.7-176.4,237.8-297.3,295.3C8202.7,5027.1,7997.5,5040.5,7876.7,4996.4z"/><path d="M2967.1,2539.7c-187.9-65.2-326-205.2-391.2-395.1c-23-71-30.7-168.8-30.7-444.9v-354.8h-372.1c-402.7,0-598.4-24.9-826.6-101.6c-475.6-163-840-485.2-1064.4-939.7C101.9-64.7,100-64.7,100-1100.3c0-991.5,0-995.3,126.6-1311.8c170.7-429.6,552.3-820.8,978.1-1001.1c289.6-122.8,381.6-138.1,939.7-147.7l512.1-7.7l51.8-120.8c118.9-280,387.4-606,638.6-774.8c172.6-115.1,408.5-224.4,598.4-274.3l163-44.1h2119.2c1961.9,0,2128.8,1.9,2251.5,34.5c354.8,90.1,631,247.4,886,500.6c253.2,255.1,410.4,531.2,500.6,886c32.6,122.8,34.5,316.4,34.5,2807.7v2675.3l-47.9,95.9c-59.4,122.7-174.5,237.8-297.3,297.3l-95.9,47.9l-3202.7,3.8C3381.4,2570.4,3043.8,2568.5,2967.1,2539.7z M8678.3-883.6l-5.8-2230.4l-51.8-97.8c-76.7-145.8-134.2-205.2-268.5-278.1l-120.8-65.2H6227.4H4223.3l-95.9,47.9c-122.7,59.4-237.8,174.5-297.3,297.3l-47.9,95.9l-5.8,2230.4l-3.8,2228.5h2454.8h2454.8L8678.3-883.6z M2545.2-1111.8v-1227.4l-387.4,5.8l-389.3,5.8l-124.7,69c-143.8,78.6-247.4,201.4-295.3,347.1c-44.1,138.1-46,1434.5-1.9,1584.1c53.7,178.4,214.8,345.2,397,408.5c84.4,28.8,163,34.5,452.6,36.4h349V-1111.8z"/></g></g>
</svg>