<?xml version="1.0" encoding="utf-8"?>
<!-- Svg Vector Icons : http://www.onlinewebfonts.com/icon -->
<!DOCTYPE svg PUBLIC "-//W3C//DTD SVG 1.1//EN" "http://www.w3.org/Graphics/SVG/1.1/DTD/svg11.dtd">
<svg version="1.1" xmlns="http://www.w3.org/2000/svg" xmlns:xlink="http://www.w3.org/1999/xlink" x="0px" y="0px" viewBox="0 0 1000 1000" enable-background="new 0 0 1000 1000" xml:space="preserve">
<metadata> Svg Vector Icons : http://www.onlinewebfonts.com/icon </metadata>
<g><g transform="translate(0.000000,512.000000) scale(0.100000,-0.100000)"><path d="M519.2,4990.8c-189.7-67.1-329.6-208.9-390.9-400.5c-28.7-84.3-30.7-425.4-26.8-3591.3l5.7-3497.4l47.9-95.8c59.4-122.7,174.4-237.6,297-297l95.8-47.9l1178.6-5.7l1178.6-5.8l872-868.1C4764.1-4802,4733.4-4779,5003.6-4779c270.2,0,239.6-23,1226.5,960.1l872,868.1l1178.6,5.8l1178.6,5.7l95.8,47.9c122.7,59.4,237.6,174.4,297,297l47.9,95.8v3535.8V4573l-47.9,95.8c-59.4,122.6-174.4,237.6-297,297l-95.8,47.9l-4426.9,3.8C1044.3,5021.4,597.8,5019.5,519.2,4990.8z M8683.1,1037.2v-2757.7l-1000.4-5.8l-1002.3-5.7l-95.8-46c-72.8-36.4-270.2-220.4-837.5-785.7l-743.6-737.8L4262-2563.7c-569.2,565.3-766.6,749.3-839.4,785.7l-95.8,46l-1000.4,5.7l-1002.3,5.8v2757.7v2759.6h3679.5h3679.5V1037.2z"/></g></g>
</svg>