<?xml version="1.0" encoding="utf-8"?>
<!-- Svg Vector Icons : http://www.onlinewebfonts.com/icon -->
<!DOCTYPE svg PUBLIC "-//W3C//DTD SVG 1.1//EN" "http://www.w3.org/Graphics/SVG/1.1/DTD/svg11.dtd">
<svg version="1.1" xmlns="http://www.w3.org/2000/svg" xmlns:xlink="http://www.w3.org/1999/xlink" x="0px" y="0px" viewBox="0 0 1000 1000" enable-background="new 0 0 1000 1000" xml:space="preserve">
<metadata> Svg Vector Icons : http://www.onlinewebfonts.com/icon </metadata>
<g><g transform="translate(0.000000,512.000000) scale(0.100000,-0.100000)"><path d="M1610.2,4990.2c-367.6-65.1-691.1-237.4-966.8-513.1c-515-516.9-677.7-1244.4-428.8-1931.6c174.2-480.5,605-911.3,1085.5-1085.5c250.8-90,438.4-114.9,869.1-114.9h381V120v-1225.2h-381c-430.7,0-618.4-24.9-869.1-114.9C819.5-1394.3,388.8-1825,214.6-2305.5c-248.9-687.3-86.1-1414.7,428.8-1931.6c516.9-515,1244.4-677.7,1931.6-428.8c480.5,174.2,911.3,604.9,1085.5,1085.5c90,250.8,114.9,438.4,114.9,869.1v381h1225.2h1225.2v-381c0-430.7,24.9-618.3,114.9-869.1c174.2-480.5,604.9-911.3,1085.5-1085.5c536-193.3,1116.1-135.9,1596.6,157c212.5,130.2,476.7,394.4,606.9,606.9c298.7,488.2,352.3,1098.9,145.5,1627.2c-183.8,463.3-580.1,859.6-1043.3,1043.3c-250.8,97.6-342.7,111-825.1,120.6l-455.6,9.6V121.9v1223.3h381c430.7,0,618.3,24.9,869.1,114.9c480.5,174.2,911.3,605,1085.5,1085.5c151.3,419.2,151.3,855.7,0,1275c-174.2,480.5-604.9,911.3-1085.5,1085.5c-687.3,248.9-1414.7,86.2-1931.6-428.8c-201-201-340.8-417.3-428.8-656.6c-90-250.8-114.9-438.4-114.9-869.1v-381H5000.6H3775.3v381c0,430.7-24.9,618.4-114.9,869.1c-174.2,480.5-605,911.3-1085.5,1085.5C2266.8,5017,1920.3,5047.7,1610.2,4990.2z M2408.5,3745.9c28.7-21.1,70.8-63.2,91.9-91.9c38.3-49.8,40.2-82.3,45.9-568.6l5.7-516.9l-516.9,5.8c-486.3,5.7-518.8,7.7-568.6,45.9c-128.3,93.8-132.1,109.1-137.8,511.1c-7.7,423.1-1.9,469,67,551.3c90,105.3,128.3,112.9,564.7,107.2C2326.1,3786.1,2360.6,3782.3,2408.5,3745.9z M8498.2,3765c36.4-17.2,88.1-63.2,116.8-99.5l51.7-67v-417.3c0-457.5-1.9-463.3-132.1-560.9c-49.8-38.3-82.3-40.2-568.6-45.9l-515-5.8v488.2c0,505.4,7.7,559,82.3,641.3c80.4,86.2,132.1,95.7,526.5,97.6C8366.1,3795.7,8442.7,3789.9,8498.2,3765z M6225.8,120v-1225.2H5000.6H3775.3V120v1225.2h1225.2h1225.2V120z M2546.3-2845.4c-5.7-486.2-7.7-518.8-45.9-568.6c-97.6-130.2-101.5-132.1-562.8-132.1c-392.5,0-421.2,1.9-470.9,40.2c-128.3,93.8-132.1,109.1-137.8,511.2c-7.7,423.1-1.9,469,67,551.4c90,105.3,120.6,111,662.4,112.9H2552L2546.3-2845.4z M8534.5-2380.2c128.3-95.7,132.1-107.2,137.8-534.1c7.7-442.2-1.9-486.3-122.5-576.2l-70.8-55.5h-417.3c-457.5,0-463.3,1.9-560.9,132.1c-38.3,49.8-40.2,82.3-45.9,568.6l-5.7,516.9l516.9-5.8C8452.2-2340,8484.8-2341.9,8534.5-2380.2z"/></g></g>
</svg>