<?xml version="1.0" encoding="utf-8"?>
<!-- Svg Vector Icons : http://www.onlinewebfonts.com/icon -->
<!DOCTYPE svg PUBLIC "-//W3C//DTD SVG 1.1//EN" "http://www.w3.org/Graphics/SVG/1.1/DTD/svg11.dtd">
<svg version="1.1" xmlns="http://www.w3.org/2000/svg" xmlns:xlink="http://www.w3.org/1999/xlink" x="0px" y="0px" viewBox="0 0 1000 1000" enable-background="new 0 0 1000 1000" xml:space="preserve">
<metadata> Svg Vector Icons : http://www.onlinewebfonts.com/icon </metadata>
<g><g transform="translate(0.000000,512.000000) scale(0.100000,-0.100000)"><path d="M4622.6,5013.9c-632.5-53.7-1215.1-214.6-1782.4-492.5c-500.2-245.3-856.7-498.3-1263-891.2c-417.8-408.2-722.6-828-981.3-1353.1c-241.5-494.5-389.1-979.4-471.5-1552.4c-32.6-226.2-32.6-981.3,0-1207.4c136.1-948.7,504.1-1803.5,1082.9-2506.9c1353.1-1642.5,3595.5-2229,5571.5-1458.5C8043.7-3953.7,9071-2924.5,9569.3-1651.9C9772.5-1128.7,9876-626.6,9897-42c46,1326.3-446.6,2604.6-1374.2,3562.9C7687.2,4383.4,6619.7,4897,5427.6,5008.2C5232.1,5025.4,4800.9,5029.3,4622.6,5013.9z M4386.9,3256.4c5.7-536.6,5.7-534.7,138-632.5c49.8-38.3,78.6-40.2,471.5-40.2c392.9,0,421.7,1.9,471.5,40.2c132.2,97.7,132.2,95.8,138,632.5l5.8,488.7l61.3-11.5C6679.1,3534.3,7532,2961.3,8082,2112.2c251.1-387.1,448.5-881.6,525.1-1305.2l13.4-70.9l-488.7-5.8c-536.6-5.7-534.7-5.7-632.5-138c-38.3-49.8-40.2-78.6-40.2-471.5c0-392.9,1.9-421.6,40.2-471.5c97.8-132.2,95.8-132.2,632.5-138l488.7-5.8l-13.4-70.9c-90.1-506-345-1079-678.5-1523.7c-536.6-713-1395.3-1249.6-2246.2-1401l-70.9-13.4l-5.8,488.7c-5.7,536.6-5.7,534.7-138,632.5c-49.8,38.3-78.6,40.3-471.5,40.3c-392.9,0-421.6-1.9-471.5-40.3c-132.3-97.7-132.3-95.8-138-632.5l-5.7-488.7l-70.9,13.4C3626-3367.2,2913-2989.7,2399.4-2476c-515.5,517.5-891.2,1222.8-1013.9,1910.8l-13.4,70.9l488.7,5.8c536.6,5.7,534.7,5.7,632.5,138c38.3,49.8,40.2,78.6,40.2,471.5c0,392.9-1.9,421.6-40.2,471.5c-97.8,132.2-95.8,132.2-632.5,138l-488.7,5.8l11.5,61.3c201.2,1010,760.9,1843.7,1619.5,2409.1c331.6,218.5,783.9,410.1,1174.9,498.3c86.2,19.2,166.7,36.4,180.2,36.4C4375.4,3743.2,4383.1,3620.6,4386.9,3256.4z"/><path d="M6462.5,1930.2C5235.9,1740.4,4143.5,922,3539.8-262.4c-193.6-379.5-337.3-877.8-375.6-1287.9c-15.3-184-17.3-182.1,243.4-151.4C4678.2-1546.5,5868.4-680.2,6479.8,538.7c185.9,369.9,356.5,1021.5,356.5,1358.9v63.2l-99.7-1.9C6681,1957,6558.4,1945.5,6462.5,1930.2z"/></g></g>
</svg>