<?xml version="1.0" encoding="utf-8"?>
<!-- Svg Vector Icons : http://www.onlinewebfonts.com/icon -->
<!DOCTYPE svg PUBLIC "-//W3C//DTD SVG 1.1//EN" "http://www.w3.org/Graphics/SVG/1.1/DTD/svg11.dtd">
<svg version="1.1" xmlns="http://www.w3.org/2000/svg" xmlns:xlink="http://www.w3.org/1999/xlink" x="0px" y="0px" viewBox="0 0 1000 1000" enable-background="new 0 0 1000 1000" xml:space="preserve">
<metadata> Svg Vector Icons : http://www.onlinewebfonts.com/icon </metadata>
<g><g transform="translate(0.000000,512.000000) scale(0.100000,-0.100000)"><path d="M519,4985.2c-189.6-65.1-329.4-208.7-390.7-400.2c-28.7-84.3-30.6-501.7-26.8-4508l5.7-4414.2l47.9-95.8c59.4-122.6,174.3-237.5,296.8-296.8l95.8-47.9h4452.5h4452.5l95.8,47.9c122.6,59.4,237.5,174.3,296.8,296.8l47.9,95.8l5.7,3322.6c3.8,2445.5-1.9,3336-17.2,3376.2c-17.2,40.2-34.5,51.7-80.4,51.7c-51.7,0-118.7-59.4-513.2-453.9c-425.1-427.1-459.6-465.4-528.6-609l-72.8-153.2l-5.7-2378.5l-3.8-2380.4H5000.2H1323.3V115.2v3676.9h2332.5c2489.6,0,2414.9-1.9,2608.3,93.8c57.5,28.7,249,204.9,561.1,515.1c505.6,503.7,534.3,543.9,425.1,593.7c-36.4,17.2-884.8,23-3347.5,23C955.6,5015.8,595.6,5012,519,4985.2z"/><path d="M8763.2,4992.8c-158.9-53.6-224.1-109.2-766-647.3L7441.8,3794l612.8-614.7l612.8-612.8l568.8,568.8c649.2,649.2,655,658.8,656.9,915.4c0,227.9-44,306.4-360,616.7c-180,180-281.5,266.2-348.5,294.9C9069.6,5013.9,8870.5,5027.3,8763.2,4992.8z"/><path d="M4688,1038.3L2548.9-1100.8v-618.6V-2336h618.6h616.7L5929-191.2l2144.9,2144.8L7461,2566.5c-337.1,337.1-616.7,612.8-622.4,612.8C6832.9,3179.3,5865.8,2216,4688,1038.3z"/></g></g>
</svg>