<?xml version="1.0" encoding="utf-8"?>
<!-- Svg Vector Icons : http://www.onlinewebfonts.com/icon -->
<!DOCTYPE svg PUBLIC "-//W3C//DTD SVG 1.1//EN" "http://www.w3.org/Graphics/SVG/1.1/DTD/svg11.dtd">
<svg version="1.1" xmlns="http://www.w3.org/2000/svg" xmlns:xlink="http://www.w3.org/1999/xlink" x="0px" y="0px" viewBox="0 0 1000 1000" enable-background="new 0 0 1000 1000" xml:space="preserve">
<metadata> Svg Vector Icons : http://www.onlinewebfonts.com/icon </metadata>
<g><g transform="translate(0.000000,512.000000) scale(0.100000,-0.100000)"><path d="M519.2,4990.7c-189.7-67.1-329.6-208.9-390.9-400.5c-28.7-84.3-30.7-425.4-26.8-3591.3l5.7-3497.4l47.9-95.8c59.4-122.7,174.4-237.6,297-297.1l95.8-47.9l1922.1-5.7l1920.2-3.8v-306.6v-304.7l-693.7-5.7l-695.6-5.7l-95.8-47.9c-122.6-59.4-237.6-174.4-297-297.1c-67.1-138-67.1-379.4,0-517.4c59.4-122.7,174.4-237.6,297-297l95.8-47.9h2002.6h2002.6l95.8,47.9c122.7,59.4,237.6,174.4,297,297c67.1,138,67.1,379.5,0,517.4c-59.4,122.7-174.4,237.7-297,297.1l-95.8,47.9l-693.8,5.7l-695.6,5.7v304.7v306.6l1922.1,3.8l1920.2,5.7l95.8,47.9c122.7,59.4,237.6,174.4,297,297.1l47.9,95.8v3535.8V4573l-47.9,95.8c-59.4,122.6-174.4,237.6-297,297l-95.8,47.9l-4426.9,3.8C1044.3,5021.4,597.8,5019.5,519.2,4990.7z M8683.1,1037.2v-2759.6H5003.6H1324.1v2759.6v2759.6h3679.5h3679.5V1037.2z"/><path d="M2732.7,2543.5c-78.6-34.5-159.1-132.2-172.5-208.9c-7.7-34.5-9.6-226.1-5.7-429.3c5.7-402.4,9.6-417.8,138-511.7c51.7-40.2,59.4-40.2,2311.2-40.2c2251.8,0,2259.4,0,2311.2,40.2c130.3,97.7,132.2,101.6,132.2,563.4s-1.9,465.7-132.2,563.4c-51.7,40.2-63.2,40.2-2288.2,44.1C3196.5,2568.4,2778.7,2564.6,2732.7,2543.5z"/><path d="M2732.7,703.8c-78.6-34.5-159.1-132.2-172.5-208.9c-7.7-34.5-9.6-226.1-5.7-429.3c5.7-402.4,9.6-417.8,138-511.7c51.7-40.3,59.4-40.3,2311.2-40.3c2251.8,0,2259.4,0,2311.2,40.3c130.3,97.7,132.2,101.6,132.2,563.4s-1.9,465.7-132.2,563.4c-51.7,40.2-63.2,40.2-2288.2,44.1C3196.5,728.7,2778.7,724.8,2732.7,703.8z"/></g></g>
</svg>