<?xml version="1.0" encoding="utf-8"?>
<!-- Svg Vector Icons : http://www.onlinewebfonts.com/icon -->
<!DOCTYPE svg PUBLIC "-//W3C//DTD SVG 1.1//EN" "http://www.w3.org/Graphics/SVG/1.1/DTD/svg11.dtd">
<svg version="1.1" xmlns="http://www.w3.org/2000/svg" xmlns:xlink="http://www.w3.org/1999/xlink" x="0px" y="0px" viewBox="0 0 1000 1000" enable-background="new 0 0 1000 1000" xml:space="preserve">
<metadata> Svg Vector Icons : http://www.onlinewebfonts.com/icon </metadata>
<g><g transform="translate(0.000000,512.000000) scale(0.100000,-0.100000)"><path d="M512.4,4994.3c-122.7-42.2-239.7-128.5-303-222.5c-117-174.5-109.3,191.8-109.3-4664.1v-4449.3l47.9-95.9c59.5-122.7,174.5-237.8,297.3-297.3l95.9-47.9H5000h4458.9l95.9,47.9c122.8,59.4,237.8,174.5,297.3,297.3l47.9,95.9V117.4v4458.8l-47.9,95.9c-59.5,122.7-174.5,237.8-297.3,297.3l-95.9,47.9l-4430.1,3.8C1037.9,5025,591.1,5023,512.4,4994.3z M8682.2,117.4v-3682.2H5000H1317.9V117.4v3682.1H5000h3682.2V117.4z"/><path d="M6996.5,3183.9c-159.2-30.7-255.1-95.9-519.7-356.7L6217.9,2574l613.7-615.6l613.7-615.6l280,283.8c314.5,318.3,349,377.8,347.1,611.8c-1.9,199.4-59.4,299.2-345.2,588.7C7405,3151.3,7243.9,3229.9,6996.5,3183.9z"/><path d="M4073.8,428L2545.3-1100.4v-619.4v-617.5h619.4h617.5L5316.5-803.2L6850.7,731L6237,1344.7c-337.5,337.5-617.5,613.7-623.3,613.7C5608,1958.4,4915.7,1269.9,4073.8,428z"/></g></g>
</svg>