<?xml version="1.0" encoding="utf-8"?>
<!-- Svg Vector Icons : http://www.onlinewebfonts.com/icon -->
<!DOCTYPE svg PUBLIC "-//W3C//DTD SVG 1.1//EN" "http://www.w3.org/Graphics/SVG/1.1/DTD/svg11.dtd">
<svg version="1.1" xmlns="http://www.w3.org/2000/svg" xmlns:xlink="http://www.w3.org/1999/xlink" x="0px" y="0px" viewBox="0 0 1000 1000" enable-background="new 0 0 1000 1000" xml:space="preserve">
<metadata> Svg Vector Icons : http://www.onlinewebfonts.com/icon </metadata>
<g><g transform="translate(0.000000,512.000000) scale(0.100000,-0.100000)"><path d="M1741.7,4993.1c-122.7-42.2-239.7-128.5-302.9-222.4c-61.4-88.2-118.9-237.8-118.9-310.6v-46l-387.3-5.8c-368.1-5.7-395-7.7-485.1-53.7c-122.7-59.4-237.7-174.5-297.2-297.2c-67.1-138.1-67.1-379.6,0-517.7c59.4-122.7,174.5-237.7,297.2-297.2c90.1-46,117-47.9,485.1-53.7l387.3-5.8v-304.9v-304.9l-387.3-5.8c-368.1-5.7-395-7.7-485.1-53.7c-122.7-59.4-237.7-174.5-297.2-297.2c-67.1-138.1-67.1-379.6,0-517.7c59.4-122.7,174.5-237.7,297.2-297.2c90.1-46,117-47.9,485.1-53.7l387.3-5.8v-304.9V732.8l-387.3-5.8c-368.1-5.8-395-7.7-485.1-53.7c-122.7-59.4-237.7-174.5-297.2-297.2c-67.1-138.1-67.1-379.6,0-517.7c59.4-122.7,174.5-237.7,297.2-297.2c90.1-46,117-47.9,485.1-53.7l387.3-5.8V-803v-304.8l-387.3-5.8c-368.1-5.8-395-7.7-485.1-53.7c-122.7-59.4-237.7-174.5-297.2-297.2c-67.1-138.1-67.1-379.6,0-517.7c59.4-122.7,174.5-237.7,297.2-297.2c90.1-46,117-47.9,485.1-53.7l387.3-5.7v-304.9v-304.9l-387.3-5.7c-368.1-5.8-395-7.7-485.1-53.7c-122.7-59.4-237.7-174.5-297.2-297.2c-67.1-138.1-67.1-379.6,0-517.7c59.4-122.7,174.5-237.8,297.2-297.2c90.1-46,117-47.9,481.2-53.7l385.4-5.8l11.5-84.4c26.9-191.7,164.9-379.6,349-469.7l95.9-47.9h3844.3H9459l95.9,47.9c122.7,59.4,237.8,174.5,297.2,297.2l47.9,95.9V117.3v4457.8l-47.9,95.9c-59.4,122.7-174.5,237.7-297.2,297.2l-95.9,47.9l-3815.5,3.8C2211.5,5023.8,1818.4,5021.9,1741.7,4993.1z M8682.5,117.3V-3564H5614.7H2547V117.3v3681.3h3067.7h3067.7V117.3z"/><path d="M5346.3,2540.9c-448.7-95.9-836-487-929.9-937.6c-97.8-467.8,88.2-960.6,465.9-1236.7l118.9-86.3V161.4V42.6l-80.5-21.1c-299.1-74.8-617.4-216.7-849.4-377.7c-118.9-82.4-141.9-109.3-210.9-243.5l-76.7-151.5v-696c0-673,1.9-696,40.3-747.8c21.1-28.8,63.3-70.9,92-92c51.8-40.3,65.2-40.3,1698.8-40.3s1647,0,1698.8,40.3c28.8,21.1,71,63.3,92.1,92c38.3,51.8,40.3,74.8,40.3,747.8v696l-76.7,151.5c-69,134.2-92,161-210.9,243.5c-232,161.1-550.3,303-847.5,377.7l-82.4,21.1v118.9v118.9l118.9,86.3c224.3,163,408.4,450.6,465.9,722.8C6997.1,1958,6218.7,2728.8,5346.3,2540.9z"/></g></g>
</svg>