<?xml version="1.0" encoding="utf-8"?>
<!-- Svg Vector Icons : http://www.onlinewebfonts.com/icon -->
<!DOCTYPE svg PUBLIC "-//W3C//DTD SVG 1.1//EN" "http://www.w3.org/Graphics/SVG/1.1/DTD/svg11.dtd">
<svg version="1.1" xmlns="http://www.w3.org/2000/svg" xmlns:xlink="http://www.w3.org/1999/xlink" x="0px" y="0px" viewBox="0 0 1000 1000" enable-background="new 0 0 1000 1000" xml:space="preserve">
<metadata> Svg Vector Icons : http://www.onlinewebfonts.com/icon </metadata>
<g><g transform="translate(0.000000,512.000000) scale(0.100000,-0.100000)"><path d="M4527.1,5008.3c-941-95.8-1874.3-475.3-2591.1-1054.1c-218.5-176.3-542.4-496.4-728.3-720.6c-484.9-588.4-862.4-1370.3-1010-2094.7C115.3,732.6,100,573.6,100,123.2s15.3-605.6,97.7-1015.7c107.3-530.9,394.8-1217,703.3-1682.7c1389.4-2077.5,4057.2-2796.1,6278.4-1688.4c946.7,471.5,1726.7,1247.6,2198.2,2184.8C9705.4-1423.4,9870.2-777.5,9897-39.7c46,1326.2-446.5,2604.5-1374.1,3562.7c-772.3,797.3-1726.7,1287.9-2836.4,1458.4C5447,5017.9,4772.4,5035.1,4527.1,5008.3z M5496.8,3772.2c1071.3-149.5,1998.9-743.6,2604.5-1665.4c272.1-417.8,479.1-981.2,546.2-1498.7c184-1399-442.7-2769.3-1629-3564.6c-826-553.8-1924.2-739.8-2922.6-492.5c-983.1,241.5-1870.5,939.1-2355.4,1849.4c-739.8,1393.3-502.1,3118.1,590.3,4256.5c590.3,615.2,1320.4,996.6,2142.6,1115.4C4734,3808.6,5234.3,3810.5,5496.8,3772.2z"/><path d="M4728.3,2564.8c-396.7-49.8-780-193.6-1111.6-415.9c-184-122.7-523.2-461.9-645.9-645.9c-182.1-272.1-312.4-578.8-381.4-900.7c-49.8-228.1-49.8-730.2,0-958.2c105.4-492.5,323.9-893.1,680.4-1247.6c354.6-356.5,755.1-574.9,1247.6-680.4c226.1-47.9,730.2-49.8,954.4,0c500.2,107.3,933.3,343.1,1261,684.2c197.4,205.1,228.1,272.1,228.1,496.4c0,153.3-7.7,195.5-44.1,264.5c-67.1,126.5-168.6,228.1-287.5,285.6c-90.1,44.1-134.2,53.7-253,53.7c-208.9,0-299-40.3-504-233.8c-419.7-392.9-935.2-477.2-1427.8-233.8C4040.3-769.9,3770.1-331,3770.1,123.2c0,668.8,557.7,1226.5,1226.5,1226.5c323.9,0,609.4-122.7,875.8-369.9c205.1-193.6,295.1-233.8,504-233.8c118.8,0,162.9,9.6,253,53.7c118.8,57.5,220.4,159.1,287.5,285.6c36.4,69,44.1,111.2,44.1,264.5c0,224.2-30.7,291.3-228.1,496.4c-327.7,341.1-764.7,578.8-1257.2,684.2C5335.8,2559,4862.5,2582,4728.3,2564.8z"/></g></g>
</svg>