<?xml version="1.0" encoding="utf-8"?>
<!-- Svg Vector Icons : http://www.onlinewebfonts.com/icon -->
<!DOCTYPE svg PUBLIC "-//W3C//DTD SVG 1.1//EN" "http://www.w3.org/Graphics/SVG/1.1/DTD/svg11.dtd">
<svg version="1.1" xmlns="http://www.w3.org/2000/svg" xmlns:xlink="http://www.w3.org/1999/xlink" x="0px" y="0px" viewBox="0 0 1000 1000" enable-background="new 0 0 1000 1000" xml:space="preserve">
<metadata> Svg Vector Icons : http://www.onlinewebfonts.com/icon </metadata>
<g><g transform="translate(0.000000,416.000000) scale(0.100000,-0.100000)"><path d="M519.2,3110.9c-189.7-67.1-329.6-208.9-390.9-400.5C99.6,2626,97.6,2284.9,101.5-881l5.7-3497.4l47.9-95.8c59.4-122.7,174.4-237.6,297-297l95.8-47.9h4455.6h4455.6l95.8,47.9c122.7,59.4,237.6,174.4,297,297l47.9,95.8v3535.8v3535.8l-47.9,95.8c-59.4,122.7-174.4,237.6-297,297l-95.8,47.9l-4426.9,3.8C1044.3,3141.5,597.8,3139.6,519.2,3110.9z M8683.1,1610.3v-306.6H5003.6H1324.1v306.6V1917h3679.5h3679.5V1610.3z M8683.1-1762.5v-1839.7H5003.6H1324.1v1839.7V77.2h3679.5h3679.5V-1762.5z"/><path d="M5798.9-1789.3c-78.6-34.5-159.1-132.2-172.5-208.9c-7.7-34.5-9.6-226.1-5.8-429.3c5.8-402.4,9.6-417.8,138-511.7c51.7-40.3,72.8-40.3,1084.7-40.3c1011.9,0,1032.9,0,1084.7,40.3c130.3,97.7,132.2,101.6,132.2,563.4c0,461.9-1.9,465.7-132.2,563.4c-51.7,40.2-76.7,40.2-1061.7,44.1C6055.7-1764.4,5844.9-1768.3,5798.9-1789.3z"/></g></g>
</svg>