<?xml version="1.0" encoding="utf-8"?>
<!-- Svg Vector Icons : http://www.onlinewebfonts.com/icon -->
<!DOCTYPE svg PUBLIC "-//W3C//DTD SVG 1.1//EN" "http://www.w3.org/Graphics/SVG/1.1/DTD/svg11.dtd">
<svg version="1.1" xmlns="http://www.w3.org/2000/svg" xmlns:xlink="http://www.w3.org/1999/xlink" x="0px" y="0px" viewBox="0 0 1000 1000" enable-background="new 0 0 1000 1000" xml:space="preserve">
<metadata> Svg Vector Icons : http://www.onlinewebfonts.com/icon </metadata>
<g><g transform="translate(0.000000,512.000000) scale(0.100000,-0.100000)"><path d="M4811.6,4991.3c-46-17.2-947.9-605.2-2003.1-1309.9C744,2304.5,814.9,2358.1,742.1,2143.6c-26.8-82.3-30.6-291.1-30.6-2024.2c0-1733.1,3.8-1941.9,30.6-2024.2c72.8-214.5,1.9-160.9,2066.3-1537.8c1285-856,1955.3-1292.7,2020.4-1313.7c126.4-40.2,306.4-28.7,419.4,30.6c45.9,23,934.5,609,1972.5,1300.3c1993.6,1329,1945.7,1294.6,2026.1,1495.6c32.6,80.4,34.5,214.5,40.2,2029.9c3.8,1746.5,1.9,1953.3-24.9,2037.6c-72.8,218.3,3.8,162.8-2068.2,1543.5C6085.1,4420.6,5236.7,4974,5185,4991.3C5073.9,5029.6,4920.7,5029.6,4811.6,4991.3z M6301.5,2810c695.2-463.4,1263.9-846.4,1263.9-852.2c0-21.1-2533.6-1694.8-2564.2-1694.8S2436.9,1936.8,2436.9,1957.8c0,23,2539.3,1702.5,2566.2,1698.7C5022.2,3654.6,5604.4,3273.5,6301.5,2810z M3187.6-18.5L4388.3-819v-1103.1c0-875.2-5.7-1099.2-23-1087.7c-13.4,7.7-564.9,375.4-1225.6,815.8l-1202.6,800.5v1103.1c0,875.2,5.7,1099.2,24.9,1087.7C1973.5,789.7,2525,422,3187.6-18.5z M8065.2-292.3v-1101.2L6864.5-2194c-662.6-440.5-1214.1-808.1-1225.6-815.8c-19.1-11.5-24.9,212.6-24.9,1087.7V-819L6833.9-5.1C7506,443,8057.6,808.8,8059.5,808.8C8063.3,808.8,8065.2,312.8,8065.2-292.3z"/></g></g>
</svg>