<?xml version="1.0" encoding="utf-8"?>
<!-- Svg Vector Icons : http://www.onlinewebfonts.com/icon -->
<!DOCTYPE svg PUBLIC "-//W3C//DTD SVG 1.1//EN" "http://www.w3.org/Graphics/SVG/1.1/DTD/svg11.dtd">
<svg version="1.1" xmlns="http://www.w3.org/2000/svg" xmlns:xlink="http://www.w3.org/1999/xlink" x="0px" y="0px" viewBox="0 0 1000 1000" enable-background="new 0 0 1000 1000" xml:space="preserve">
<metadata> Svg Vector Icons : http://www.onlinewebfonts.com/icon </metadata>
<g><g transform="translate(0.000000,512.000000) scale(0.100000,-0.100000)"><path d="M519.2,4990.7c-189.7-67.1-329.6-208.9-390.9-400.5C99.6,4505.9,97.6,4088.1,101.5,79l5.7-4417.3l47.9-95.8c59.4-122.7,174.4-237.6,297-297L548-4779h4455.6h4455.6l95.8,47.9c122.7,59.4,237.6,174.4,297,297l47.9,95.8V117.3V4573l-47.9,95.8c-59.4,122.6-174.4,237.6-297,297l-95.8,47.9l-4426.9,3.8C1044.3,5021.4,597.8,5019.5,519.2,4990.7z M8683.1,117.3v-3679.5H5003.6H1324.1V117.3v3679.5h3679.5h3679.5V117.3z"/><path d="M3345.9,2543.5c-138-61.3-182.1-159.1-182.1-406.3v-180.1h-613.2h-613.2v-306.6v-306.6h611.3H3160l7.7-208.9c5.7-226.1,23-270.2,138-354.5c51.7-40.2,65.2-40.2,1697.9-40.2s1646.2,0,1697.9,40.2c115,84.3,132.2,128.4,138,354.5l7.7,208.9h611.3h611.3v306.6v306.6h-611.3h-611.3l-7.7,208.9c-5.7,226.1-23,270.2-138,354.5c-51.7,40.2-69,40.2-1674.9,44.1C3702.4,2568.4,3391.9,2564.6,3345.9,2543.5z"/><path d="M3959.2-522.7c-138-61.3-182.1-159.1-182.1-406.3v-180.2h-919.9h-919.9v-306.6v-306.6h917.9h917.9l7.7-208.9c5.7-226.1,23-270.2,138-354.5c51.7-40.3,72.8-40.3,1084.7-40.3s1032.9,0,1084.7,40.3c115,84.3,132.2,128.4,138,354.5l7.7,208.9h917.9h918v306.6v306.6h-918h-917.9l-7.7,208.9c-5.7,226.1-23,270.2-138,354.5c-51.7,40.2-76.7,40.2-1061.7,44.1C4214.1-497.8,4005.2-501.7,3959.2-522.7z"/></g></g>
</svg>