<?xml version="1.0" encoding="utf-8"?>
<!-- Svg Vector Icons : http://www.onlinewebfonts.com/icon -->
<!DOCTYPE svg PUBLIC "-//W3C//DTD SVG 1.1//EN" "http://www.w3.org/Graphics/SVG/1.1/DTD/svg11.dtd">
<svg version="1.1" xmlns="http://www.w3.org/2000/svg" xmlns:xlink="http://www.w3.org/1999/xlink" x="0px" y="0px" viewBox="0 0 1000 1000" enable-background="new 0 0 1000 1000" xml:space="preserve">
<metadata> Svg Vector Icons : http://www.onlinewebfonts.com/icon </metadata>
<g><g transform="translate(0.000000,512.000000) scale(0.100000,-0.100000)"><path d="M1136.7,4991.7c-187.7-65.1-325.5-204.9-390.6-394.5c-28.7-82.3-30.6-428.9-30.6-3820.2v-3728.3l915.3-915.3l913.4-913.4l3150,3.8l3150,5.7l95.8,47.9c122.6,59.4,237.5,174.2,296.8,296.8l47.9,95.8V122.1v4452.1l-47.9,95.7c-59.4,122.5-174.3,237.4-296.8,296.8l-95.8,47.9l-3810.6,3.8C1605.9,5022.3,1213.3,5020.4,1136.7,4991.7z M8068.6,122.1v-3676.6H5923.9H3781.2l-5.8,821.5c-5.7,796.6-7.7,823.4-46,875.1c-21.1,28.7-63.2,70.8-91.9,91.9c-51.7,38.3-78.5,40.2-875.1,46l-821.5,5.8v2755.5v2757.4h3063.8h3063.8V122.1z"/><path d="M2735.6,3159.2c-78.5-34.5-158.9-132.1-172.3-208.7c-7.7-34.5-9.6-226-5.7-428.9c5.7-402.1,9.6-417.4,137.9-511.3c51.7-40.2,59.4-40.2,2309.4-40.2c2250,0,2257.7,0,2309.4,40.2c130.2,97.7,132.1,101.5,132.1,563c0,461.5-1.9,465.3-132.1,563c-51.7,40.2-63.2,40.2-2286.4,44C3199.1,3184,2781.6,3180.2,2735.6,3159.2z"/><path d="M2735.6,1320.9c-78.5-34.5-158.9-132.1-172.3-208.7c-7.7-34.5-9.6-226-5.7-428.9c5.7-402.1,9.6-417.4,137.9-511.3c51.7-40.2,59.4-40.2,2309.4-40.2c2250,0,2257.7,0,2309.4,40.2c130.2,97.7,132.1,101.5,132.1,563c0,461.5-1.9,465.3-132.1,563c-51.7,40.2-63.2,40.2-2286.4,44C3199.1,1345.8,2781.6,1341.9,2735.6,1320.9z"/></g></g>
</svg>