<?xml version="1.0" encoding="utf-8"?>
<!-- Svg Vector Icons : http://www.onlinewebfonts.com/icon -->
<!DOCTYPE svg PUBLIC "-//W3C//DTD SVG 1.1//EN" "http://www.w3.org/Graphics/SVG/1.1/DTD/svg11.dtd">
<svg version="1.1" xmlns="http://www.w3.org/2000/svg" xmlns:xlink="http://www.w3.org/1999/xlink" x="0px" y="0px" viewBox="0 0 1000 1000" enable-background="new 0 0 1000 1000" xml:space="preserve">
<metadata> Svg Vector Icons : http://www.onlinewebfonts.com/icon </metadata>
<g><g transform="translate(0.000000,307.000000) scale(0.100000,-0.100000)"><path d="M1124.1,980.8c-95.7-32.6-172.3-99.6-704.7-614.7C191.5,147.9,153.2,101.9,124.5,13.8c-40.2-118.7-30.6-248.9,26.8-360c53.6-105.3,4507.6-4400.4,4630.2-4465.5c122.5-65.1,340.9-67,457.7-5.7c67,36.4,3452.5,3278.3,4310.4,4128.5C9861.7-380.7,9900-319.4,9900-150.9c0,162.8-61.3,243.2-497.9,660.6c-451.9,430.8-503.6,465.3-700.8,467.2c-97.7,1.9-139.8-9.6-226-55.5c-80.4-42.1-501.7-438.5-1775.1-1673.6c-919.2-890.4-1675.6-1620-1681.3-1621.9c-5.7-3.8-777.4,735.3-1715.7,1641.1C2156.2,375.7,1572.1,927.2,1516.6,954C1409.4,1005.7,1240.9,1017.2,1124.1,980.8z"/></g></g>
</svg>