<?xml version="1.0" encoding="utf-8"?>
<!-- Svg Vector Icons : http://www.onlinewebfonts.com/icon -->
<!DOCTYPE svg PUBLIC "-//W3C//DTD SVG 1.1//EN" "http://www.w3.org/Graphics/SVG/1.1/DTD/svg11.dtd">
<svg version="1.1" xmlns="http://www.w3.org/2000/svg" xmlns:xlink="http://www.w3.org/1999/xlink" x="0px" y="0px" viewBox="0 0 1000 1000" enable-background="new 0 0 1000 1000" xml:space="preserve">
<metadata> Svg Vector Icons : http://www.onlinewebfonts.com/icon </metadata>
<g><g transform="translate(0.000000,512.000000) scale(0.100000,-0.100000)"><path d="M519.2,4990.7c-189.7-67.1-329.6-208.9-390.9-400.5C99.6,4505.9,97.6,4088.1,101.5,79l5.7-4417.3l47.9-95.8c59.4-122.7,174.4-237.6,297-297L548-4779h4455.6h4455.6l95.8,47.9c122.7,59.4,237.6,174.4,297,297l47.9,95.8V117.3V4573l-47.9,95.8c-59.4,122.6-174.4,237.6-297,297l-95.8,47.9l-4426.9,3.8C1044.3,5021.4,597.8,5019.5,519.2,4990.7z M8683.1,117.3v-3679.5H5003.6H1324.1V117.3v3679.5h3679.5h3679.5V117.3z"/><path d="M4572.4,2543.5c-70.9-32.6-134.1-99.6-161-170.6c-13.4-36.4-21.1-421.6-21.1-1155.6v-1100l-521.3-1.9c-565.3,0-636.2-9.6-684.1-95.8c-49.8-88.2-3.8-178.2,291.3-567.3c149.5-197.4,500.2-659.2,776.1-1025.3c477.2-630.5,507.8-666.9,607.5-716.7c124.6-59.4,233.8-57.5,341.1,9.6c46,28.7,304.7,360.3,810.6,1040.6c408.2,550,764.6,1036.8,789.6,1082.8c55.6,101.6,49.8,172.5-21.1,224.2c-51.7,38.3-80.5,40.2-607.5,46l-555.8,5.8L5613,1248c-5.8,1105.8-5.8,1128.8-46,1180.5c-95.8,128.4-105.4,132.2-540.4,136.1C4723.8,2568.4,4616.5,2564.6,4572.4,2543.5z"/></g></g>
</svg>