<?xml version="1.0" encoding="utf-8"?>
<!-- Svg Vector Icons : http://www.onlinewebfonts.com/icon -->
<!DOCTYPE svg PUBLIC "-//W3C//DTD SVG 1.1//EN" "http://www.w3.org/Graphics/SVG/1.1/DTD/svg11.dtd">
<svg version="1.1" xmlns="http://www.w3.org/2000/svg" xmlns:xlink="http://www.w3.org/1999/xlink" x="0px" y="0px" viewBox="0 0 1000 1000" enable-background="new 0 0 1000 1000" xml:space="preserve">
<metadata> Svg Vector Icons : http://www.onlinewebfonts.com/icon </metadata>
<g><g transform="translate(0.000000,448.000000) scale(0.100000,-0.100000)"><path d="M4572.5,3743.3c-70.9-32.6-134.1-99.7-161-170.6c-15.3-36.4-21.1-599.8-21.1-1768.8V90.7h-546.2c-573,0-619-5.7-661.1-86.2c-53.7-99.7-24.9-141.8,797.2-1199.7c436.9-563.4,826-1054,862.4-1090.4c57.5-59.4,76.7-67.1,161-67.1c84.3,0,103.5,7.7,161,67.1c36.4,36.4,425.4,528.9,862.4,1092.3C6849.1-137.4,6877.8-95.2,6824.2,4.4c-42.2,80.5-88.1,86.2-661.2,86.2h-546.2l-3.8,1742c-5.7,1726.7-5.7,1743.9-46,1795.6c-95.8,128.4-105.4,132.2-540.4,136.1C4723.8,3768.2,4616.5,3764.4,4572.5,3743.3z"/><path d="M279.8,63.8C201.2,29.3,120.7-68.4,107.3-145c-5.7-34.5-9.6-996.5-5.7-2140.6l5.7-2079.3l47.9-95.8c59.4-122.7,174.4-237.6,297-297l95.8-47.9h4455.6h4455.6l95.8,47.9c122.7,59.4,237.6,174.4,297,297l47.9,95.8v2131c0,2121.4,0,2131-40.2,2182.8C9762,79.2,9758.2,81.1,9296.3,81.1c-461.8,0-465.7-1.9-563.4-132.2c-40.2-51.7-40.2-69-46-1795.7l-3.8-1742H5003.6H1324.2l-3.8,1742c-5.7,1726.7-5.7,1743.9-46,1795.7C1178.5,77.3,1169,81.1,734,84.9C433.1,88.8,323.8,84.9,279.8,63.8z"/></g></g>
</svg>