<?xml version="1.0" encoding="utf-8"?>
<!-- Svg Vector Icons : http://www.onlinewebfonts.com/icon -->
<!DOCTYPE svg PUBLIC "-//W3C//DTD SVG 1.1//EN" "http://www.w3.org/Graphics/SVG/1.1/DTD/svg11.dtd">
<svg version="1.1" xmlns="http://www.w3.org/2000/svg" xmlns:xlink="http://www.w3.org/1999/xlink" x="0px" y="0px" viewBox="0 0 1000 1000" enable-background="new 0 0 1000 1000" xml:space="preserve">
<metadata> Svg Vector Icons : http://www.onlinewebfonts.com/icon </metadata>
<g><g transform="translate(0.000000,512.000000) scale(0.100000,-0.100000)"><path d="M519.2,4990.7c-189.7-67.1-329.6-208.9-390.9-400.5C99.6,4505.9,97.6,4088.1,101.5,79l5.7-4417.3l47.9-95.8c59.4-122.7,174.4-237.6,297-297L548-4779h4455.6h4455.6l95.8,47.9c122.7,59.4,237.6,174.4,297,297l47.9,95.8V117.3V4573l-47.9,95.8c-59.4,122.6-174.4,237.6-297,297l-95.8,47.9l-4426.9,3.8C1044.3,5021.4,597.8,5019.5,519.2,4990.7z M8683.1,117.3v-3679.5H5003.6H1324.1V117.3v3679.5h3679.5h3679.5V117.3z"/><path d="M4582,2549.2c-55.6-23-128.4-86.2-159.1-141.8c-17.3-26.8-24.9-396.7-32.6-1307l-9.6-1270.6l-448.4,423.5c-247.2,233.8-477.2,436.9-513.6,450.4c-78.6,34.5-162.9,34.5-241.5,0c-72.8-30.7-559.6-492.5-597.9-569.2c-36.4-67.1-36.4-153.3-3.8-233.8c30.7-72.8,2224.9-2175.1,2307.3-2211.5c76.7-32.6,197.4-28.8,268.3,9.6c32.6,17.2,498.3,450.4,1032.9,962C7516-68.6,7431.7-152.9,7447-66.6c26.8,141.8-7.7,199.3-293.2,473.3c-143.7,138-289.4,264.5-323.9,277.9c-88.1,38.3-187.8,32.6-270.2-11.5c-38.3-21.1-264.5-222.3-502.1-448.4l-431.2-412l-9.6,1282.1c-9.6,1257.2-9.6,1282.1-49.8,1333.8c-95.8,128.4-105.4,132.2-540.4,136.1C4789,2566.5,4610.8,2560.7,4582,2549.2z"/></g></g>
</svg>