<?xml version="1.0" encoding="utf-8"?>
<!-- Svg Vector Icons : http://www.onlinewebfonts.com/icon -->
<!DOCTYPE svg PUBLIC "-//W3C//DTD SVG 1.1//EN" "http://www.w3.org/Graphics/SVG/1.1/DTD/svg11.dtd">
<svg version="1.1" xmlns="http://www.w3.org/2000/svg" xmlns:xlink="http://www.w3.org/1999/xlink" x="0px" y="0px" viewBox="0 0 1000 1000" enable-background="new 0 0 1000 1000" xml:space="preserve">
<metadata> Svg Vector Icons : http://www.onlinewebfonts.com/icon </metadata>
<g><g transform="translate(0.000000,512.000000) scale(0.100000,-0.100000)"><path d="M1129.3,4989c-189.7-65.2-329.6-208.9-390.9-400.5c-28.7-84.3-30.7-502-26.8-4510.8l5.7-4416.9l47.9-95.8c59.4-122.6,174.4-237.6,297-297l95.8-47.9h3842.1h3842.1l95.8,47.9c122.6,59.4,237.6,174.4,297,297l47.9,95.8l5.8,3315.1c3.8,2489.2,0,3341.9-17.2,3420.5c-53.7,252.9-53.7,252.9-1203.4,1400.8c-1124.8,1126.7-1134.4,1134.4-1372,1197.6c-78.6,21.1-599.8,26.8-2788.1,24.9C1510.6,5019.7,1205.9,5015.8,1129.3,4989z M5617.1,2666.5c5.8-1107.6,5.8-1130.6,46-1182.3c21.1-28.7,63.2-70.9,92-92c51.7-40.2,74.7-40.2,1182.3-46l1128.7-3.8v-2452.8v-2452.8h-3066h-3066V116v3679.2h1839.6h1839.6L5617.1,2666.5z"/><path d="M3955.7,1315.6c-70.9-32.6-134.1-99.6-161-170.5c-13.4-34.5-21.1-331.5-21.1-848.9v-793.3H3216h-557.6l-55.6-55.6c-61.3-61.3-69-118.8-28.8-197.4c55.6-107.3,1648-2128.9,1705.5-2163.4c76.7-47.9,187.8-38.3,254.9,24.9c53.7,49.8,1638.4,2079.1,1670.9,2140.4c23,42.1,26.8,116.9,9.6,164.8c-30.7,78.6-95.8,86.2-666.9,86.2H5002l-5.8,822.1c-5.7,797.2-7.7,824-46,875.7c-95.8,128.4-105.4,132.2-540.4,136.1C4107.1,1340.5,3999.8,1336.6,3955.7,1315.6z"/></g></g>
</svg>