<?xml version="1.0" encoding="utf-8"?>
<!-- Svg Vector Icons : http://www.onlinewebfonts.com/icon -->
<!DOCTYPE svg PUBLIC "-//W3C//DTD SVG 1.1//EN" "http://www.w3.org/Graphics/SVG/1.1/DTD/svg11.dtd">
<svg version="1.1" xmlns="http://www.w3.org/2000/svg" xmlns:xlink="http://www.w3.org/1999/xlink" x="0px" y="0px" viewBox="0 0 1000 1000" enable-background="new 0 0 1000 1000" xml:space="preserve">
<metadata> Svg Vector Icons : http://www.onlinewebfonts.com/icon </metadata>
<g><g transform="translate(0.000000,512.000000) scale(0.100000,-0.100000)"><path d="M4474.5,5001.1c-88.1-24.9-193.4-122.5-243.1-222.1l-44-91.9l-9.6-3603.1l-9.6-3605L3166.9-1460.3C2406.9-656.2,2146.5-392,2085.2-365.2c-113,51.7-254.6,45.9-354.2-11.5c-91.9-55.5-714.1-696.9-763.9-788.8c-53.6-101.5-47.9-310.1,13.4-409.7c26.8-44,714.1-783,1529.7-1642.6L3992-4780h1018.5h1018.5l1481.8,1562.2c815.6,859.6,1499,1592.9,1520.1,1631.1c49.8,93.8,51.7,292.9,3.8,388.7c-47.9,95.7-716,783-792.6,813.7c-91.9,38.3-248.9,32.5-338.9-11.5c-55.5-26.8-371.4-346.5-1074-1093.2l-995.5-1053l-9.6,3614.5l-9.6,3614.5l-44,91.9c-53.6,105.3-157,197.2-252.7,224C5435.6,5026,4553,5026,4474.5,5001.1z"/></g></g>
</svg>