<?xml version="1.0" encoding="utf-8"?>
<!-- Svg Vector Icons : http://www.onlinewebfonts.com/icon -->
<!DOCTYPE svg PUBLIC "-//W3C//DTD SVG 1.1//EN" "http://www.w3.org/Graphics/SVG/1.1/DTD/svg11.dtd">
<svg version="1.1" xmlns="http://www.w3.org/2000/svg" xmlns:xlink="http://www.w3.org/1999/xlink" x="0px" y="0px" viewBox="0 0 1000 1000" enable-background="new 0 0 1000 1000" xml:space="preserve">
<metadata> Svg Vector Icons : http://www.onlinewebfonts.com/icon </metadata>
<g><g transform="translate(0.000000,469.000000) scale(0.100000,-0.100000)"><path d="M4790.4,4149.5c-57.4-15.3-143.6-49.8-193.4-76.6C4468.8,4002.1,251.4-219.2,192-337.9c-208.7-419.3-51.7-901.7,361.8-1106.5l145.5-70.8h4297.8H9297l124.5,59.3c436.5,208.7,603,712.2,375.2,1131.4C9725.8-194.3,5504.5,4025,5387.7,4082.5C5198.2,4176.3,4981.9,4201.2,4790.4,4149.5z M6061.6,1155.3L7114.5,102.4H4999.1H2883.7l1052.9,1052.9c578.2,580.1,1056.8,1052.9,1062.5,1052.9C5004.8,2208.3,5483.5,1735.4,6061.6,1155.3z"/><path d="M337.5-3207.6c-95.7-42.1-193.4-151.2-220.2-245C102-3500.5,98.2-3693.8,102-4025l5.7-499.7l53.6-78.5c28.7-44,88.1-103.4,132.1-132.1l80.4-53.6l4575.4-5.7c3564.6-3.8,4596.5,0,4663.5,19.2c107.2,28.7,237.4,155.1,266.1,256.5c11.5,44,21.1,271.8,21.1,549.4c0,515-7.7,560.9-111,671.9c-28.7,30.6-86.2,70.8-128.3,90c-74.7,34.5-239.3,36.4-4661.6,36.4C605.5-3171.2,410.3-3173.1,337.5-3207.6z"/></g></g>
</svg>