<?xml version="1.0" encoding="utf-8"?>
<!-- Svg Vector Icons : http://www.onlinewebfonts.com/icon -->
<!DOCTYPE svg PUBLIC "-//W3C//DTD SVG 1.1//EN" "http://www.w3.org/Graphics/SVG/1.1/DTD/svg11.dtd">
<svg version="1.1" xmlns="http://www.w3.org/2000/svg" xmlns:xlink="http://www.w3.org/1999/xlink" x="0px" y="0px" viewBox="0 0 1000 1000" enable-background="new 0 0 1000 1000" xml:space="preserve">
<metadata> Svg Vector Icons : http://www.onlinewebfonts.com/icon </metadata>
<g><g transform="translate(0.000000,512.000000) scale(0.100000,-0.100000)"><path d="M4545.5,5004.6c-542.2-59.4-1178.4-256.7-1638.2-511.6C1562.2,3751.5,665.5,2406.4,431.7,781.6c-38.3-268.3-32.6-1113.2,9.6-1389.1c176.3-1134.3,649.5-2096.2,1400.6-2847.2c758.8-754.9,1697.6-1205.2,2741.9-1312.5c649.5-65.2,1506,122.6,2193.9,482.8c277.8,147.5,360.2,214.6,442.6,366c61.3,113,65.2,132.2,65.2,293.2c0,199.3-36.4,298.9-155.2,431.1c-111.2,122.6-237.6,178.2-402.4,180.1c-134.1,1.9-143.7-1.9-421.5-145.6c-417.7-212.7-707-308.5-1138.1-371.7c-595.9-86.2-1350.8,107.3-1963.9,505.8C1809.4-2121.2,1202-308.6,1740.4,1337.3c523.1,1594.1,2025.3,2615.4,3596.4,2441.1C6676.1,3630.8,7810.4,2678.5,8253,1331.5c149.4-457.9,191.6-777.9,191.6-1456.2c0-540.3-11.5-601.6-132.2-762.6c-47.9-65.2-109.2-113.1-193.5-157.1c-116.9-61.3-134.1-65.1-268.2-57.5c-229.9,13.4-394.7,128.4-496.3,341c-47.9,103.5-49.8,113.1-61.3,680.2c-11.5,521.2-17.2,594-61.3,776c-252.9,1061.5-1094.1,1804.9-2113.4,1870.1c-1007.8,65.1-1952.4-611.2-2295.4-1640.1c-166.7-505.8-166.7-1092.1,0-1609.5c124.5-389,302.7-680.2,601.6-979.1c362.1-366,764.5-576.7,1253.1-651.4c222.3-36.4,657.2-11.5,871.8,47.9c316.1,88.1,622.7,252.9,885.2,477.1l128.4,109.2l72.8-88.1c164.8-201.2,502-417.7,793.2-509.7c124.5-38.3,182-44.1,440.7-44.1c258.7,0,316.1,5.7,440.7,44.1c433,136,762.6,402.4,1007.8,816.2c113.1,189.7,226.1,507.8,254.8,726.2c30.6,220.4,26.8,1103.7-7.7,1414.1c-65.2,616.9-228,1174.5-509.7,1739.8c-256.8,517.3-544.2,912-969.5,1324C7411.9,4401,6624.4,4805.3,5723.8,4960.5C5405.8,5016.1,4840.5,5037.2,4545.5,5004.6z M5216.1,1318.1C5963.3,1161,6365.7,270,6013.1-444.7c-206.9-419.6-578.6-661-1017.4-661c-350.6,0-664.9,157.1-885.2,442.6C3635.3-51.9,3838.4,898.5,4511,1224.2C4752.4,1341.1,4968.9,1369.8,5216.1,1318.1z"/></g></g>
</svg>