<?xml version="1.0" encoding="utf-8"?>
<!-- Svg Vector Icons : http://www.onlinewebfonts.com/icon -->
<!DOCTYPE svg PUBLIC "-//W3C//DTD SVG 1.1//EN" "http://www.w3.org/Graphics/SVG/1.1/DTD/svg11.dtd">
<svg version="1.1" xmlns="http://www.w3.org/2000/svg" xmlns:xlink="http://www.w3.org/1999/xlink" x="0px" y="0px" viewBox="0 0 1000 1000" enable-background="new 0 0 1000 1000" xml:space="preserve">
<metadata> Svg Vector Icons : http://www.onlinewebfonts.com/icon </metadata>
<g><g transform="translate(0.000000,320.000000) scale(0.100000,-0.100000)"><path d="M512.4,1233.2c-122.7-42.2-239.7-128.5-303-222.5c-117-172.6-109.3,21.1-109.3-2823v-2608.2l47.9-95.9c59.5-122.7,174.5-237.8,297.3-297.3l95.9-47.9h3845.2h3845.2l95.9,47.9c122.8,59.5,237.8,174.5,297.3,297.3l47.9,95.9l5.7,694.2l5.8,694.2l387.4,5.8c366.3,5.8,393.1,7.7,483.3,53.7c122.8,59.5,237.8,174.5,297.3,297.3l47.9,95.9v776.7v776.7l-47.9,95.9c-59.5,122.7-174.5,237.8-297.3,297.3c-90.2,46-117,47.9-483.3,53.7l-387.4,5.8l-5.8,694.2l-5.7,694.2l-47.9,95.9c-59.5,122.7-174.5,237.8-297.3,297.3l-95.9,47.9l-3816.4,3.8C982.3,1263.9,589.1,1262,512.4,1233.2z M7454.8-1802.7v-1841.1H4386.4H1317.9v1841.1V38.4h3068.5h3068.5V-1802.7z"/></g></g>
</svg>