<?xml version="1.0" encoding="utf-8"?>
<!-- Svg Vector Icons : http://www.onlinewebfonts.com/icon -->
<!DOCTYPE svg PUBLIC "-//W3C//DTD SVG 1.1//EN" "http://www.w3.org/Graphics/SVG/1.1/DTD/svg11.dtd">
<svg version="1.1" xmlns="http://www.w3.org/2000/svg" xmlns:xlink="http://www.w3.org/1999/xlink" x="0px" y="0px" viewBox="0 0 1000 1000" enable-background="new 0 0 1000 1000" xml:space="preserve">
<metadata> Svg Vector Icons : http://www.onlinewebfonts.com/icon </metadata>
<g><g transform="translate(0.000000,512.000000) scale(0.100000,-0.100000)"><path d="M4548.9,4999.8C2961.8,4852.4,1535.5,3933.4,746.8,2551.2C34.6,1304.9-95.6-175,386.8-1536.2c103.4-289.1,338.9-765.8,509.2-1024.2c361.8-549.4,874.9-1062.5,1422.4-1422.4c260.4-170.4,735.2-405.9,1024.2-509.3c1275-451.8,2628.5-371.4,3836.6,229.7c959.1,474.8,1726.8,1242.5,2201.6,2201.6c693,1391.8,691.1,2973.1,0,4361.1c-248.9,501.6-507.3,863.4-903.6,1263.5c-400.1,404-786.9,683.5-1298,938.1C6356.1,4911.7,5450.6,5084,4548.9,4999.8z M5326.1,3774.5c606.9-61.3,1215.7-269.9,1667.5-572.4l130.2-86.2L4564.2,556.3L2004.6-2003.3l-103.4,157c-411.6,627.9-624.1,1479.9-560.9,2238c53.6,658.6,256.5,1246.3,605,1767C2691.8,3274.9,4018.6,3908.5,5326.1,3774.5z M8301.2,1718.4c495.9-1030,488.2-2216.9-21-3243.1c-348.4-704.5-915.1-1271.2-1625.4-1631.1c-873-440.3-1885.7-515-2814.3-204.8c-271.9,90-589.6,239.3-807.9,382.9l-158.9,101.4L5433.3-316.6L7993,2243l103.4-157C8153.8,1999.8,8245.7,1835.2,8301.2,1718.4z"/></g></g>
</svg>