<?xml version="1.0" encoding="utf-8"?>
<!-- Svg Vector Icons : http://www.onlinewebfonts.com/icon -->
<!DOCTYPE svg PUBLIC "-//W3C//DTD SVG 1.1//EN" "http://www.w3.org/Graphics/SVG/1.1/DTD/svg11.dtd">
<svg version="1.1" xmlns="http://www.w3.org/2000/svg" xmlns:xlink="http://www.w3.org/1999/xlink" x="0px" y="0px" viewBox="0 0 1000 1000" enable-background="new 0 0 1000 1000" xml:space="preserve">
<metadata> Svg Vector Icons : http://www.onlinewebfonts.com/icon </metadata>
<g><g transform="translate(0.000000,512.000000) scale(0.100000,-0.100000)"><path d="M4530.1,5007.9C3375.4,4889,2341.7,4400,1530.4,3588.6C751.6,2809.9,287.5,1860.5,124.4,723.1c-32.6-226.3-32.6-982,0-1208.3c163-1137.4,629.1-2086.8,1405.9-2865.5c776.8-776.8,1730-1244.8,2865.5-1405.9c226.3-32.6,982-32.6,1208.3,0c939.8,134.3,1779.9,491,2474.2,1053c987.8,797.9,1611.1,1916.1,1797.2,3218.4c32.6,226.3,32.6,982,0,1208.3c-161.1,1135.5-629.1,2088.7-1405.9,2865.5c-759.5,759.5-1687.8,1223.7-2779.2,1392.5C5448.8,5017.5,4775.6,5034.8,4530.1,5007.9z M5585,3753.6c792.1-138.1,1463.4-483.3,2013.9-1035.7c594.6-592.7,955.2-1340.7,1054.9-2176.9c197.5-1668.6-782.5-3274-2359.1-3864.8c-1287-481.4-2694.8-220.6-3742,694.3c-335.6,293.5-623.3,673.2-842,1108.6C1445.9-989.6,1317.4-456.4,1317.4,119c0,575.4,128.5,1108.6,393.2,1639.9c283.9,567.7,654,999.3,1181.5,1375.2c211,151.5,682.8,391.3,928.3,473.7c209.1,71,563.9,149.6,780.6,172.6C4821.6,3805.4,5375.9,3790,5585,3753.6z"/><path d="M4568.4,3160.9c-78.6-34.5-159.2-132.3-172.6-209.1c-5.7-34.5-7.7-916.8-5.7-1964c5.7-1887.3,5.7-1902.7,46-1954.4c97.8-130.4,101.7-132.3,563.9-132.3c462.3,0,466.1,1.9,563.9,132.3c40.3,51.8,40.3,63.3,40.3,2006.2c0,1942.9,0,1954.4-40.3,2006.2c-95.9,128.5-105.5,132.3-540.9,136.2C4721.9,3185.9,4612.6,3182,4568.4,3160.9z"/><path d="M4568.4-1749.2c-78.6-34.5-159.2-132.3-172.6-209c-7.7-34.6-9.6-226.3-5.7-429.6c5.7-402.8,9.6-418.1,138.1-512.1c49.9-38.4,78.6-40.3,471.8-40.3c393.2,0,422,1.9,471.8,40.3c130.4,97.8,132.3,101.7,132.3,563.9c0,393.2-1.9,422-40.3,471.8c-95.9,128.5-105.5,132.3-540.9,136.2C4721.9-1724.2,4612.6-1728,4568.4-1749.2z"/></g></g>
</svg>