<?xml version="1.0" encoding="utf-8"?>
<!-- Svg Vector Icons : http://www.onlinewebfonts.com/icon -->
<!DOCTYPE svg PUBLIC "-//W3C//DTD SVG 1.1//EN" "http://www.w3.org/Graphics/SVG/1.1/DTD/svg11.dtd">
<svg version="1.1" xmlns="http://www.w3.org/2000/svg" xmlns:xlink="http://www.w3.org/1999/xlink" x="0px" y="0px" viewBox="0 0 1000 1000" enable-background="new 0 0 1000 1000" xml:space="preserve">
<metadata> Svg Vector Icons : http://www.onlinewebfonts.com/icon </metadata>
<g><g transform="translate(0.000000,512.000000) scale(0.100000,-0.100000)"><path d="M4942.9,5007.1c-17.2-7.7-47.9-26.8-69-42.1c-42.1-30.7-2036.1-2562.9-2147.2-2727.6c-74.7-107.3-78.5-166.7-21.1-222.2c40.2-36.4,63.2-38.3,861.9-38.3h819.8V128.5v-1848.4h-819.8h-821.7l-40.2-44.1c-55.6-57.5-53.6-126.4,3.8-210.7c24.9-36.4,517.2-674.2,1091.8-1417.4c754.7-973,1063.1-1356.1,1103.3-1373.4c72.8-30.6,168.6-11.5,231.8,44.1c47.9,38.3,2057.2,2603.1,2156.8,2750.6c55.6,82.4,55.6,157.1,0,208.8c-44.1,42.1-51.7,42.1-896.4,46l-850.5,5.7V128.5v1838.8l856.2,9.6c777.7,9.6,860,13.4,896.4,42.1c47.9,42.1,47.9,103.4,0,183.9c-21.1,34.5-511.4,672.3-1089.9,1417.4C5563.5,4453.6,5136.4,4986,5105.7,4999.5C5052.1,5024.4,4988.9,5026.3,4942.9,5007.1z"/></g></g>
</svg>