<?xml version="1.0" encoding="utf-8"?>
<!-- Svg Vector Icons : http://www.onlinewebfonts.com/icon -->
<!DOCTYPE svg PUBLIC "-//W3C//DTD SVG 1.1//EN" "http://www.w3.org/Graphics/SVG/1.1/DTD/svg11.dtd">
<svg version="1.1" xmlns="http://www.w3.org/2000/svg" xmlns:xlink="http://www.w3.org/1999/xlink" x="0px" y="0px" viewBox="0 0 1000 1000" enable-background="new 0 0 1000 1000" xml:space="preserve">
<metadata> Svg Vector Icons : http://www.onlinewebfonts.com/icon </metadata>
<g><g transform="translate(0.000000,398.000000) scale(0.100000,-0.100000)"><path d="M4684.3,2778.3c-30.6-3.8-139.7-17.2-239.2-28.7c-424.8-47.8-996.8-233.4-1450.3-466.9c-505.1-262.1-916.5-572.1-1381.4-1040.8C1058.6,683.2,677.8,139.9,279.8-659.9L100-1019.6l160.7-310c382.7-746.2,840-1373.8,1414-1940.1c671.6-665.8,1354.6-1100.2,2129.5-1354.6c1037-342.5,2060.7-244.9,3103.4,296.6c528.1,273.6,924.1,572.1,1433,1079.1c577.8,577.8,998.8,1151.8,1442.6,1965l116.7,212.4l-166.4,306.1C8914.6,756,7936.9,1789.1,6789,2351.7c-432.4,210.5-759.6,317.6-1195.8,390.3C5420.9,2770.7,4806.8,2795.5,4684.3,2778.3z M5338.7,1678.2C6494.3,1523.2,7659.5,608.6,8533.9-834l137.7-227.7l-40.2-68.9c-124.4-212.4-422.8-637.1-602.7-862.9c-725.2-905-1591.9-1494.3-2481.6-1687.5c-279.4-61.2-815.1-61.2-1094.4,0c-981.5,212.4-1947.8,916.5-2699.7,1966.9c-149.2,208.5-310,457.3-407.5,633.3l-44,78.4l130.1,227.7C1887,23.1,2478.3,677.5,3134.5,1111.8c432.4,287,1004.5,505.1,1482.8,566.3C4799.1,1701.1,5166.5,1703,5338.7,1678.2z"/><path d="M4663.3,579.9C4060.6,449.8,3578.4-28.5,3431.1-638.9c-51.7-216.2-51.7-541.5,0-757.7c116.7-484.1,436.2-880.1,880.1-1092.5c256.4-122.5,367.4-145.4,698.4-143.5c269.8,0,298.5,3.8,468.8,61.2c530,176,928,600.8,1073.4,1144.2c57.4,212.4,59.3,604.6,1.9,813.2c-109.1,403.7-338.7,729-671.6,950.9c-191.3,128.2-355.9,199-562.5,241.1C5145.4,614.4,4825.9,616.3,4663.3,579.9z"/></g></g>
</svg>