<?xml version="1.0" encoding="utf-8"?>
<!-- Svg Vector Icons : http://www.onlinewebfonts.com/icon -->
<!DOCTYPE svg PUBLIC "-//W3C//DTD SVG 1.1//EN" "http://www.w3.org/Graphics/SVG/1.1/DTD/svg11.dtd">
<svg version="1.1" xmlns="http://www.w3.org/2000/svg" xmlns:xlink="http://www.w3.org/1999/xlink" x="0px" y="0px" viewBox="0 0 1000 1000" enable-background="new 0 0 1000 1000" xml:space="preserve">
<metadata> Svg Vector Icons : http://www.onlinewebfonts.com/icon </metadata>
<g><g transform="translate(0.000000,341.000000) scale(0.100000,-0.100000)"><path d="M4636.5,1658.7c-474.5-53.6-759.6-111-1098.2-220c-838-267.9-1588.1-730.9-2240.5-1385.2C892.1-352.2,574.5-775,256.9-1329.9L100-1603.5l118.6-195.2c459.2-750,947.1-1318.3,1557.4-1813.8c790.2-642.9,1666.5-1044.7,2602.1-1195.8c292.7-47.8,929.9-47.8,1234.1-1.9c734.7,112.9,1452.2,396.1,2093.2,824.7c413.3,275.5,625.6,451.5,1008.3,832.3c384.6,384.6,652.5,711.8,966.2,1182.4l220,329.1l-164.5,260.2C9062-315.8,8306.2,451.4,7401.2,987.2c-533.8,317.6-1161.4,543.4-1760.3,635.2C5459.2,1651.1,4780,1676,4636.5,1658.7z M5551.1,533.7c489.8-91.8,933.7-264,1391-541.5c530-323.3,1109.7-866.7,1546-1448.4l128.2-168.4l-63.1-86.1c-229.6-321.4-685-797.8-1008.3-1061.9c-551-443.9-1234.1-786.4-1827.2-912.6c-866.7-185.6-1754.5-30.6-2605.9,457.3c-422.8,243-776.8,524.2-1155.6,912.7c-221.9,229.6-591.2,688.8-591.2,734.7c0,61.2,371.2,539.6,619.9,795.9c736.6,767.2,1678,1247.5,2642.3,1352.7C4789.5,585.4,5396.1,562.4,5551.1,533.7z"/><path d="M4778.1,24.8c-392.2-55.5-803.6-287-1044.7-589.3c-124.4-153.1-252.6-401.8-306.1-587.4c-36.3-130.1-44-197.1-44-440.1c0-338.7,36.4-493.6,174.1-753.8C3848.2-2895,4382-3216.4,5000-3216.4c780.6,0,1444.5,541.5,1597.6,1306.8c40.2,193.2,30.6,556.8-19.1,738.5c-47.8,176-187.5,449.6-308,598.9c-204.7,258.3-533.8,472.6-855.2,556.8C5243,28.6,4944.5,47.7,4778.1,24.8z M5166.5-1075.4c124.4-36.4,265.9-162.6,323.3-287c57.4-122.5,63.1-325.3,9.6-442c-51.7-112.9-147.3-212.4-258.3-271.7c-80.4-42.1-122.4-49.7-241.1-49.7c-118.6,0-160.7,7.6-241.1,49.7c-191.3,101.4-292.7,267.9-294.6,484.1c0,170.3,55.5,296.6,177.9,403.7C4789.5-1058.2,4973.2-1018,5166.5-1075.4z"/></g></g>
</svg>