<?xml version="1.0" encoding="utf-8"?>
<!-- Svg Vector Icons : http://www.onlinewebfonts.com/icon -->
<!DOCTYPE svg PUBLIC "-//W3C//DTD SVG 1.1//EN" "http://www.w3.org/Graphics/SVG/1.1/DTD/svg11.dtd">
<svg version="1.1" xmlns="http://www.w3.org/2000/svg" xmlns:xlink="http://www.w3.org/1999/xlink" x="0px" y="0px" viewBox="0 0 1000 1000" enable-background="new 0 0 1000 1000" xml:space="preserve">
<metadata> Svg Vector Icons : http://www.onlinewebfonts.com/icon </metadata>
<g><g transform="translate(0.000000,409.000000) scale(0.100000,-0.100000)"><path d="M1108.1,2995.7c-26.8-7.7-74.8-28.8-105.5-44.1c-82.4-44.1-805.4-803.4-857.1-901.2c-59.4-115.1-61.4-335.6-1.9-446.8c23-44.1,567.6-628.9,1213.8-1302L2529-921.8l-149.6-155.3c-80.5-86.3-596.3-625.1-1146.7-1198.5C559.7-2979.3,218.4-3347.5,183.9-3412.6c-44.1-78.6-53.7-122.7-53.7-226.3c0-205.2,38.3-262.7,502.4-734.4c435.3-441,458.3-456.4,640.5-456.4c186,0,149.6-32.6,1946.3,1838.9C4316.2-1846,4912.5-1211.3,4943.2-1151.9c65.2,120.8,67.1,339.4,5.7,454.5c-53.7,99.7-3397.8,3591.5-3497.6,3649C1370.9,3001.5,1192.5,3024.5,1108.1,2995.7z"/><path d="M5949.9,2968.9c-72.9-34.5-186-141.9-473.6-441c-209-218.6-398.8-433.4-421.9-477.5c-59.4-113.1-61.4-335.6-1.9-446.8c21.1-42.2,567.6-627,1211.9-1300.1L7437.9-921.8l-149.6-155.3c-80.5-86.3-596.3-625.1-1146.7-1198.5c-673-703.7-1014.4-1071.9-1048.9-1137.1c-44.1-78.6-53.7-122.7-53.7-226.3c0-205.2,38.3-260.8,502.4-732.5c435.3-442.9,458.3-458.3,640.4-458.3c186,0,149.6-32.6,1946.3,1838.9c1093,1140.9,1693.2,1779.5,1723.9,1838.9c38.3,72.9,47.9,117,47.9,233.9c0,120.8-7.7,157.2-51.8,230.1c-67.1,115-3390.2,3581.9-3487.9,3641.4C6245.2,3022.6,6072.6,3028.3,5949.9,2968.9z"/></g></g>
</svg>