<?xml version="1.0" encoding="utf-8"?>
<!-- Svg Vector Icons : http://www.onlinewebfonts.com/icon -->
<!DOCTYPE svg PUBLIC "-//W3C//DTD SVG 1.1//EN" "http://www.w3.org/Graphics/SVG/1.1/DTD/svg11.dtd">
<svg version="1.1" xmlns="http://www.w3.org/2000/svg" xmlns:xlink="http://www.w3.org/1999/xlink" x="0px" y="0px" viewBox="0 0 1000 1000" enable-background="new 0 0 1000 1000" xml:space="preserve">
<metadata> Svg Vector Icons : http://www.onlinewebfonts.com/icon </metadata>
<g><g transform="translate(0.000000,512.000000) scale(0.100000,-0.100000)"><path d="M519.2,4990.7c-189.7-67.1-329.6-208.9-390.9-400.5C99.6,4505.9,97.6,4088.1,101.5,79l5.7-4417.3l47.9-95.8c59.4-122.7,174.4-237.6,297-297L548-4779h4455.6h4455.6l95.8,47.9c122.7,59.4,237.6,174.4,297,297l47.9,95.8V117.3V4573l-47.9,95.8c-59.4,122.6-174.4,237.6-297,297l-95.8,47.9l-4426.9,3.8C1044.3,5021.4,597.8,5019.5,519.2,4990.7z M8683.1,117.3v-3679.5H5003.6H1324.1V117.3v3679.5h3679.5h3679.5V117.3z"/><path d="M2541,2535.8c-90.1-55.6-528.9-519.3-557.7-590.3c-38.3-93.9-32.6-199.3,17.2-277.9c23-38.3,356.5-398.6,741.6-803c385.2-402.4,697.6-737.8,693.7-743.6c-1.9-7.7-329.6-352.6-724.4-768.5c-402.4-419.7-732.1-783.8-747.4-818.3c-34.5-80.5-34.5-164.8,0-243.4c30.7-72.8,492.5-559.6,569.2-597.9c67.1-36.4,153.3-36.4,233.8-1.9c70.9,28.8,2175.1,2223,2211.5,2305.4c34.5,78.6,30.7,199.3-7.7,268.3c-51.7,93.9-2111.9,2242.2-2182.8,2276.7C2705.9,2579.9,2610,2578,2541,2535.8z"/><path d="M5607.3,2535.8c-90.1-55.6-528.9-519.3-557.7-590.3c-38.3-93.9-32.6-199.3,17.3-277.9c23-38.3,356.4-398.6,741.7-803c385.2-402.4,697.6-737.8,693.7-743.6c-1.9-7.7-329.6-352.6-724.4-768.5c-402.4-419.7-732.1-783.8-747.4-818.3c-34.5-80.5-34.5-164.8,0-243.4c30.7-72.8,492.5-559.6,569.2-597.9c67.1-36.4,153.3-36.4,233.8-1.9c70.9,28.8,2175.1,2223,2211.5,2305.4c34.5,78.6,30.7,199.3-7.7,268.3c-51.7,93.9-2111.9,2242.2-2182.8,2276.7C5772.1,2579.9,5676.3,2578,5607.3,2535.8z"/></g></g>
</svg>