<?xml version="1.0" encoding="utf-8"?>
<!-- Svg Vector Icons : http://www.onlinewebfonts.com/icon -->
<!DOCTYPE svg PUBLIC "-//W3C//DTD SVG 1.1//EN" "http://www.w3.org/Graphics/SVG/1.1/DTD/svg11.dtd">
<svg version="1.1" xmlns="http://www.w3.org/2000/svg" xmlns:xlink="http://www.w3.org/1999/xlink" x="0px" y="0px" viewBox="0 0 1000 1000" enable-background="new 0 0 1000 1000" xml:space="preserve">
<metadata> Svg Vector Icons : http://www.onlinewebfonts.com/icon </metadata>
<g><g transform="translate(0.000000,512.000000) scale(0.100000,-0.100000)"><path d="M9033.5,4992.5c-1156.7-247-3866.4-1744.6-5846.5-3232.5C1806.3,723.9,984.7-155.1,835.4-758.3c-40.2-158.9-24.9-383,38.3-582.1c42.1-134.1,134-317.9,157-317.9c7.7,0,482.6,329.4,1059,733.4c3583,2514.4,5727.8,4013.9,5791,4052.2c128.3,78.5,114.9,32.6-38.3-116.8c-294.9-287.3-6084-5517.1-6903.6-6237.2L100-3962.1V-4372v-407.9h406h407.9l817.7,817.7l815.8,815.8l122.6-78.5c178.1-114.9,425.1-227.9,599.4-271.9c199.2-51.7,511.3-70.9,633.9-40.2c656.8,164.7,1993.5,1514.8,3477.7,3506.4c1307.9,1756.1,2305.7,3443.2,2489.5,4211.1C10010.2,4766.5,9642.5,5124.6,9033.5,4992.5z"/></g></g>
</svg>