<?xml version="1.0" encoding="utf-8"?>
<!-- Svg Vector Icons : http://www.onlinewebfonts.com/icon -->
<!DOCTYPE svg PUBLIC "-//W3C//DTD SVG 1.1//EN" "http://www.w3.org/Graphics/SVG/1.1/DTD/svg11.dtd">
<svg version="1.1" xmlns="http://www.w3.org/2000/svg" xmlns:xlink="http://www.w3.org/1999/xlink" x="0px" y="0px" viewBox="0 0 1000 1000" enable-background="new 0 0 1000 1000" xml:space="preserve">
<metadata> Svg Vector Icons : http://www.onlinewebfonts.com/icon </metadata>
<g><g transform="translate(0.000000,512.000000) scale(0.100000,-0.100000)"><path d="M7720.3,5010.5c-36.4-3.8-149.4-17.2-248.9-26.8c-938.3-103.4-1913-540-2809.2-1260C2952.1,2350.6,1381.8-246.1,319-3451.7c-174.3-526.6-226-758.3-218.3-976.6c7.7-172.3,32.5-226,139.8-304.5c74.7-55.5,254.7-55.5,329.4,0c116.8,86.2,130.2,126.4,141.7,377.2c11.5,226,15.3,243.2,111.1,482.6c212.6,532.3,499.8,1068.5,877.1,1637.3c383,576.4,760.2,1030.2,1135.6,1365.4C3005.7-717.2,3291-495,3315.9-493.1c5.7,0,49.8-53.6,95.7-118.7C3630-910.6,4013-1104,4390.2-1105.9c338.9,0,746.8,199.2,953.6,467.3c172.4,222.1,281.5,553.4,264.3,802.3c-7.7,116.8,3.8,157,32.6,111.1c5.7-9.6,86.2-44,180-78.5C6512-54.6,7276,372.5,7425.4,1096.3c15.3,78.5,26.8,193.4,23,254.7c-3.8,91.9,0,107.2,23,97.7c15.3-5.7,93.8-28.7,172.3-49.8c193.4-53.6,633.8-59.4,831.1-9.6c683.6,170.4,1198.8,677.9,1373,1352c21.1,80.4,44.1,241.3,49.8,356.2c44,869.4-528.5,1641.1-1390.3,1870.9c-107.2,28.7-220.2,40.2-432.8,44C7917.6,5016.2,7756.7,5014.3,7720.3,5010.5z"/></g></g>
</svg>