<?xml version="1.0" encoding="utf-8"?>
<!-- Svg Vector Icons : http://www.onlinewebfonts.com/icon -->
<!DOCTYPE svg PUBLIC "-//W3C//DTD SVG 1.1//EN" "http://www.w3.org/Graphics/SVG/1.1/DTD/svg11.dtd">
<svg version="1.1" xmlns="http://www.w3.org/2000/svg" xmlns:xlink="http://www.w3.org/1999/xlink" x="0px" y="0px" viewBox="0 0 1000 1000" enable-background="new 0 0 1000 1000" xml:space="preserve">
<metadata> Svg Vector Icons : http://www.onlinewebfonts.com/icon </metadata>
<g><g transform="translate(0.000000,448.000000) scale(0.100000,-0.100000)"><path d="M519.2,3737.5c-189.7-67.1-329.6-208.9-390.9-400.5c-28.7-84.3-30.7-450.4-26.8-3898l5.7-3804l47.9-95.8c59.4-122.7,174.4-237.6,297-297l95.8-47.9h4455.6h4455.6l95.8,47.9c122.7,59.4,237.6,174.4,297,297l47.9,95.8v3842.4v3842.4l-47.9,95.8c-59.4,122.6-174.4,237.6-297,297l-95.8,47.9l-4426.9,3.8C1044.3,3768.2,597.8,3766.2,519.2,3737.5z M2550.6,1930.3v-613.2h-613.2h-613.2v613.2v613.2h613.2h613.2V1930.3z M6230.1-522.7v-3066.2H5003.6H3777.1v3066.2v3066.2h1226.5h1226.5V-522.7z M8683.1,1930.3v-613.2h-613.2h-613.2v613.2v613.2h613.2h613.2V1930.3z M2550.6-522.7v-613.3h-613.2h-613.2v613.3V90.6h613.2h613.2V-522.7z M8683.1-522.7v-613.3h-613.2h-613.2v613.3V90.6h613.2h613.2V-522.7z M2550.6-2975.6v-613.2h-613.2h-613.2v613.2v613.2h613.2h613.2V-2975.6z M8683.1-2975.6v-613.2h-613.2h-613.2v613.2v613.2h613.2h613.2V-2975.6z"/></g></g>
</svg>