<?xml version="1.0" encoding="utf-8"?>
<!-- Svg Vector Icons : http://www.onlinewebfonts.com/icon -->
<!DOCTYPE svg PUBLIC "-//W3C//DTD SVG 1.1//EN" "http://www.w3.org/Graphics/SVG/1.1/DTD/svg11.dtd">
<svg version="1.1" xmlns="http://www.w3.org/2000/svg" xmlns:xlink="http://www.w3.org/1999/xlink" x="0px" y="0px" viewBox="0 0 1000 1000" enable-background="new 0 0 1000 1000" xml:space="preserve">
<metadata> Svg Vector Icons : http://www.onlinewebfonts.com/icon </metadata>
<g><g transform="translate(0.000000,512.000000) scale(0.100000,-0.100000)"><path d="M519.2,4992.8c-191.6-70.9-329.6-210.8-390.9-402.4c-28.7-84.3-30.7-513.6-26.8-4639.6l5.7-4545.7l40.2-51.7c97.7-130.3,101.6-132.2,563.4-132.2c461.9,0,465.7,1.9,563.4,132.2c40.2,51.7,40.2,72.8,46,1489l3.8,1435.4h1531.2h1533.1l5.8-389c5.7-366,7.7-392.9,53.7-482.9c59.4-122.7,174.4-237.6,297-297l95.8-47.9H7150h2309.2l95.8,47.9c122.7,59.4,237.6,174.4,297,297l47.9,95.8V117.5v2615.9l-47.9,95.8c-59.4,122.7-174.4,237.6-297,297l-95.8,47.9l-1920.2,5.7l-1920.2,3.8l-5.7,389c-5.8,366-7.7,392.9-53.7,482.9c-59.4,122.6-174.4,237.6-297,297l-95.8,47.9l-1918.3,5.7l-1920.2,3.8l-13.4,90.1c-28.7,199.3-162.9,377.5-345,463.8C845,5023.5,640,5036.9,519.2,4992.8z M4394.2,2668.3c5.7-486.8,7.7-519.3,46-569.2c21.1-28.7,63.2-70.9,92-92c51.7-40.2,65.2-40.2,2102.3-46l2048.6-3.8V117.5v-1839.7H7150H5618.8l-5.7,515.5c-5.8,486.8-7.7,519.3-46,569.2c-21.1,28.7-63.2,70.9-92,92c-51.7,40.2-65.1,40.2-2102.3,46l-2048.6,3.8V1344v1839.7h1533.1h1531.2L4394.2,2668.3z"/></g></g>
</svg>