<?xml version="1.0" encoding="utf-8"?>
<!-- Svg Vector Icons : http://www.onlinewebfonts.com/icon -->
<!DOCTYPE svg PUBLIC "-//W3C//DTD SVG 1.1//EN" "http://www.w3.org/Graphics/SVG/1.1/DTD/svg11.dtd">
<svg version="1.1" xmlns="http://www.w3.org/2000/svg" xmlns:xlink="http://www.w3.org/1999/xlink" x="0px" y="0px" viewBox="0 0 1000 1000" enable-background="new 0 0 1000 1000" xml:space="preserve">
<metadata> Svg Vector Icons : http://www.onlinewebfonts.com/icon </metadata>
<g><g transform="translate(0.000000,512.000000) scale(0.100000,-0.100000)"><path d="M518.9,4989.3c-191.5-70.8-329.4-210.6-390.7-402.1c-28.7-84.3-30.6-270-26.8-1750.3l5.7-1656.5l47.9-95.7C214.5,962,329.4,847.1,451.9,787.8l95.8-47.9l693.2-5.7l695.1-5.8l3.8-2659.9c5.7-2652.3,5.7-2659.9,46-2711.6c97.7-130.2,101.5-132.1,563-132.1s465.3,1.9,563,132.1c40.2,51.7,40.2,59.4,46,2711.6l3.8,2659.9l695.1,5.8l693.2,5.7l95.7,47.9c122.6,59.4,237.5,174.3,296.8,296.8l47.9,95.7v1694.8v1694.8l-47.9,95.7c-59.4,122.6-174.3,237.5-296.8,296.8c-137.9,67-379.2,67-517,0c-122.6-59.4-237.5-174.3-296.8-296.8l-47.9-95.7l-5.7-1306l-5.8-1307.9H3468h-304.5l-5.8,1307.9l-5.7,1306l-47.9,95.7c-59.4,122.6-174.3,237.5-296.8,296.8c-137.9,67-379.2,67-517,0c-122.6-59.4-237.5-174.3-296.8-296.8l-47.9-95.7l-5.7-1306l-5.8-1307.9h-304.5h-304.5l-5.8,1307.9l-5.7,1306l-47.9,95.7c-61.3,122.6-176.2,237.5-296.8,294.9C844.5,5019.9,639.6,5033.3,518.9,4989.3z"/><path d="M9385.3,4962.4C8560,4786.3,7884,4192.6,7594.8,3392.2c-126.4-350.4-130.2-388.7-137.9-1327.1c-9.6-940.3,3.8-1124.1,101.5-1434.3c170.4-538.1,536.2-1022.6,997.7-1321.3l120.6-78.5l3.8-1911.2c5.7-1895.8,5.7-1911.2,45.9-1962.9c97.7-130.2,101.5-132.1,563-132.1s465.3,1.9,563,132.1l40.2,51.7l5.7,4686c3.8,4431.3,1.9,4689.8-28.7,4753c-47.9,91.9-145.5,153.2-243.2,151.3C9582.6,4998.8,9475.3,4981.6,9385.3,4962.4z"/></g></g>
</svg>