<?xml version="1.0" encoding="utf-8"?>
<!-- Svg Vector Icons : http://www.onlinewebfonts.com/icon -->
<!DOCTYPE svg PUBLIC "-//W3C//DTD SVG 1.1//EN" "http://www.w3.org/Graphics/SVG/1.1/DTD/svg11.dtd">
<svg version="1.1" xmlns="http://www.w3.org/2000/svg" xmlns:xlink="http://www.w3.org/1999/xlink" x="0px" y="0px" viewBox="0 0 1000 1000" enable-background="new 0 0 1000 1000" xml:space="preserve">
<metadata> Svg Vector Icons : http://www.onlinewebfonts.com/icon </metadata>
<g><g transform="translate(0.000000,408.000000) scale(0.100000,-0.100000)"><path d="M5282.3,2595c-128.3-40.2-224.1-183.9-258.6-385c-9.6-67-19.1-400.3-19.1-739.3V852.1l-2263.9-3.8l-2265.8-5.7l-101.5-46c-116.8-53.6-218.3-160.9-249-268.1c-32.6-105.3-32.6-2790.6,0-2895.9c30.6-107.3,132.1-214.5,249-268.1l101.5-46l2265.8-5.7l2263.9-3.8v-618.6c0-339,9.6-672.3,19.1-739.3c61.3-373.5,325.6-499.9,651.2-312.2c68.9,38.3,1915.3,1461.4,3891.8,2995.5c134.1,105.3,262.4,220.3,287.3,260.5c61.3,99.6,61.3,272,0,371.6c-53.6,86.2-4047,3188.9-4215.6,3275.1C5521.7,2600.7,5372.3,2623.7,5282.3,2595z"/></g></g>
</svg>