<?xml version="1.0" encoding="utf-8"?>
<!-- Svg Vector Icons : http://www.onlinewebfonts.com/icon -->
<!DOCTYPE svg PUBLIC "-//W3C//DTD SVG 1.1//EN" "http://www.w3.org/Graphics/SVG/1.1/DTD/svg11.dtd">
<svg version="1.1" xmlns="http://www.w3.org/2000/svg" xmlns:xlink="http://www.w3.org/1999/xlink" x="0px" y="0px" viewBox="0 0 1000 1000" enable-background="new 0 0 1000 1000" xml:space="preserve">
<metadata> Svg Vector Icons : http://www.onlinewebfonts.com/icon </metadata>
<g><g transform="translate(0.000000,455.000000) scale(0.100000,-0.100000)"><path d="M1609.8,3880.1c-157.1-30.7-310.4-111.1-365.9-189.7l-42.2-59.4l-5.7-3674.8l-3.8-3672.9H715c-465.6,0-567.1-11.5-599.7-63.2c-7.7-13.4-15.3-160.9-15.3-331.5c0-306.6,0-306.6,55.6-394.7c61.3-95.8,222.3-235.7,321.9-275.9c51.7-23,659.1-26.8,3565.5-26.8h3502.3l44.1,42.2c24.9,21.1,63.2,80.5,86.2,128.4c34.5,78.5,40.2,130.3,46,477.1c5.7,285.5,1.9,396.6-15.3,415.8c-19.2,24.9-111.1,28.7-548,28.7h-525v929.2c0,779.8,3.8,929.2,26.8,929.2c13.4,0,93.9,23,176.3,49.8c837.3,277.8,1573,1003.9,1845.1,1820.1c113,339.1,120.7,408.1,130.3,1086.3l9.6,626.5h300.8c342.9,0,450.2,23,580.5,120.7c51.7,38.3,103.4,105.4,139.9,176.3c49.8,95.8,57.5,134.1,57.5,256.7c-1.9,176.3-59.4,304.6-183.9,411.9c-147.5,126.5-178.2,130.3-959.9,120.7c-525-3.8-712.7-13.4-768.3-32.6c-107.3-38.3-220.3-143.7-243.3-226.1c-11.5-44.1-19.2-415.8-19.2-977.1c0-994.4-5.7-1071-116.9-1337.3C7503.2-16.9,7290.5-290.9,7051-484.4c-86.2-70.9-373.6-243.3-402.3-243.3c-9.6,0-15.3,982.9-15.3,2184.2c0,1802.9-3.8,2195.7-26.8,2247.4c-36.4,90.1-128.4,160.9-241.4,183.9C6209.9,3920.3,1778.4,3912.7,1609.8,3880.1z M5541.2,2002.5v-814.3H3912.7H2284.2v814.3v814.3h1628.5h1628.5V2002.5z M5541.2-1810.3v-1906.3H3912.7H2284.2v1906.3V96.1h1628.5h1628.5V-1810.3z"/></g></g>
</svg>