<?xml version="1.0" encoding="utf-8"?>
<!-- Svg Vector Icons : http://www.onlinewebfonts.com/icon -->
<!DOCTYPE svg PUBLIC "-//W3C//DTD SVG 1.1//EN" "http://www.w3.org/Graphics/SVG/1.1/DTD/svg11.dtd">
<svg version="1.1" xmlns="http://www.w3.org/2000/svg" xmlns:xlink="http://www.w3.org/1999/xlink" x="0px" y="0px" viewBox="0 0 1000 1000" enable-background="new 0 0 1000 1000" xml:space="preserve">
<metadata> Svg Vector Icons : http://www.onlinewebfonts.com/icon </metadata>
<g><g transform="translate(0.000000,512.000000) scale(0.100000,-0.100000)"><path d="M4530.1,5007.9C3375.4,4889,2341.7,4400,1530.4,3588.6C751.6,2809.9,287.5,1860.5,124.4,723.1c-32.6-226.3-32.6-982,0-1208.3c163-1137.4,629.1-2086.8,1405.9-2865.5c776.8-776.8,1730-1244.8,2865.5-1405.9c226.3-32.6,982-32.6,1208.3,0c939.8,134.3,1779.9,491,2474.2,1053c987.8,797.9,1611.1,1916.1,1797.2,3218.4c32.6,226.3,32.6,982,0,1208.3c-161.1,1135.5-629.1,2088.7-1405.9,2865.5c-759.5,759.5-1687.8,1223.7-2779.2,1392.5C5448.8,5017.5,4775.6,5034.8,4530.1,5007.9z M4390.1,3385.3c5.7-337.6,9.6-366.3,53.7-456.5c59.5-122.7,174.5-237.8,297.3-297.3c138.1-67.1,379.8-67.1,517.9,0c122.8,59.5,237.8,174.5,297.3,297.3c44.1,90.2,47.9,118.9,53.7,456.5l7.7,360.6l59.5-11.5c471.8-94,932.2-276.2,1292.7-512.1l159.2-103.6l-220.6-218.7c-283.9-283.9-343.3-387.4-345.2-604.2c0-182.2,53.7-318.4,174.5-439.2c118.9-117,257-174.5,429.6-174.5c218.7,0,335.7,65.2,613.8,343.3l218.7,222.5l103.6-159.2c235.9-360.6,418.1-820.9,512.1-1292.7l11.5-59.5l-360.6-7.7c-337.6-5.7-366.3-9.6-456.5-53.7c-122.8-59.5-237.8-174.5-297.3-297.3c-67.1-138.1-67.1-379.8,0-517.9c59.5-122.8,174.5-237.8,297.3-297.3c90.1-44.1,118.9-47.9,456.5-53.7c197.5-3.8,358.7-9.6,358.7-13.4c0-34.5-69-320.3-107.4-446.9l-47.9-157.3h-1427h-1427l-5.8,1003.1l-5.8,1001.2l-47.9,95.9c-59.5,122.7-174.5,237.8-297.3,297.3c-138.1,67.1-379.8,67.1-517.9,0c-122.7-59.5-237.8-174.5-297.3-297.3l-48-95.9l-5.7-1001.2l-5.8-1003.1h-1427h-1427l-47.9,159.2C1444-824.7,1375-538.9,1375-504.4c0,3.8,161.1,9.6,360.6,13.4c335.7,5.7,364.4,9.6,454.6,53.7c122.8,59.5,237.8,174.5,297.3,297.3c67.1,138.1,67.1,379.8,0,517.9c-59.5,122.7-174.5,237.8-297.3,297.3c-90.1,44.1-118.9,47.9-456.5,53.7l-360.6,7.7l11.5,59.5c67.1,337.6,163,627.2,306.9,924.5c99.7,207.1,308.8,548.5,333.7,544.7c5.8,0,94-95.9,193.7-211c203.3-232.1,305-310.7,458.4-356.8c274.3-78.6,581.2,67.1,709.7,339.5c42.2,90.1,49.9,132.3,49.9,278.1c0,241.7-42.2,324.1-303,600.3c-113.2,118.9-205.2,224.4-205.2,234c0,49.9,546.6,333.7,853.5,441.1c149.6,53.7,512.1,147.7,579.2,151.5C4376.6,3744,4384.3,3644.3,4390.1,3385.3z M7677.5-2397.4c-95.9-126.6-429.6-404.7-682.8-571.6c-577.3-377.9-1302.3-594.6-1994.7-594.6c-717.3,0-1465.3,232.1-2056.1,636.8c-218.6,149.6-565.8,445-631,535.1l-38.4,55.6H5000h2725.5L7677.5-2397.4z"/></g></g>
</svg>