<?xml version="1.0" encoding="utf-8"?>
<!-- Svg Vector Icons : http://www.onlinewebfonts.com/icon -->
<!DOCTYPE svg PUBLIC "-//W3C//DTD SVG 1.1//EN" "http://www.w3.org/Graphics/SVG/1.1/DTD/svg11.dtd">
<svg version="1.1" xmlns="http://www.w3.org/2000/svg" xmlns:xlink="http://www.w3.org/1999/xlink" x="0px" y="0px" viewBox="0 0 1000 1000" enable-background="new 0 0 1000 1000" xml:space="preserve">
<metadata> Svg Vector Icons : http://www.onlinewebfonts.com/icon </metadata>
<g><g transform="translate(0.000000,512.000000) scale(0.100000,-0.100000)"><path d="M3542.9,4999.9c-335.5-65.2-623.1-210.9-866.6-441c-335.5-316.3-523.4-711.3-554.1-1169.5c-24.9-377.7,103.5-805.2,337.4-1113.9c53.7-70.9,95.9-130.4,95.9-136.1c0-3.8-381.5-7.7-849.3-7.7c-956.7,0-958.6,0-1115.8-138c-47.9-42.2-111.2-122.7-140-176.4l-51.8-97.8v-3038.9v-3038.9l40.3-88.2c59.4-126.6,149.5-218.6,272.2-279.9l109.3-53.7H5000h4179.6l109.3,53.7c122.7,61.4,212.8,153.4,272.2,279.9l40.3,88.2v3038.9v3038.9l-51.8,97.8c-53.7,101.6-163,212.8-268.4,270.3c-57.5,30.7-138,34.5-949,40.3c-488.9,1.9-887.7,9.6-887.7,13.4c0,3.8,42.2,63.3,95.9,134.2c362.4,479.3,439.1,1127.3,201.3,1698.7c-155.3,371.9-506.2,730.5-882,901.1c-237.7,107.4-412.2,141.9-719,140c-243.5-1.9-299.1-7.7-446.7-51.8c-210.9-65.2-395-157.2-557.9-281.8c-70.9-51.8-132.3-95.9-136.1-95.9s-67.1,44.1-138,99.7c-163,122.7-389.2,232-590.5,285.7C4075.9,5021,3728.9,5036.4,3542.9,4999.9z M4256.1,3838.1c153.4-69,159.1-93.9,159.1-636.5v-475.5h-473.6c-442.9,0-479.3,1.9-538.7,38.3c-115,70.9-138.1,157.2-138.1,517.7c0,354.7,13.4,429.5,92,506.2c80.5,74.8,132.3,84.4,492.7,86.3C4131.5,3874.5,4187.1,3870.7,4256.1,3838.1z M6593.2,3826.6c126.5-93.9,132.3-111.2,138-496.6c5.8-318.3,3.8-360.4-32.6-439c-69-159.1-92-164.9-638.4-164.9h-475.5v475.5c0,542.6,5.7,567.5,159.1,638.4c72.9,32.6,117,36.4,439.1,32.6C6508.9,3866.8,6545.3,3863,6593.2,3826.6z M2689.7,118.6v-862.8h-575.2h-575.2v862.8v862.8h575.2h575.2V118.6z M6159.9,118.6v-862.8H5000H3840.1v862.8v862.8H5000h1159.9V118.6z M8460.6,118.6v-862.8h-575.2h-575.2v862.8v862.8h575.2h575.2V118.6z M2689.7-2766.9v-872.3h-575.2h-575.2v872.3v872.4h575.2h575.2V-2766.9z M6150.4-2766.9v-862.8H5000H3849.6l-5.7,843.6c-1.9,464,0,855.1,5.7,868.5c5.8,19.2,247.3,23,1154.2,19.2l1146.5-5.8V-2766.9z M8460.6-2766.9v-872.3h-575.2h-575.2v872.3v872.4h575.2h575.2V-2766.9z"/></g></g>
</svg>