<?xml version="1.0" encoding="utf-8"?>
<!-- Svg Vector Icons : http://www.onlinewebfonts.com/icon -->
<!DOCTYPE svg PUBLIC "-//W3C//DTD SVG 1.1//EN" "http://www.w3.org/Graphics/SVG/1.1/DTD/svg11.dtd">
<svg version="1.1" xmlns="http://www.w3.org/2000/svg" xmlns:xlink="http://www.w3.org/1999/xlink" x="0px" y="0px" viewBox="0 0 1000 1000" enable-background="new 0 0 1000 1000" xml:space="preserve">
<metadata> Svg Vector Icons : http://www.onlinewebfonts.com/icon </metadata>
<g><g transform="translate(0.000000,384.000000) scale(0.100000,-0.100000)"><path d="M1640.5,2480.2c-113-38.3-214.5-109.2-283.5-201.1c-26.8-36.4-308.4-635.9-624.4-1335.1C263.3-92.3,150.3-354.7,129.2-471.6C89-695.7,90.9-4229.7,131.1-4384.9c51.7-199.2,145.6-335.2,285.4-411.8c55.5-30.7,185.8-32.6,1735.4-32.6h1676l126.4,61.3c155.1,76.6,306.5,224.1,375.4,367.8l53.6,107.3l5.7,645.5l5.8,647.4h611h611l5.7-683.8c5.7-657,7.7-689.6,49.8-793c80.4-201.1,216.5-329.5,373.5-352.5c44.1-5.8,804.5-9.6,1689.4-5.8l1609,5.8l126.4,61.3c155.2,76.6,306.5,224.1,375.4,367.8l53.6,107.3v1800.5v1800.5l-55.5,143.7c-44.1,116.8-796.8,1691.3-1231.6,2576.3c-118.8,241.4-212.6,350.5-369.7,427.1l-105.4,51.7l-570.8,5.7c-637.8,7.7-641.7,5.8-695.3-120.7c-38.3-91.9-38.3-883-1.9-973.1c47.9-111.1,69-118.8,392.7-128.3l295-9.6l381.2-907.9c208.8-499.9,381.2-911.8,381.2-915.6c0-1.9-515.3-5.7-1143.5-5.7c-906-1.9-1160.8-7.7-1218.2-26.8c-120.7-44.1-199.2-118.8-266.3-254.8l-63.2-128.3l-5.7-408l-7.7-408h-611h-611v340.9c0,408-17.2,473.1-157.1,626.4c-67,72.8-139.8,126.4-241.3,176.2l-145.6,72.8l-1179.9,9.6l-1181.8,9.6L1870.4,377l383.1,913.7H2535c306.5,0,396.5,19.2,511.4,107.3c111.1,84.3,120.7,120.7,120.7,505.7c0,385-9.6,421.4-120.7,505.7c-130.2,99.6-185.8,107.3-768.1,107.3C1812.9,2514.6,1726.7,2510.8,1640.5,2480.2z M3167.2-2693.5v-919.4h-919.4h-919.4v919.4v919.4h919.4h919.4V-2693.5z M8683.7-2693.5v-919.4h-919.4h-919.4v919.4v919.4h919.4h919.4V-2693.5z"/></g></g>
</svg>