<?xml version="1.0" encoding="utf-8"?>
<!-- Svg Vector Icons : http://www.onlinewebfonts.com/icon -->
<!DOCTYPE svg PUBLIC "-//W3C//DTD SVG 1.1//EN" "http://www.w3.org/Graphics/SVG/1.1/DTD/svg11.dtd">
<svg version="1.1" xmlns="http://www.w3.org/2000/svg" xmlns:xlink="http://www.w3.org/1999/xlink" x="0px" y="0px" viewBox="0 0 1000 1000" enable-background="new 0 0 1000 1000" xml:space="preserve">
<metadata> Svg Vector Icons : http://www.onlinewebfonts.com/icon </metadata>
<g><g transform="translate(0.000000,512.000000) scale(0.100000,-0.100000)"><path d="M4531.6,4999.2c-890.3-86.2-1749.9-421.2-2488.9-972.6c-247-183.8-765.8-702.6-949.6-949.6C120.5,1773.2-157.1,111.4,346.4-1408.8c245.1-742.8,631.8-1372.7,1187-1931.8c963-968.8,2274.5-1485.7,3639.6-1435.9c700.7,26.8,1328.7,181.9,1941.4,478.6c520.8,252.7,886.4,507.4,1292.3,903.7c442.3,430.8,721.8,815.6,989.8,1359.3c520.8,1058.7,637.6,2192.2,350.4,3360c-80.4,323.6-183.8,605-352.3,947.7c-382.9,783.1-961.1,1441.7-1700.1,1931.8C6779.3,4813.5,5622.9,5102.6,4531.6,4999.2z M5031.3,3798.8c91.9-59.4,314-706.5,568.6-1663.8l47.9-178.1h-647.1h-647.1l57.4,216.3c271.9,1022.4,494,1640.8,589.7,1640.8C5006.4,3814.1,5019.8,3806.4,5031.3,3798.8z M3679.6,3540.3c0-3.8-17.2-55.5-38.3-116.8c-57.4-170.4-166.6-559.1-210.6-758.2c-32.5-143.6-134-677.8-134-702.6c0-3.8-331.2-5.7-737.1-5.7s-737.1,5.7-737.1,11.5c0,26.8,277.6,377.2,446.1,562.9c371.4,409.7,758.2,710.3,1181.3,919C3631.8,3538.4,3679.6,3557.6,3679.6,3540.3z M6580.2,3435c342.7-170.4,673.9-419.3,1007.1-754.3c187.6-191.5,471-526.5,557.1-664.3l38.3-59.4h-739h-737.1l-13.4,72.7c-86.2,499.7-195.3,963-304.4,1296.2c-36.4,113-67,210.6-67,214.4C6321.7,3555.6,6409.8,3521.2,6580.2,3435z M3172.3,119v-612.7h-901.8c-819.4,0-903.7,3.8-915.2,30.6c-7.7,17.2-21.1,155.1-30.6,304.4c-17.2,264.2,0,781.1,28.7,857.7c13.4,30.6,74.7,32.5,917.1,32.5h901.8V119z M5791.4,425.3c7.7-168.5,7.7-444.2,0-612.7l-11.5-306.3h-779.2h-779.2L4208.1-195c-5.8,164.6-5.8,440.3,0,612.6l13.4,314h779.2h779.2L5791.4,425.3z M8646,699.1c45.9-114.9,44-1045.3,0-1160.2c-11.5-30.6-86.2-32.5-915.2-32.5h-901.7V119v612.7h901.7C8563.7,731.7,8634.5,729.8,8646,699.1z M3296.7-1724.7c0-24.9,101.5-559.1,134-702.6c47.9-218.3,162.7-620.3,214.4-762c21.1-55.5,34.5-105.3,28.7-111c-30.6-30.6-480.6,197.2-767.7,388.6c-463.3,312.1-800.3,664.4-1053,1102.8l-51.7,90h748.6C2959.8-1719,3296.7-1720.9,3296.7-1724.7z M5628.7-1837.7c-84.2-639.5-237.4-1154.5-440.4-1495.3c-109.1-180-157-243.2-187.6-243.2c-28.7,0-80.4,65.1-178.1,225.9c-187.6,308.3-325.5,739-413.5,1277c-23,137.9-44,271.9-49.8,302.5l-7.7,51.7h647.1h647.1L5628.7-1837.7z M8136.7-1856.8c-120.6-285.3-245.1-436.5-561-685.4c-547.6-428.9-735.2-551.4-1056.8-696.9c-103.4-45.9-189.5-82.3-193.4-78.5c-3.8,3.8,28.7,116.8,70.8,250.8c118.7,382.9,210.6,775.4,296.8,1277l13.4,70.8h744.8h744.8L8136.7-1856.8z"/></g></g>
</svg>