<?xml version="1.0" encoding="utf-8"?>
<!-- Svg Vector Icons : http://www.onlinewebfonts.com/icon -->
<!DOCTYPE svg PUBLIC "-//W3C//DTD SVG 1.1//EN" "http://www.w3.org/Graphics/SVG/1.1/DTD/svg11.dtd">
<svg version="1.1" xmlns="http://www.w3.org/2000/svg" xmlns:xlink="http://www.w3.org/1999/xlink" x="0px" y="0px" viewBox="0 0 1000 1000" enable-background="new 0 0 1000 1000" xml:space="preserve">
<metadata> Svg Vector Icons : http://www.onlinewebfonts.com/icon </metadata>
<g><g transform="translate(0.000000,483.000000) scale(0.100000,-0.100000)"><path d="M4825.8,4426.5c-105.4-32.6-4517.2-3333.3-4613-3450.2C36.5,763.7,71,418.8,287.5,234.9c128.3-111.1,208.8-128.4,576.6-128.4h321.8v-1906.1v-1906.1H883.2c-346.7,0-448.3-21.1-580.5-122.6c-47.9-34.5-111.1-111.1-141.8-166.7c-49.8-90-57.5-122.6-57.5-256.7c0-120.7,9.6-170.5,42.1-231.8c65.1-120.7,126.4-185.8,239.5-247.1l101.5-57.5h4511.5h4511.5l101.5,57.5c319.9,176.3,387,593.9,136,852.5c-137.9,141.8-206.9,160.9-595.8,168.6l-341,7.7v1902.3V102.7l360.1,7.7c298.9,3.8,367.8,11.5,419.6,40.2c314.2,170.5,406.1,569,193.5,827.6c-67.1,80.5-4438.7,3365.9-4561.3,3427.2C5128.4,4451.4,4936.9,4462.9,4825.8,4426.5z M6354.5,2213.9l1344.8-1005.7l-1350.6-5.7c-743.3-1.9-1957.9-1.9-2701.2,0l-1350.6,5.7l1344.8,1009.6c741.4,553.6,1352.5,1005.7,1358.2,1005.7C5005.8,3221.5,5615,2767.5,6354.5,2213.9z M3366-1803.4l3.8-1902.3h-546h-546v1906.1V106.6l542.1-3.8l540.2-5.7L3366-1803.4z M5534.6-1799.6v-1906.1h-536.4h-536.4v1906.1V106.6h536.4h536.4V-1799.6z M7718.5-1799.6v-1906.1h-546h-546V-1813c0,1042.1,5.7,1900.4,13.4,1906.1c5.7,7.7,252.9,13.4,546,13.4h532.6V-1799.6z"/></g></g>
</svg>