<?xml version="1.0" encoding="utf-8"?>
<!-- Svg Vector Icons : http://www.onlinewebfonts.com/icon -->
<!DOCTYPE svg PUBLIC "-//W3C//DTD SVG 1.1//EN" "http://www.w3.org/Graphics/SVG/1.1/DTD/svg11.dtd">
<svg version="1.1" xmlns="http://www.w3.org/2000/svg" xmlns:xlink="http://www.w3.org/1999/xlink" x="0px" y="0px" viewBox="0 0 1000 1000" enable-background="new 0 0 1000 1000" xml:space="preserve">
<metadata> Svg Vector Icons : http://www.onlinewebfonts.com/icon </metadata>
<g><g transform="translate(0.000000,512.000000) scale(0.100000,-0.100000)"><path d="M279,4997c-78.6-34.5-159.1-132.2-172.5-208.9c-5.7-34.5-7.7-2100.5-5.7-4594l5.7-4532.6l47.9-95.8c59.4-122.7,174.4-237.7,297.1-297.1l95.8-47.9h4584.4H9716l51.7,40.2c130.3,97.8,132.2,101.6,132.2,563.5c0,461.9-1.9,465.7-132.2,563.5l-51.7,40.2l-4197.2,5.7l-4195.3,3.8L1319.6,633l-5.7,4197.2l-40.3,51.8c-95.8,128.4-105.4,132.2-540.5,136.1C432.3,5021.9,323,5018,279,4997z"/><path d="M7638.5,3770.4c-78.6-34.5-159.1-132.2-172.5-208.9c-5.8-34.5-7.7-1468.1-5.8-3189.1c5.8-3124,5.8-3127.8,46-3179.5c97.8-130.3,101.6-132.3,563.5-132.3c461.9,0,465.7,1.9,563.5,132.3l40.3,51.7V424.1v3179.5l-40.3,51.7c-95.8,128.4-105.4,132.2-540.5,136.1C7791.8,3795.3,7682.6,3791.4,7638.5,3770.4z"/><path d="M3958.7,2543.8c-78.6-34.5-159.1-132.2-172.5-208.9c-5.7-34.5-7.7-1192.1-5.7-2575.8c5.7-2504.9,5.7-2514.5,46-2566.2c97.7-130.3,101.6-132.3,563.5-132.3s465.7,1.9,563.5,132.3c40.3,51.7,40.3,57.5,40.3,2618c0,2560.5,0,2566.3-40.3,2618c-95.8,128.4-105.4,132.2-540.5,136.1C4112,2568.7,4002.8,2564.9,3958.7,2543.8z"/><path d="M5798.6,1317.2c-78.6-34.5-159.1-132.2-172.5-208.9c-5.7-34.5-7.6-916.1-5.7-1962.5c5.7-1885.9,5.7-1901.2,46-1952.9c97.7-130.3,101.6-132.3,563.4-132.3s465.7,1.9,563.5,132.3c40.3,51.7,40.3,63.2,40.3,2004.7s0,1953-40.3,2004.7c-95.8,128.4-105.4,132.2-540.5,136.1C5951.9,1342.1,5842.7,1338.3,5798.6,1317.2z"/><path d="M2118.8,90.6c-78.6-34.5-159.1-132.2-172.5-208.9c-5.7-34.5-9.6-640.1-5.7-1349.3c5.7-1264.9,5.7-1287.9,46-1339.6c97.7-130.3,101.6-132.3,563.5-132.3s465.7,1.9,563.5,132.3c40.3,51.7,40.3,69,40.3,1391.4c0,1322.4,0,1339.6-40.3,1391.4c-95.8,128.4-105.4,132.3-540.5,136.1C2272.2,115.5,2162.9,111.7,2118.8,90.6z"/></g></g>
</svg>