<?xml version="1.0" encoding="utf-8"?>
<!-- Svg Vector Icons : http://www.onlinewebfonts.com/icon -->
<!DOCTYPE svg PUBLIC "-//W3C//DTD SVG 1.1//EN" "http://www.w3.org/Graphics/SVG/1.1/DTD/svg11.dtd">
<svg version="1.1" xmlns="http://www.w3.org/2000/svg" xmlns:xlink="http://www.w3.org/1999/xlink" x="0px" y="0px" viewBox="0 0 1000 1000" enable-background="new 0 0 1000 1000" xml:space="preserve">
<metadata> Svg Vector Icons : http://www.onlinewebfonts.com/icon </metadata>
<g><g transform="translate(0.000000,512.000000) scale(0.100000,-0.100000)"><path d="M519.2,4990.7c-189.7-67.1-329.6-208.9-390.9-400.5C99.6,4505.9,97.6,4088.1,101.5,79l5.7-4417.3l47.9-95.8c59.4-122.7,174.4-237.6,297-297L548-4779h4455.6h4455.6l95.8,47.9c122.7,59.4,237.6,174.4,297,297l47.9,95.8V117.3V4573l-47.9,95.8c-59.4,122.6-174.4,237.6-297,297l-95.8,47.9l-4426.9,3.8C1044.3,5021.4,597.8,5019.5,519.2,4990.7z M8683.1,2087.4V378l-837.5,835.5c-737.8,735.9-849,839.4-919.9,858.5c-184,47.9-130.3,92-1389.4-1165.2l-1146-1142.2l-530.8,528.9c-459.9,456.1-544.3,532.8-613.2,550c-180.1,47.9-161,65.2-1082.8-856.6l-839.4-835.5v2322.7v2322.7h3679.5h3679.5V2087.4z M7767.1-451.8l916-916V-2464v-1098.1H5003.6H1324.1v484.8v482.9l919.9,919.9l919.9,919.9l530.8-530.8c459.9-456.1,544.3-532.8,615.2-550c182.1-49.8,128.4-93.9,1383.6,1159.4C6320.2-49.4,6837.6,462.3,6843.3,462.3C6849.1,462.3,7265,50.3,7767.1-451.8z"/></g></g>
</svg>