<?xml version="1.0" encoding="utf-8"?>
<!-- Svg Vector Icons : http://www.onlinewebfonts.com/icon -->
<!DOCTYPE svg PUBLIC "-//W3C//DTD SVG 1.1//EN" "http://www.w3.org/Graphics/SVG/1.1/DTD/svg11.dtd">
<svg version="1.1" xmlns="http://www.w3.org/2000/svg" xmlns:xlink="http://www.w3.org/1999/xlink" x="0px" y="0px" viewBox="0 0 1000 1000" enable-background="new 0 0 1000 1000" xml:space="preserve">
<metadata> Svg Vector Icons : http://www.onlinewebfonts.com/icon </metadata>
<g><g transform="translate(0.000000,512.000000) scale(0.100000,-0.100000)"><path d="M519.2,4990.8c-176.3-61.3-312.4-191.6-385.2-369.9c-23-55.6-26.8-335.4-26.8-1753.5V1181.1l47.9-95.8c59.4-122.6,174.4-237.6,297-297l95.8-47.9h1696h1696l120.7,65.2c134.1,72.8,191.6,132.2,268.3,277.9l51.7,97.7v1696v1696l-47.9,95.8c-59.4,122.6-174.4,237.6-297,297l-95.8,47.9l-1667.3,3.8C793.3,5021.5,595.9,5017.7,519.2,4990.8z M3163.9,2877.1v-919.9H2244h-919.9v919.9v919.9H2244h919.9V2877.1z"/><path d="M6038.5,4990.8c-191.6-67.1-329.6-208.9-390.9-400.5c-28.8-84.3-30.7-270.2-26.8-1751.6l5.8-1657.7l47.9-95.8c59.4-122.6,174.4-237.6,297-297l95.8-47.9h1696h1696l95.8,47.9c122.7,59.4,237.6,174.4,297,297l47.9,95.8v1696v1696l-47.9,95.8c-59.4,122.6-174.4,237.6-297,297l-95.8,47.9l-1667.3,3.8C6312.5,5021.5,6115.1,5017.7,6038.5,4990.8z M8683.1,2877.1v-919.9h-919.9h-919.9v919.9v919.9h919.9h919.9V2877.1z"/><path d="M519.2-528.4c-191.6-67.1-329.6-208.9-390.9-400.5c-28.7-84.3-30.7-270.2-26.8-1751.6l5.7-1657.7l47.9-95.8c59.4-122.7,174.4-237.6,297-297l95.8-47.9h1696h1696l95.8,47.9c122.6,59.4,237.6,174.4,297,297l47.9,95.8v1696v1696l-47.9,95.8c-59.4,122.6-174.4,237.6-297,297l-95.8,47.9l-1667.3,3.8C793.3-497.7,595.9-501.5,519.2-528.4z M3163.9-2642.2V-3562H2244h-919.9v919.9v919.9H2244h919.9V-2642.2z"/><path d="M6038.5-528.4c-191.6-67.1-329.6-208.9-390.9-400.5c-28.8-84.3-30.7-270.2-26.8-1751.6l5.8-1657.7l47.9-95.8c59.4-122.7,174.4-237.6,297-297l95.8-47.9h1696h1696l95.8,47.9c122.7,59.4,237.6,174.4,297,297l47.9,95.8v1696v1696l-47.9,95.8c-59.4,122.6-174.4,237.6-297,297l-95.8,47.9L7792-501.5C6312.5-497.7,6115.1-501.5,6038.5-528.4z M8683.1-2642.2V-3562h-919.9h-919.9v919.9v919.9h919.9h919.9V-2642.2z"/></g></g>
</svg>