<?xml version="1.0" encoding="utf-8"?>
<!-- Svg Vector Icons : http://www.onlinewebfonts.com/icon -->
<!DOCTYPE svg PUBLIC "-//W3C//DTD SVG 1.1//EN" "http://www.w3.org/Graphics/SVG/1.1/DTD/svg11.dtd">
<svg version="1.1" xmlns="http://www.w3.org/2000/svg" xmlns:xlink="http://www.w3.org/1999/xlink" x="0px" y="0px" viewBox="0 0 1000 1000" enable-background="new 0 0 1000 1000" xml:space="preserve">
<metadata> Svg Vector Icons : http://www.onlinewebfonts.com/icon </metadata>
<g><g transform="translate(0.000000,512.000000) scale(0.100000,-0.100000)"><path d="M567.9,5005.8c-174.4-44.1-331.5-172.5-412-337.3l-47.9-95.8v-776.1v-776.1l47.9-95.8c59.4-122.6,174.4-237.6,297-297l95.8-47.9h776.1h776.1l97.7,51.7c145.6,76.7,205,134.1,277.9,268.3l65.1,120.7v776.1v776.1l-47.9,95.8c-59.4,122.6-174.4,237.6-297,297l-95.8,47.9l-737.7,3.8C956.9,5019.2,600.5,5013.4,567.9,5005.8z"/><path d="M4247.1,5005.8c-172.5-44.1-331.5-172.5-412-337.3l-47.9-95.8v-776.1c0-766.5,0-778,44.1-862.3c67.1-138,143.7-218.5,275.9-289.4l120.7-65.2H5004h776.1l95.8,47.9c122.6,59.4,237.6,174.4,297,297l47.9,95.8v776.1v776.1l-47.9,95.8c-59.4,122.6-174.4,237.6-297,297l-95.8,47.9l-737.8,3.8C4636.1,5019.2,4279.7,5013.4,4247.1,5005.8z"/><path d="M7878.4,4992.3c-191.6-69-329.6-210.8-392.8-402.4c-26.8-82.4-30.7-193.5-24.9-831.7l5.8-737.7l47.9-95.8c59.4-122.6,174.4-237.6,297-297l95.8-47.9h776.1h776.1l95.8,47.9c122.6,59.4,237.6,174.4,297,297l47.9,95.8v776.1v776.1l-47.9,95.8c-59.4,122.6-174.4,237.6-297,297l-95.8,47.9l-747.3,3.8C8070,5021.1,7953.1,5017.3,7878.4,4992.3z"/><path d="M520,1313.2c-122.6-44.1-239.5-130.3-302.8-224.2C106.1,924.2,108.1,937.6,108.1,107.9v-766.5l47.9-95.8c59.4-122.6,174.4-237.6,297-297l95.8-47.9h776.1h776.1l95.8,47.9c122.6,59.4,237.6,174.4,297,297l47.9,95.8v776.1v776.1l-65.1,120.7c-70.9,132.2-151.4,208.9-289.4,275.9c-84.3,44.1-101.6,44.1-833.6,47.9C709.8,1341.9,594.8,1338.1,520,1313.2z"/><path d="M4247.1,1326.6c-172.5-44.1-331.5-172.5-412-337.3l-47.9-95.8V117.4v-776.1l47.9-95.8c59.4-122.6,174.4-237.6,297-297l95.8-47.9H5004h776.1l95.8,47.9c122.6,59.4,237.6,174.4,297,297l47.9,95.8v776.1v776.1l-47.9,95.8c-59.4,122.6-174.4,237.6-297,297l-95.8,47.9l-737.8,3.8C4636.1,1340,4279.7,1334.2,4247.1,1326.6z"/><path d="M7878.4,1313.2c-191.6-69-329.6-210.8-392.8-402.4c-26.8-82.4-30.7-193.5-24.9-831.6l5.8-737.7l47.9-95.8c59.4-122.6,174.4-237.6,297-297l95.8-47.9h776.1h776.1l95.8,47.9c122.6,59.4,237.6,174.4,297,297l47.9,95.8v776.1v776.1l-47.9,95.8c-59.4,122.6-174.4,237.6-297,297l-95.8,47.9l-747.3,3.8C8070,1341.9,7953.1,1338.1,7878.4,1313.2z"/><path d="M520-2366c-191.6-69-329.6-210.8-392.8-402.4c-26.8-82.4-30.7-193.6-24.9-831.7l5.7-737.8l47.9-95.8c59.4-122.6,174.4-237.6,297-297l95.8-47.9h776.1h776.1l95.8,47.9c122.6,59.4,237.6,174.4,297,297l47.9,95.8v776.1v776.1l-47.9,95.8c-59.4,122.6-174.4,237.6-297,297l-95.8,47.9l-747.3,3.8C711.7-2337.3,594.8-2341.1,520-2366z"/><path d="M4199.2-2366c-191.6-69-329.6-210.8-392.8-402.4c-26.8-82.4-30.7-193.6-24.9-831.7l5.7-737.8l47.9-95.8c59.4-122.6,174.4-237.6,297-297l95.8-47.9H5004h776.1l95.8,47.9c122.6,59.4,237.6,174.4,297,297l47.9,95.8v776.1v776.1l-47.9,95.8c-59.4,122.6-174.4,237.6-297,297l-95.8,47.9l-747.3,3.8C4390.8-2337.3,4273.9-2341.1,4199.2-2366z"/><path d="M7878.4-2366c-191.6-69-329.6-210.8-392.8-402.4c-26.8-82.4-30.7-193.6-24.9-831.7l5.8-737.8l47.9-95.8c59.4-122.6,174.4-237.6,297-297l95.8-47.9h776.1h776.1l95.8,47.9c122.6,59.4,237.6,174.4,297,297l47.9,95.8v776.1v776.1l-47.9,95.8c-59.4,122.6-174.4,237.6-297,297l-95.8,47.9l-747.3,3.8C8070-2337.3,7953.1-2341.1,7878.4-2366z"/></g></g>
</svg>