<?xml version="1.0" encoding="utf-8"?>
<!-- Svg Vector Icons : http://www.onlinewebfonts.com/icon -->
<!DOCTYPE svg PUBLIC "-//W3C//DTD SVG 1.1//EN" "http://www.w3.org/Graphics/SVG/1.1/DTD/svg11.dtd">
<svg version="1.1" xmlns="http://www.w3.org/2000/svg" xmlns:xlink="http://www.w3.org/1999/xlink" x="0px" y="0px" viewBox="0 0 1000 1000" enable-background="new 0 0 1000 1000" xml:space="preserve">
<metadata> Svg Vector Icons : http://www.onlinewebfonts.com/icon </metadata>
<g><g transform="translate(0.000000,512.000000) scale(0.100000,-0.100000)"><path d="M6798,4993.6c-546.2-92-1036.8-389-1364.5-822.1c-576.9-766.6-580.7-1807.2-3.8-2571.9l115-155.2l-161-132.2c-88.2-72.8-222.3-203.2-297.1-289.4l-136.1-159.1l-34.5,138c-51.7,197.4-218.5,534.7-356.5,716.8c-329.6,436.9-826,734-1374.1,822.1C2411.2,2667,1614,2345.1,1140.6,1718.4C561.9,951.8,561.9-88.8,1136.8-855.4l118.8-155.2l-90.1-63.2c-138-99.7-440.8-414-563.4-586.4c-220.4-308.5-389-705.3-467.6-1094.3c-28.7-141.8-34.5-272.1-34.5-875.8v-709.1l47.9-95.8C207.3-4558,322.3-4673,445-4732.4l95.8-47.9h2309.3h2309.3l95.8,47.9c122.7,59.4,237.6,174.4,297.1,297.1l47.9,95.8v728.3c0,787.7-9.6,891.2-113.1,1155.6l-46,118.8l2004.6,3.8l2006.5,5.8l95.8,47.9c122.7,59.4,237.7,174.4,297.1,297.1c47.9,95.8,47.9,101.6,53.7,699.5c3.8,371.8-1.9,676.5-15.3,793.4c-55.6,484.9-251.1,965.9-548.1,1356.9c-113.1,147.6-389.1,423.5-509.8,511.7l-90.1,63.2l92,118.8c283.6,364.1,435,768.5,456.1,1228.4c32.6,732.1-323.9,1443.1-935.2,1862.8C7919.1,4947.6,7311.6,5081.8,6798,4993.6z M7363.4,3767.1c329.6-86.2,584.5-343,670.8-674.6c124.6-477.2-180.2-979.3-670.8-1107.7c-481-124.6-983.1,180.2-1111.6,670.8C6081.2,3312.9,6706,3937.6,7363.4,3767.1z M3070.5,1314c490.6-128.4,795.3-630.5,670.8-1107.7c-86.2-331.5-341.1-588.4-670.8-674.6c-481-124.6-983.1,180.2-1111.5,670.8C1788.4,859.8,2413.2,1484.6,3070.5,1314z M7507.1,685.4c400.5-109.2,705.3-327.7,919.9-659.3c170.6-258.7,230-473.3,243.4-852.8l9.6-283.6H7144.9H5609.8v218.5c0,120.7,11.5,281.7,26.8,360.3c122.6,634.3,580.7,1098.1,1218.9,1234.2C7008.8,735.2,7357.6,725.6,7507.1,685.4z M3214.2-1767.6c400.5-109.2,703.3-327.7,921.8-661.2c166.7-254.9,228.1-471.5,241.5-850.9l9.6-283.6H2852H1317v218.5c0,120.7,11.5,281.7,26.8,360.3c122.7,634.3,580.7,1098.1,1218.9,1234.2C2716-1717.8,3064.8-1727.4,3214.2-1767.6z"/></g></g>
</svg>