<?xml version="1.0" encoding="utf-8"?>
<!-- Svg Vector Icons : http://www.onlinewebfonts.com/icon -->
<!DOCTYPE svg PUBLIC "-//W3C//DTD SVG 1.1//EN" "http://www.w3.org/Graphics/SVG/1.1/DTD/svg11.dtd">
<svg version="1.1" xmlns="http://www.w3.org/2000/svg" xmlns:xlink="http://www.w3.org/1999/xlink" x="0px" y="0px" viewBox="0 0 1000 1000" enable-background="new 0 0 1000 1000" xml:space="preserve">
<metadata> Svg Vector Icons : http://www.onlinewebfonts.com/icon </metadata>
<g><g transform="translate(0.000000,512.000000) scale(0.100000,-0.100000)"><path d="M4530.1,5008.9C3375.6,4890,2341.9,4401,1530.7,3589.7C752.1,2811.1,289.9,1867.5,124.9,724.5C105.8,590.3,100,64.8,100-1586.4v-2138.3l47.9-95.9c59.5-122.7,174.5-237.8,297.3-297.3c78.6-38.4,124.7-47.9,258.9-47.9c134.2,0,180.3,9.6,258.9,47.9c184.1,90.1,322.2,276.2,349,469.9l11.5,86.3h303h303l5.8-387.4c5.7-368.2,7.7-395.1,53.7-485.2c59.5-122.8,174.5-237.8,297.3-297.3c138.1-67.1,379.7-67.1,517.8,0c122.7,59.4,237.8,174.5,297.3,297.3l47.9,95.9v1390.4v1390.4l-47.9,95.9c-59.5,122.7-174.5,237.8-297.3,297.3c-138.1,67.1-379.7,67.1-517.8,0c-122.7-59.5-237.8-174.5-297.3-297.3c-46-90.1-47.9-117-53.7-485.2l-5.8-387.4h-306.8h-304.9v1319.4c0,1346.3,7.7,1530.4,78.6,1883.3c149.6,744.1,588.8,1501.6,1164.1,2006c479.5,420,1097,730.7,1691.5,849.6c648.2,128.5,1286.8,94,1898.6-105.5c266.6-88.2,732.6-322.2,957-483.3C8003.3,2494.7,8546,1568.4,8663,481c11.5-109.3,19.2-728.8,19.2-1501.6v-1313.7h-304.9h-306.9l-5.8,389.3c-5.7,366.3-7.7,393.2-53.7,483.3c-59.4,122.7-174.5,237.8-297.3,297.3c-78.6,38.3-124.7,47.9-258.9,47.9s-180.3-9.6-258.9-47.9c-122.7-59.5-237.8-174.5-297.3-297.3l-47.9-95.9v-1390.4v-1390.4l47.9-95.9c59.4-122.8,174.5-237.8,297.3-297.3c138.1-67.1,379.7-67.1,517.8,0c122.7,59.4,237.8,174.5,297.3,297.3c46,90.1,47.9,117,53.7,485.2l5.8,387.4h303h303l11.5-86.3c26.9-193.7,164.9-379.7,349-469.9c138.1-67.1,379.7-67.1,517.8,0c122.7,59.4,237.8,174.5,297.3,297.3l47.9,95.9v2138.3c0,1651.2-5.8,2176.7-24.9,2311C9710.1,1865.6,9246,2813,8469.3,3589.7c-759.5,759.5-1687.7,1223.6-2778.9,1392.3C5448.8,5018.5,4775.6,5035.8,4530.1,5008.9z"/></g></g>
</svg>