<?xml version="1.0" encoding="utf-8"?>
<!-- Svg Vector Icons : http://www.onlinewebfonts.com/icon -->
<!DOCTYPE svg PUBLIC "-//W3C//DTD SVG 1.1//EN" "http://www.w3.org/Graphics/SVG/1.1/DTD/svg11.dtd">
<svg version="1.1" xmlns="http://www.w3.org/2000/svg" xmlns:xlink="http://www.w3.org/1999/xlink" x="0px" y="0px" viewBox="0 0 1000 1000" enable-background="new 0 0 1000 1000" xml:space="preserve">
<metadata> Svg Vector Icons : http://www.onlinewebfonts.com/icon </metadata>
<g><g transform="translate(0.000000,512.000000) scale(0.100000,-0.100000)"><path d="M4625.8,5019.7c-694.3-71-1214-214.8-1783.6-494.8c-500.6-245.5-857.3-498.7-1263.9-891.8c-418.1-408.5-723.1-828.5-982-1354c-241.7-494.8-389.3-980-471.8-1553.5c-32.6-226.3-32.6-982,0-1208.3c136.2-949.4,504.4-1804.7,1083.6-2508.6c1160.3-1405.8,2972.7-2052.1,4769.8-1699.3c606.1,120.8,1194.9,362.5,1716.5,703.9c324.1,212.9,500.6,356.7,786.3,644.4c523.6,525.5,897.6,1125.8,1160.3,1862.3c138.1,389.3,111.2,608-103.6,811.3c-193.7,182.2-456.5,226.3-690.4,111.3c-186-92.1-251.2-188-385.5-567.7c-122.8-345.2-320.3-713.5-542.8-1006.9c-117-153.4-421.9-466.1-588.8-604.1c-734.6-602.2-1745.3-905.3-2690.8-805.5c-1087.5,117-2013.8,659.8-2654.4,1555.4c-161.1,224.4-395.1,690.4-483.3,957C1096.8,215.4,1376.9,1569.4,2245.7,2561c504.4,575.4,1262,1014.6,2006.1,1164.2c665.5,132.3,1279.3,94,1927.5-120.8c517.8-172.6,970.4-431.5,1380.9-786.3l76.7-67.1l-521.7-514c-416.2-408.5-531.3-533.2-563.9-606c-34.5-80.6-36.5-101.7-15.4-149.6c51.8-128.5-21.1-122.7,1660.9-122.7c1503.6,0,1519,0,1570.7,40.3c28.8,21.1,71,63.3,92.1,92.1c40.3,51.8,40.3,67.1,40.3,1561.2c0,1668.6,3.8,1614.9-118.9,1664.7c-115.1,47.9-163,11.5-746.1-571.5l-540.9-538.9L8335,3748.2c-736.5,654-1659,1081.7-2664,1235.1C5477.3,5012.1,4790.7,5037,4625.8,5019.7z"/><path d="M4194.2,1931.9c-191.8-71-329.9-211-393.2-402.8c-26.8-82.5-28.8-218.6-24.9-1139.2l5.8-1045.3l47.9-95.9c59.5-122.7,174.5-237.8,297.3-297.3l95.9-47.9h1083.6h1083.6l95.9,47.9C6608.9-989,6724-874,6783.4-751.2c67.1,138.1,67.1,379.7,0,517.8C6724-110.6,6608.9,4.4,6486.1,63.9l-95.9,47.9l-694.3,5.8l-694.3,5.8l-5.8,694.3l-5.8,694.3l-47.9,95.9c-61.4,122.7-176.5,237.8-297.3,295.4C4520.3,1962.6,4315.1,1976,4194.2,1931.9z"/></g></g>
</svg>