<?xml version="1.0" encoding="utf-8"?>
<!-- Svg Vector Icons : http://www.onlinewebfonts.com/icon -->
<!DOCTYPE svg PUBLIC "-//W3C//DTD SVG 1.1//EN" "http://www.w3.org/Graphics/SVG/1.1/DTD/svg11.dtd">
<svg version="1.1" xmlns="http://www.w3.org/2000/svg" xmlns:xlink="http://www.w3.org/1999/xlink" x="0px" y="0px" viewBox="0 0 1000 1000" enable-background="new 0 0 1000 1000" xml:space="preserve">
<metadata> Svg Vector Icons : http://www.onlinewebfonts.com/icon </metadata>
<g><g transform="translate(0.000000,455.000000) scale(0.100000,-0.100000)"><path d="M4884.4,4115.9c-64.5-30.3-4752.5-4928-4774.7-4988.5c-12.1-28.2-12.1-56.5-4-64.6c8.1-10.1,266.3-20.2,572.9-26.2l558.8-10.1l10.1-1972.8l10.1-1974.8l66.6-58.5l64.6-58.5h3606.7c3471.6,0,3608.8,2,3687.4,38.3c46.4,20.2,104.9,68.6,131.1,104.9l48.4,68.6l6,1932.5l4,1930.5h490.2c268.3,0,502.3,8.1,518.4,20.2c22.2,14.1,24.2,30.3,10.1,68.6c-26.2,64.6-4716.2,4960.3-4782.8,4992.5C5045.7,4146.2,4944.9,4144.2,4884.4,4115.9z M6427.5,1114.3L7781.1-348.1l2-1759v-1761h-817h-817v1030.8c0,1157.9,4,1125.6-147.3,1224.4l-82.7,54.5l-879.5,6c-556.8,4-901.7-2-936-14.1c-28.2-12.1-70.6-50.4-92.8-86.8c-38.3-64.5-40.3-102.9-40.3-1139.7v-1075.2h-817h-817v1765v1765l1355.6,1462.5c744.3,804.9,1359.6,1460.4,1367.7,1458.4C5067.9,2578.8,5683.2,1919.2,6427.5,1114.3z"/></g></g>
</svg>