<?xml version="1.0" encoding="utf-8"?>
<!-- Svg Vector Icons : http://www.onlinewebfonts.com/icon -->
<!DOCTYPE svg PUBLIC "-//W3C//DTD SVG 1.1//EN" "http://www.w3.org/Graphics/SVG/1.1/DTD/svg11.dtd">
<svg version="1.1" xmlns="http://www.w3.org/2000/svg" xmlns:xlink="http://www.w3.org/1999/xlink" x="0px" y="0px" viewBox="0 0 1000 1000" enable-background="new 0 0 1000 1000" xml:space="preserve">
<metadata> Svg Vector Icons : http://www.onlinewebfonts.com/icon </metadata>
<g><g transform="translate(0.000000,455.000000) scale(0.100000,-0.100000)"><path d="M5049,4000.2c-49.2-23.6-3024.8-2914.6-4542-4414.1C99.6-817.4,62.2-866.6,123.2-927.6c17.7-17.7,169.2-23.6,560.9-23.6h537.2l3.9-1897.1c5.9-1885.3,5.9-1899.1,47.2-1954.2c21.6-29.5,70.8-70.8,108.2-88.6c63-33.5,283.4-35.4,3786.3-35.4c3501,0,3723.4,2,3788.3,35.4c37.4,17.7,84.6,64.9,108.2,102.3c39.4,66.9,39.4,98.4,45.3,1954.2l3.9,1883.3h393.6H9900v222.4v220.4l-964.3,913.1l-964.3,913.1v1031.2c0,1137.5,2,1109.9-124,1186.7c-57.1,35.4-100.4,39.4-429,39.4c-348.3,0-370-2-432.9-45.3c-126-84.6-135.8-127.9-135.8-633.7l-2-452.6L6086.1,3215c-434.9,440.8-785.2,781.3-816.7,793.1C5194.6,4035.6,5119.8,4031.7,5049,4000.2z M7971.4-2033.6v-1751.5H7135h-834.4l-5.9,1029.2c-5.9,986-7.9,1029.3-45.3,1092.2c-21.6,37.4-72.8,82.7-112.2,104.3c-68.9,35.4-125.9,37.4-974.1,37.4c-1027.3,0-999.7,3.9-1082.4-157.4c-45.3-86.6-45.3-88.6-45.3-1096.2v-1009.6h-846.2H2343v1745.6v1747.5l1413,1413l1411,1413L6570.2,1127L7971.4-280.1V-2033.6z"/></g></g>
</svg>