<?xml version="1.0" encoding="utf-8"?>
<!-- Svg Vector Icons : http://www.onlinewebfonts.com/icon -->
<!DOCTYPE svg PUBLIC "-//W3C//DTD SVG 1.1//EN" "http://www.w3.org/Graphics/SVG/1.1/DTD/svg11.dtd">
<svg version="1.1" xmlns="http://www.w3.org/2000/svg" xmlns:xlink="http://www.w3.org/1999/xlink" x="0px" y="0px" viewBox="0 0 1000 1000" enable-background="new 0 0 1000 1000" xml:space="preserve">
<metadata> Svg Vector Icons : http://www.onlinewebfonts.com/icon </metadata>
<g><g transform="translate(0.000000,455.000000) scale(0.100000,-0.100000)"><path d="M4824.9,3879c-65.1-21.1-141.7-76.6-287.2-210.6c-109.1-99.6-1146.7-1125.7-2306.8-2282C27.4-809.3,73.3-761.5,109.7-880.2c7.7-21.1,49.8-55.5,91.9-76.6c70.8-30.6,130.2-36.4,536-36.4h453.7V-2672c0-1085.5,7.7-1705.7,19.1-1751.7c34.5-120.6,134-246.9,248.9-310.1l105.3-59.3l1336.2-5.7c1332.4-5.7,1336.3-3.8,1409,36.4c151.2,84.2,145.5,38.3,151.2,1152.5l5.8,989.7H5001h534.1l5.7-989.7c5.7-987.8,5.7-991.7,47.9-1060.6c86.1-139.8,30.6-134,1518.1-128.3l1330.5,5.7l103.4,57.4c118.7,65.1,181.9,139.7,233.5,277.6c34.5,91.9,36.4,164.6,36.4,1780.4v1684.7h449.9c369.5,0,463.3,5.7,526.4,30.6c116.8,47.9,139.7,111,84.2,229.7C9854-696.4,8870,295.3,7587.3,1568.3C5856.7,3285.5,5313,3815.8,5242.2,3848.4C5127.3,3905.8,4947.4,3917.3,4824.9,3879z M6364,1233.3L7719.4-122.1v-1793.8v-1795.7h-545.6h-545.6v867.2c0,974.4,0,976.3-134,1129.5c-44,47.9-118.7,103.4-176.1,130.2l-101.5,46H5001H3785.3l-101.5-46c-57.4-26.8-132.1-82.3-176.1-130.2c-134-153.2-134-155.1-134-1129.5v-867.2h-545.6h-545.6v1793.8v1795.7L3636,1231.4c746.6,746.6,1359.2,1355.4,1365,1355.4C5006.7,2586.8,5619.3,1978,6364,1233.3z"/></g></g>
</svg>