<?xml version="1.0" encoding="utf-8"?>
<!-- Svg Vector Icons : http://www.onlinewebfonts.com/icon -->
<!DOCTYPE svg PUBLIC "-//W3C//DTD SVG 1.1//EN" "http://www.w3.org/Graphics/SVG/1.1/DTD/svg11.dtd">
<svg version="1.1" xmlns="http://www.w3.org/2000/svg" xmlns:xlink="http://www.w3.org/1999/xlink" x="0px" y="0px" viewBox="0 0 1000 1000" enable-background="new 0 0 1000 1000" xml:space="preserve">
<metadata> Svg Vector Icons : http://www.onlinewebfonts.com/icon </metadata>
<g><g transform="translate(0.000000,448.000000) scale(0.100000,-0.100000)"><path d="M519.2,3737.5c-189.7-67.1-329.6-208.9-390.9-400.5c-28.7-84.3-30.7-450.4-26.8-3898l5.7-3804l47.9-95.8c59.4-122.7,174.4-237.6,297-297l95.8-47.9h4455.6h4455.6l95.8,47.9c122.7,59.4,237.6,174.4,297,297l47.9,95.8v3842.4v3842.4l-47.9,95.8c-59.4,122.6-174.4,237.6-297,297l-95.8,47.9l-4426.9,3.8C1044.3,3768.2,597.8,3766.2,519.2,3737.5z M8683.1-522.7v-3066.2H5003.6H1324.1v3066.2v3066.2h3679.5h3679.5V-522.7z"/><path d="M3508.8,1899.7c-448.4-95.8-835.5-486.8-929.4-937.1C2481.6,495,2667.5,2.4,3045.1-273.5l118.8-86.2v-136.1v-136.1l-122.6-51.7c-281.7-120.8-607.5-387.1-778.1-642c-113.1-166.7-218.5-402.5-270.2-596c-38.3-139.9-44.1-210.8-46-511.7c0-381.3,3.8-398.6,132.2-492.5c51.7-40.3,65.2-40.3,1697.9-40.3s1646.2,0,1697.9,40.3c128.4,95.8,132.2,109.2,130.3,502.1c-1.9,431.2-28.8,557.7-189.7,875.8c-185.9,371.8-467.6,649.7-837.5,829.8l-187.8,90.1v134.2v134.2l118.8,86.2c224.2,162.9,408.2,450.4,465.7,722.5C5158.8,1317.1,4380.8,2087.5,3508.8,1899.7z"/><path d="M5798.9,1903.5c-78.6-34.5-159.1-132.2-172.5-208.9c-7.7-34.5-9.6-226.1-5.8-429.3c5.8-402.4,9.6-417.8,138-511.7c51.7-40.2,72.8-40.2,1084.7-40.2c1011.9,0,1032.9,0,1084.7,40.2c130.3,97.7,132.2,101.6,132.2,563.4c0,461.9-1.9,465.7-132.2,563.4c-51.7,40.2-76.7,40.2-1061.7,44.1C6055.7,1928.4,5844.9,1924.6,5798.9,1903.5z"/><path d="M5798.9,63.8c-78.6-34.5-159.1-132.2-172.5-208.9c-7.7-34.5-9.6-226.1-5.8-429.3c5.8-402.4,9.6-417.8,138-511.7c51.7-40.3,72.8-40.3,1084.7-40.3c1011.9,0,1032.9,0,1084.7,40.3c130.3,97.7,132.2,101.6,132.2,563.4c0,461.9-1.9,465.7-132.2,563.4C7876.3,81,7851.4,81,6866.3,84.9C6055.7,88.7,5844.9,84.9,5798.9,63.8z"/></g></g>
</svg>