<?xml version="1.0" encoding="utf-8"?>
<!-- Svg Vector Icons : http://www.onlinewebfonts.com/icon -->
<!DOCTYPE svg PUBLIC "-//W3C//DTD SVG 1.1//EN" "http://www.w3.org/Graphics/SVG/1.1/DTD/svg11.dtd">
<svg version="1.1" xmlns="http://www.w3.org/2000/svg" xmlns:xlink="http://www.w3.org/1999/xlink" x="0px" y="0px" viewBox="0 0 1000 1000" enable-background="new 0 0 1000 1000" xml:space="preserve">
<metadata> Svg Vector Icons : http://www.onlinewebfonts.com/icon </metadata>
<g><g transform="translate(0.000000,512.000000) scale(0.100000,-0.100000)"><path d="M1129.3,4989c-189.7-65.2-329.6-208.9-390.9-400.5c-28.7-84.3-30.7-256.8-26.8-1573.2c5.7-1458.3,5.7-1479.3,46-1531.1c97.7-130.3,101.6-132.2,563.4-132.2c461.8,0,465.6,1.9,563.4,132.2c40.2,51.7,40.2,74.7,46,1182.3l3.8,1128.7h1839.6h1839.6l3.8-1128.7c5.8-1107.6,5.8-1130.6,46-1182.3c21.1-28.7,63.2-70.9,92-92c51.7-40.2,74.7-40.2,1182.3-46l1128.7-3.8v-2452.8v-2452.8h-3066H1936l-5.8,515.5c-5.7,486.7-7.7,519.3-46,569.1c-97.7,130.3-101.6,132.2-563.4,132.2c-461.8,0-467.6-1.9-563.4-132.2c-40.2-51.7-40.2-72.8-40.2-956.2v-904.5l47.9-95.8c59.4-122.6,174.4-237.6,297-297l95.8-47.9h3842.1h3842.1l95.8,47.9c122.6,59.4,237.6,174.4,297,297l47.9,95.8l5.8,3315.1c3.8,2489.2,0,3341.9-17.2,3420.5c-53.7,252.9-53.7,252.9-1203.4,1400.8c-1124.8,1126.7-1134.4,1134.4-1372,1197.6c-78.6,21.1-599.8,26.8-2788.1,24.9C1510.6,5019.7,1205.9,5015.8,1129.3,4989z"/><path d="M3235.2,1317.5c-69-53.7-74.7-97.7-74.7-653.4V116l-1128.7-3.8c-1107.6-5.7-1130.6-5.7-1182.3-46C719.2-31.6,717.3-35.4,717.3-497.2c0-461.8,1.9-465.6,132.2-563.4c51.7-40.2,74.7-40.2,1182.3-46l1128.7-3.8v-546.1c0-364.1,7.7-559.5,21.1-592.1c26.8-59.4,113.1-95.8,184-80.5c53.7,11.5,2035,1536.8,2171.1,1670.9c59.4,57.5,67.1,78.6,67.1,159.1c0,74.7-9.6,105.4-47.9,145.6c-70.9,76.6-2105.9,1657.5-2159.6,1678.6C3332.9,1348.1,3271.6,1346.2,3235.2,1317.5z"/></g></g>
</svg>