<?xml version="1.0" encoding="utf-8"?>
<!-- Svg Vector Icons : http://www.onlinewebfonts.com/icon -->
<!DOCTYPE svg PUBLIC "-//W3C//DTD SVG 1.1//EN" "http://www.w3.org/Graphics/SVG/1.1/DTD/svg11.dtd">
<svg version="1.1" xmlns="http://www.w3.org/2000/svg" xmlns:xlink="http://www.w3.org/1999/xlink" x="0px" y="0px" viewBox="0 0 1000 1000" enable-background="new 0 0 1000 1000" xml:space="preserve">
<metadata> Svg Vector Icons : http://www.onlinewebfonts.com/icon </metadata>
<g><g transform="translate(0.000000,512.000000) scale(0.100000,-0.100000)"><path d="M519.2,4990.7c-189.7-67.1-329.6-208.9-390.9-400.5C99.6,4505.9,97.6,4088.1,101.5,79l5.7-4417.3l47.9-95.8c59.4-122.7,174.4-237.6,297-297L548-4779h4455.6h4455.6l95.8,47.9c122.7,59.4,237.6,174.4,297,297l47.9,95.8V117.3V4573l-47.9,95.8c-59.4,122.6-174.4,237.6-297,297l-95.8,47.9l-4426.9,3.8C1044.3,5021.4,597.8,5019.5,519.2,4990.7z M8683.1,1037.2v-2757.7l-693.7-5.8l-695.7-5.7l-95.8-47.9c-122.7-59.4-237.6-174.4-297.1-297c-47.9-93.9-47.9-105.4-57.5-693.7c-9.6-565.4-11.5-599.8-49.8-649.6c-21.1-28.8-63.3-70.9-92-92c-51.7-40.2-65.1-40.2-1697.9-40.2s-1646.2,0-1697.9,40.2c-28.7,21.1-70.9,63.3-92,92c-38.3,49.8-40.2,84.3-49.8,649.6c-9.6,588.3-9.6,599.8-57.5,693.7c-59.4,122.7-174.4,237.6-297,297l-95.8,47.9l-693.7,5.7l-695.6,5.8v2757.7v2759.6h3679.5h3679.5V1037.2z"/><path d="M2732.7,2543.5c-78.6-34.5-159.1-132.2-172.5-208.9c-7.7-34.5-9.6-226.1-5.7-429.3c5.7-402.4,9.6-417.8,138-511.7c51.7-40.2,59.4-40.2,2311.2-40.2c2251.8,0,2259.4,0,2311.2,40.2c130.3,97.7,132.2,101.6,132.2,563.4s-1.9,465.7-132.2,563.4c-51.7,40.2-63.2,40.2-2288.2,44.1C3196.5,2568.4,2778.7,2564.6,2732.7,2543.5z"/><path d="M2732.7,703.8c-78.6-34.5-159.1-132.2-172.5-208.9c-7.7-34.5-9.6-226.1-5.7-429.3c5.7-402.4,9.6-417.8,138-511.7c51.7-40.3,59.4-40.3,2311.2-40.3c2251.8,0,2259.4,0,2311.2,40.3c130.3,97.7,132.2,101.6,132.2,563.4s-1.9,465.7-132.2,563.4c-51.7,40.2-63.2,40.2-2288.2,44.1C3196.5,728.7,2778.7,724.8,2732.7,703.8z"/></g></g>
</svg>