<?xml version="1.0" encoding="utf-8"?>
<!-- Svg Vector Icons : http://www.onlinewebfonts.com/icon -->
<!DOCTYPE svg PUBLIC "-//W3C//DTD SVG 1.1//EN" "http://www.w3.org/Graphics/SVG/1.1/DTD/svg11.dtd">
<svg version="1.1" xmlns="http://www.w3.org/2000/svg" xmlns:xlink="http://www.w3.org/1999/xlink" x="0px" y="0px" viewBox="0 0 1000 1000" enable-background="new 0 0 1000 1000" xml:space="preserve">
<metadata> Svg Vector Icons : http://www.onlinewebfonts.com/icon </metadata>
<g><g transform="translate(0.000000,512.000000) scale(0.100000,-0.100000)"><path d="M1746.1,4984.8c-122.5-42.1-239.3-128.2-302.4-222c-63.2-88.1-118.7-237.4-118.7-310.1c0-26.8-275.6-1288.2-612.5-2806L100-1111.5l3.8-1609.7l5.7-1611.6l47.9-95.7c59.3-122.5,174.2-237.4,296.7-296.7l95.7-47.9H5000h4450.2l95.7,47.9c122.5,59.3,237.4,174.2,296.7,296.7l47.9,95.7l5.7,1611.6l3.8,1609.7l-610.6,2754.3c-335,1514-614.4,2792.6-622.1,2842.4c-22.9,195.2-160.8,382.8-346.4,474.7l-95.7,47.9l-3196.5,3.8C2159.5,5015.4,1822.7,5013.5,1746.1,4984.8z M7450,3786.6c0-11.5,593.4-4163.1,602.9-4218.6l11.5-61.2l-388.5-5.8c-367.5-5.7-394.3-7.6-484.3-53.6c-122.5-59.3-237.4-174.2-296.7-296.7c-47.9-93.8-47.9-105.3-57.4-692.9c-9.6-564.6-11.5-599.1-49.8-648.9c-21.1-28.7-63.2-70.8-91.9-91.9c-51.7-40.2-65.1-40.2-1695.8-40.2c-1630.8,0-1644.2,0-1695.9,40.2c-28.7,21-70.8,63.2-91.9,91.9c-38.3,49.8-40.2,84.2-49.8,648.9c-9.6,587.6-9.6,599.1-57.4,692.9c-59.3,122.5-174.2,237.4-296.7,296.7c-90,45.9-116.8,47.9-484.3,53.6l-388.6,5.8l11.5,61.2c5.7,34.5,137.8,970.4,296.7,2080.6c157,1110.2,290.9,2048,296.7,2082.5l11.5,61.3H5000C6347.5,3792.3,7450,3790.4,7450,3786.6z"/></g></g>
</svg>