<?xml version="1.0" encoding="utf-8"?>
<!-- Svg Vector Icons : http://www.onlinewebfonts.com/icon -->
<!DOCTYPE svg PUBLIC "-//W3C//DTD SVG 1.1//EN" "http://www.w3.org/Graphics/SVG/1.1/DTD/svg11.dtd">
<svg version="1.1" xmlns="http://www.w3.org/2000/svg" xmlns:xlink="http://www.w3.org/1999/xlink" x="0px" y="0px" viewBox="0 0 1000 1000" enable-background="new 0 0 1000 1000" xml:space="preserve">
<metadata> Svg Vector Icons : http://www.onlinewebfonts.com/icon </metadata>
<g><g transform="translate(0.000000,288.000000) scale(0.100000,-0.100000)"><path d="M2501.8,619c-454.2-63.2-921.9-251.1-1286-521.3C1045.2-26.9,763.5-308.7,638.9-479.2C106.1-1199.8-41.5-2138.9,240.3-2995.6c78.6-237.6,247.2-557.7,410.1-774.3c699.5-931.4,1887.8-1324.3,3007-990.8c164.8,47.9,241.5,111.2,270.2,220.4c28.8,105.4-1.9,195.5-185.9,552c-161,314.3-205.1,362.2-358.4,385.2c-51.8,7.6-124.6,1.9-185.9-13.4c-145.6-38.3-550-34.5-695.7,5.8c-410.1,113.1-713,327.7-929.5,661.2c-170.6,260.6-239.6,496.4-239.6,829.9c0,333.5,69,569.2,239.6,829.9c392.9,601.8,1125,849,1805.4,609.5c423.5-151.4,768.5-496.4,918-923.8c59.4-162.9,82.4-316.2,111.2-736c88.2-1224.6,964-2213.6,2202.1-2485.8c249.2-55.6,793.4-59.4,1038.8-9.6c578.8,118.8,1042.6,366.1,1447,770.4c404.4,404.4,651.6,868.2,770.4,1447c49.8,243.4,46,787.7-9.6,1038.8C9677.3-764.8,9184.7-94,8481.4,293.1c-649.7,358.4-1439.3,442.7-2133.1,228.1c-168.7-51.7-224.2-93.9-264.5-199.3c-30.7-82.4-30.7-92,0-185.9c17.2-55.6,97.7-228.1,180.1-387.1c161-314.3,205.1-362.2,358.4-385.2c51.7-7.7,124.6-1.9,185.9,13.4c145.6,38.3,550,34.5,695.7-5.8c410.1-113.1,713-327.7,929.5-661.2c170.6-260.6,239.6-496.4,239.6-829.9c0-333.5-69-569.2-237.7-827.9c-302.8-463.8-833.7-734-1370.3-699.5c-500.2,32.6-929.5,281.7-1199.7,697.6c-168.7,256.8-226.2,460-249.2,881.6c-26.8,467.6-105.4,791.5-277.9,1146.1C4962.6-145.8,4265,398.6,3406.4,584.5C3199.4,628.5,2708.8,647.7,2501.8,619z"/></g></g>
</svg>