<?xml version="1.0" encoding="utf-8"?>
<!-- Svg Vector Icons : http://www.onlinewebfonts.com/icon -->
<!DOCTYPE svg PUBLIC "-//W3C//DTD SVG 1.1//EN" "http://www.w3.org/Graphics/SVG/1.1/DTD/svg11.dtd">
<svg version="1.1" xmlns="http://www.w3.org/2000/svg" xmlns:xlink="http://www.w3.org/1999/xlink" x="0px" y="0px" viewBox="0 0 1000 1000" enable-background="new 0 0 1000 1000" xml:space="preserve">
<metadata> Svg Vector Icons : http://www.onlinewebfonts.com/icon </metadata>
<g><g transform="translate(0.000000,512.000000) scale(0.100000,-0.100000)"><path d="M2017.2,4998.5c-195.5-51.8-364.2-197.5-456.2-393l-49.8-107.4V117.9v-4380.3l51.8-109.3c70.9-151.4,187.9-272.2,339.3-347l126.5-61.3H5000h2971.3l109.3,51.8c151.4,70.9,272.2,187.9,347,339.3l61.3,126.5V117.9v4380.3l-61.3,126.5c-74.7,151.4-195.5,268.4-347,339.3l-109.3,51.8l-2933,3.8C2757.1,5021.5,2086.2,5017.6,2017.2,4998.5z M7099.1,817.6v-2808.4H5000H2900.9V817.6v2808.4H5000h2099.1V817.6z M5479.2-2717.3c90.1-42.2,170.6-122.7,199.4-199.4c13.4-32.6,21.1-222.4,21.1-469.7c0-450.5-13.4-515.7-116.9-611.5c-82.4-74.7-138-82.4-582.8-82.4s-500.3,7.7-582.8,82.4c-103.5,95.8-116.9,161-116.9,611.5c0,440.9,7.7,486.9,92,578.9c107.4,113.1,162.9,126.5,607.7,126.5C5350.8-2680.9,5412.1-2686.7,5479.2-2717.3z"/></g></g>
</svg>