<?xml version="1.0" encoding="utf-8"?>
<!-- Svg Vector Icons : http://www.onlinewebfonts.com/icon -->
<!DOCTYPE svg PUBLIC "-//W3C//DTD SVG 1.1//EN" "http://www.w3.org/Graphics/SVG/1.1/DTD/svg11.dtd">
<svg version="1.1" xmlns="http://www.w3.org/2000/svg" xmlns:xlink="http://www.w3.org/1999/xlink" x="0px" y="0px" viewBox="0 0 1000 1000" enable-background="new 0 0 1000 1000" xml:space="preserve">
<metadata> Svg Vector Icons : http://www.onlinewebfonts.com/icon </metadata>
<g><g transform="translate(0.000000,300.000000) scale(0.100000,-0.100000)"><path d="M460.2,814.4C351,774.2,215,649.7,151.7,530.9L100,433.2v-2462.1V-4491l42.2-76.6c49.8-95.8,124.5-164.8,235.7-222.3l86.2-46l1856.6-5.7c2132.5-5.8,1975.4-17.2,2157.4,166.7c153.3,153.3,172.4,228,172.4,636.1v323.8h166.7h166.7l327.6-323.8c482.8-480.9,475.2-480.9,958,0c275.9,274,335.3,323.8,383.2,323.8c49.8,0,107.3-49.8,383.2-325.7c260.6-260.6,341-331.5,400.4-346.8c151.3-42.1,143.7-47.9,1337.4,1145.8c986.7,988.6,1105.5,1115.1,1118.9,1180.2c26.8,155.2,19.2,166.7-743.4,925.4c-461.7,459.8-743.4,726.2-795.1,753c-197.3,99.6-176.3,97.7-2002.2,97.7H4650.5V38.4c0,408.1-19.2,482.8-172.4,636.1c-182,183.9-28.7,170.5-2115.3,168.6C805.1,843.2,529.2,837.4,460.2,814.4z M3516.2-864l3.8-571h2161.2h2159.3l283.6-283.6l281.7-281.7l-450.3-450.3l-450.3-450.3l-168.6,168.6l-166.7,166.7h-517.3h-517.3l-162.9-162.9c-90-90.1-170.5-162.9-182-162.9s-92,72.8-182,162.9l-162.9,162.9h-961.8h-963.7l-3.8-569.1l-5.7-571l-1134.3-5.7L1240-3715v1714.8v1714.8l1136.2-3.8l1134.3-5.7L3516.2-864z"/><path d="M1948.9-902.3c-34.5-24.9-82.4-69-103.5-97.7c-40.2-53.7-40.2-70.9-40.2-1000.2c0-929.3,0-946.5,40.2-1000.2c21.1-28.7,69-72.8,103.5-95.8c59.4-42.2,82.4-44.1,417.7-44.1c327.6,0,358.3,3.8,427.3,42.2c47.9,26.8,88.1,70.9,113,120.7c36.4,76.6,38.3,118.8,38.3,977.2s-1.9,900.5-38.3,977.2c-24.9,49.8-65.1,93.9-113,120.7c-69,38.3-99.6,42.1-427.3,42.1C2031.3-860.1,2008.3-862.1,1948.9-902.3z"/></g></g>
</svg>