<?xml version="1.0" encoding="utf-8"?>
<!-- Svg Vector Icons : http://www.onlinewebfonts.com/icon -->
<!DOCTYPE svg PUBLIC "-//W3C//DTD SVG 1.1//EN" "http://www.w3.org/Graphics/SVG/1.1/DTD/svg11.dtd">
<svg version="1.1" xmlns="http://www.w3.org/2000/svg" xmlns:xlink="http://www.w3.org/1999/xlink" x="0px" y="0px" viewBox="0 0 1000 1000" enable-background="new 0 0 1000 1000" xml:space="preserve">
<metadata> Svg Vector Icons : http://www.onlinewebfonts.com/icon </metadata>
<g><g transform="translate(0.000000,426.000000) scale(0.100000,-0.100000)"><path d="M1496.2,3310.4c-112.8-32.5-185.5-97.5-239.1-206.6l-53.5-109l-5.7-2580l-3.8-2580.1l-547-784.2l-547-786.1l7.7-346.2c5.7-311.7,9.6-351.9,47.8-422.7c65-120.5,126.2-185.5,239.1-246.7l101.4-57.4H5000h4504.1l101.4,57.4c112.9,61.2,174.1,126.2,239.1,246.7c38.3,70.8,42.1,110.9,47.8,424.6l7.7,344.3l-547,784.1l-545.1,782.3l-5.7,2562.8l-5.7,2562.8l-55.5,101.4c-32.5,55.5-91.8,126.2-133.9,158.8c-164.5,120.5,59.3,112.8-3662.6,110.9C3076,3327.6,1524.9,3320,1496.2,3310.4z M7715.8,68.6v-2170.8H5000H2284.2V68.6v2170.8H5000h2715.8V68.6z M6090.2-3460.1v-267.8H5000H3909.8v267.8v267.8H5000h1090.2V-3460.1z"/><path d="M2972.7,1669.4c-42.1-23-84.2-66.9-110.9-120.5c-42.1-80.3-44-101.4-38.3-422.7c5.7-376.8,17.2-411.2,151.1-478.1c61.2-32.5,197-34.4,2021.6-34.4c2149.7,0,2040.7-5.7,2128.7,116.7c44,61.2,45.9,82.2,51.7,399.7c5.7,317.5,3.8,338.5-38.3,418.9c-86.1,166.4,82.2,154.9-2138.2,154.9C3139.1,1703.9,3035.8,1701.9,2972.7,1669.4z"/><path d="M3020.5,57.1c-32.5-7.6-78.4-34.4-103.3-57.4c-84.2-78.4-97.5-147.3-97.5-480.1c0-351.9,15.3-411.2,132-487.7l65-44H5000h1983.3l65,44c116.7,76.5,132,135.8,132,489.6c0,357.7-23,439.9-137.7,508.7c-61.2,38.3-107.1,38.3-2013.9,42.1C3932.8,74.3,3053,66.7,3020.5,57.1z"/></g></g>
</svg>