<?xml version="1.0" encoding="utf-8"?>
<!-- Svg Vector Icons : http://www.onlinewebfonts.com/icon -->
<!DOCTYPE svg PUBLIC "-//W3C//DTD SVG 1.1//EN" "http://www.w3.org/Graphics/SVG/1.1/DTD/svg11.dtd">
<svg version="1.1" xmlns="http://www.w3.org/2000/svg" xmlns:xlink="http://www.w3.org/1999/xlink" x="0px" y="0px" viewBox="0 0 1000 1000" enable-background="new 0 0 1000 1000" xml:space="preserve">
<metadata> Svg Vector Icons : http://www.onlinewebfonts.com/icon </metadata>
<g><g transform="translate(0.000000,512.000000) scale(0.100000,-0.100000)"><path d="M519.2,4990.7c-189.7-67.1-329.6-208.9-390.9-400.5C99.6,4505.9,97.6,4088.1,101.5,79l5.7-4417.3l47.9-95.8c59.4-122.7,174.4-237.6,297-297L548-4779h4455.6h4455.6l95.8,47.9c122.7,59.4,237.6,174.4,297,297l47.9,95.8V117.3V4573l-47.9,95.8c-59.4,122.6-174.4,237.6-297,297l-95.8,47.9l-4426.9,3.8C1044.3,5021.4,597.8,5019.5,519.2,4990.7z M8683.1,117.3v-3679.5H5003.6H1324.1V117.3v3679.5h3679.5h3679.5V117.3z"/><path d="M2732.7,2543.5c-78.6-34.5-159.1-132.2-172.5-208.9c-5.7-34.5-9.6-364.1-5.7-735.9c5.7-645.8,7.7-676.5,46-726.3c21.1-28.8,63.2-70.9,92-92c51.7-40.2,59.4-40.2,2311.2-40.2c2251.8,0,2259.4,0,2311.2,40.2c28.7,21.1,70.9,63.2,92,92c38.3,51.7,40.2,74.7,40.2,778.1s-1.9,726.3-40.2,778.1c-21.1,28.8-63.3,70.9-92,92c-51.7,40.2-63.2,40.2-2288.2,44.1C3196.5,2568.4,2778.7,2564.6,2732.7,2543.5z"/><path d="M2732.7-522.7c-78.6-34.5-159.1-132.2-172.5-208.9c-5.7-34.5-9.6-364.1-5.7-735.9c5.7-645.8,7.7-676.5,46-726.3c21.1-28.8,63.2-70.9,92-92c51.7-38.3,74.7-40.3,778.1-40.3s726.3,1.9,778.1,40.3c28.7,21.1,70.9,63.2,92,92c38.3,51.7,40.2,74.7,40.2,778s-1.9,726.3-40.2,778.1c-21.1,28.8-63.2,70.9-92,92c-49.8,38.3-78.6,40.2-755.1,44.1C2937.7-497.8,2778.7-501.7,2732.7-522.7z"/><path d="M5798.9-522.7c-78.6-34.5-159.1-132.2-172.5-208.9c-5.8-34.5-9.6-364.1-5.8-735.9c5.8-645.8,7.7-676.5,46-726.3c21.1-28.8,63.2-70.9,92-92c51.7-38.3,74.7-40.3,778.1-40.3s726.3,1.9,778,40.3c28.7,21.1,70.9,63.2,92,92c38.3,51.7,40.2,74.7,40.2,778s-1.9,726.3-40.2,778.1c-21.1,28.8-63.3,70.9-92,92c-49.8,38.3-78.6,40.2-755,44.1C6004-497.8,5844.9-501.7,5798.9-522.7z"/></g></g>
</svg>