<?xml version="1.0" encoding="utf-8"?>
<!-- Svg Vector Icons : http://www.onlinewebfonts.com/icon -->
<!DOCTYPE svg PUBLIC "-//W3C//DTD SVG 1.1//EN" "http://www.w3.org/Graphics/SVG/1.1/DTD/svg11.dtd">
<svg version="1.1" xmlns="http://www.w3.org/2000/svg" xmlns:xlink="http://www.w3.org/1999/xlink" x="0px" y="0px" viewBox="0 0 1000 1000" enable-background="new 0 0 1000 1000" xml:space="preserve">
<metadata> Svg Vector Icons : http://www.onlinewebfonts.com/icon </metadata>
<g><g transform="translate(0.000000,512.000000) scale(0.100000,-0.100000)"><path d="M5562.3,5011.2c-1319-118.9-2363.9-584.7-3211.3-1436C1731.8,2952.2,1292.8,2177.6,1093.4,1359C968.8,841.4,945.8,254.7,1030.1-261c59.4-360.4,205.1-805.2,370-1133.1l103.5-205.1l-143.8-178.3C886.3-2368,552.8-2862.6,347.6-3280.5c-189.8-383.4-245.4-571.3-247.3-834c-1.9-184,3.8-210.9,51.8-310.6c92-189.8,295.2-333.6,496.6-354.7c145.7-15.3,274.2,44.1,404.5,186c118.9,126.5,218.6,312.5,358.5,661.4c163,406.4,492.7,1062.1,701.7,1393.8l47.9,74.8l128.4-113.1c398.8-348.9,801.4-579,1301.8-743.8c417.9-138.1,632.7-170.6,1127.3-168.7c383.4,0,444.8,3.8,661.4,51.7c628.8,132.3,1296,452.5,1821.3,872.3c571.3,456.3,1023.8,1062.1,1282.6,1715.9c30.7,74.8,362.3,1098.6,740,2271.9C9864.5,3418,9908.5,3563.7,9899,3661.5c-15.3,143.8-49.9,193.6-239.6,325.9c-761.1,536.8-1664.1,864.6-2755,996.9C6609.1,5018.9,5834.6,5034.2,5562.3,5011.2z M6961.9,3669.2c147.6-21.1,381.5-67.1,517.6-99.7c442.9-105.4,1041-329.7,1019.9-383.4c-3.8-13.4-212.8-665.3-462.1-1447.5c-632.7-1982.4-609.7-1917.2-740-2166.4c-266.5-515.7-676.8-973.9-1159.9-1299.8c-922.1-619.3-1917.2-669.1-2728.1-136.1c-161,107.4-502.3,404.5-502.3,439c0,78.6,818.6,947.1,1217.4,1292.2c506.1,439,1230.8,941.3,1830.9,1269.2c216.6,118.9,412.2,233.9,435.2,255c136.1,126.5,70.9,385.3-107.4,439c-69,21.1-88.2,15.3-310.6-78.6c-324-136.1-1144.6-542.6-1436-711.3C3775.5,603.6,3202.3,179.9,2654-353l-262.6-255l-49.8,159.1c-103.5,337.4-130.4,517.6-132.3,887.7c0,281.8,7.7,383.4,42.2,561.7c184,920.2,753.5,1721.6,1568.2,2200.9c456.3,268.4,1021.8,429.4,1761.9,506.1C5876.7,3736.3,6655.1,3715.2,6961.9,3669.2z"/></g></g>
</svg>