<?xml version="1.0" encoding="utf-8"?>
<!-- Svg Vector Icons : http://www.onlinewebfonts.com/icon -->
<!DOCTYPE svg PUBLIC "-//W3C//DTD SVG 1.1//EN" "http://www.w3.org/Graphics/SVG/1.1/DTD/svg11.dtd">
<svg version="1.1" xmlns="http://www.w3.org/2000/svg" xmlns:xlink="http://www.w3.org/1999/xlink" x="0px" y="0px" viewBox="0 0 1000 1000" enable-background="new 0 0 1000 1000" xml:space="preserve">
<metadata> Svg Vector Icons : http://www.onlinewebfonts.com/icon </metadata>
<g><g transform="translate(0.000000,512.000000) scale(0.100000,-0.100000)"><path d="M4864.6,4711.5l-2488-314.1l-116.8-65.1c-283.5-155.1-396.5-499.9-258.6-793c86.2-183.9,283.5-325.6,482.7-344.8c63.2-5.7,999.8,105.3,2618.3,306.5C7875.5,3849.6,7728,3824.7,7887,3983.7c124.5,124.5,170.5,239.4,170.5,431c0,139.8-7.7,176.2-51.7,262.4c-109.2,210.7-295,333.3-521,342.8C7394.8,5023.7,6523.3,4920.3,4864.6,4711.5z"/><path d="M4868.4,2259.9C2139.1,1915.1,2280.8,1940,2121.8,1781c-126.4-126.4-172.4-239.4-170.5-430.9c0-132.2,9.6-180,46-258.6c91.9-189.6,287.3-329.4,486.5-348.6c63.2-5.7,999.8,105.4,2618.3,306.5C7875.5,1398,7728,1373.1,7887,1532c124.5,124.5,170.5,239.4,170.5,431c0,139.8-7.7,176.2-51.7,262.4c-109.2,210.7-295,333.3-521,342.9C7394.8,2572.1,6523.3,2468.7,4868.4,2259.9z"/><path d="M4868.4-191.8C2139.1-536.5,2280.8-511.6,2121.8-670.6c-126.4-124.5-172.4-239.4-172.4-431c0-134.1,9.6-180,47.9-258.6c93.8-189.6,287.3-329.5,486.5-348.6c63.2-5.7,999.8,105.4,2618.3,306.5C7875.5-1053.7,7728-1078.6,7887-919.6c124.5,124.5,170.5,239.4,170.5,430.9c0,139.8-7.7,176.2-51.7,262.4c-109.2,210.7-295,333.3-521,342.8C7394.8,120.4,6521.4,17,4868.4-191.8z"/><path d="M3347.6-2354.2c-78.5-34.5-159-132.2-172.4-208.8c-7.7-34.5-9.6-306.4-5.7-607.2l5.7-545.9l65.1-120.7c113-208.8,270.1-304.6,540.1-329.5c252.8-23,390.7-105.3,524.8-308.4c101.5-153.2,189.6-243.3,272-277.7c72.8-32.6,758.5-38.3,837-7.7c78.5,28.7,199.2,151.3,289.2,289.2c128.3,199.2,268.2,279.6,528.7,304.6c264.3,24.9,434.8,134.1,549.7,350.5l51.7,99.6v597.6c0,572.7-1.9,599.5-40.2,649.3c-21.1,28.7-63.2,70.9-91.9,91.9c-51.7,40.2-69,40.2-1674,44C3707.7-2329.3,3393.6-2333.1,3347.6-2354.2z"/></g></g>
</svg>