<?xml version="1.0" encoding="utf-8"?>
<!-- Svg Vector Icons : http://www.onlinewebfonts.com/icon -->
<!DOCTYPE svg PUBLIC "-//W3C//DTD SVG 1.1//EN" "http://www.w3.org/Graphics/SVG/1.1/DTD/svg11.dtd">
<svg version="1.1" xmlns="http://www.w3.org/2000/svg" xmlns:xlink="http://www.w3.org/1999/xlink" x="0px" y="0px" viewBox="0 0 1000 1000" enable-background="new 0 0 1000 1000" xml:space="preserve">
<metadata> Svg Vector Icons : http://www.onlinewebfonts.com/icon </metadata>
<g><g transform="translate(0.000000,512.000000) scale(0.100000,-0.100000)"><path d="M4625.4,4999.6C3445.1,4865.5,2412.4,4139.3,1895,3077.8C1354.7,1972.2,1442.8,663.5,2125-353.9c76.6-115,228-310.4,335.3-431.1c105.4-120.7,233.8-279.7,283.6-354.5c139.9-207,314.2-571,394.7-823.9c38.3-126.5,88.1-266.3,107.3-310.4c44.1-97.7,136-170.5,249.1-195.4c116.9-26.8,2891.3-26.8,3008.2,0c113,24.9,205,97.7,249.1,195.4c19.2,44.1,69,184,107.3,310.4c80.5,254.8,254.8,617,398.5,829.6c51.7,76.6,180.1,237.6,283.6,354.5c774.1,873.8,1067.3,1944.8,839.2,3056.1c-145.6,699.4-542.2,1383.4-1082.6,1864.3C6574.1,4786.9,5575.8,5106.9,4625.4,4999.6z M5248.2,3851.9c502-57.5,963.8-272.1,1329.7-622.7c745.4-708.9,935-1787.7,479-2697.8c-107.3-212.7-199.3-343-392.8-559.5c-293.2-331.5-486.7-618.9-668.7-996.4c-55.6-115-107.3-229.9-113.1-252.9l-13.4-44h-868h-866.1l-74.7,176.3C3901.2-777.4,3638.7-373,3334-28.2c-193.5,216.5-289.3,352.5-390.9,557.6c-321.9,643.8-331.5,1370-24.9,2011.9c120.7,252.9,222.3,400.5,412,599.7c206.9,214.6,415.8,369.8,672.5,492.4C4405.1,3827,4817,3899.8,5248.2,3851.9z"/><path d="M3403-3103.4c-38.3-24.9-78.6-72.8-101.6-126.4c-34.5-76.7-38.3-120.7-32.6-438.8c5.7-320,9.6-356.4,46-404.3c82.4-113,130.3-132.2,333.4-138l189.7-7.7l19.2-93.9c42.2-193.5,155.2-339.2,325.7-423.5c86.2-44,97.7-44,816.2-44c718.5,0,730,0,816.3,44c168.6,82.4,283.6,233.8,325.7,423.5l19.2,93.9l189.7,7.7c203.1,5.8,251,24.9,333.4,138c36.4,47.9,40.2,84.3,46,404.3c5.8,318.1,1.9,362.1-32.6,438.8c-23,53.6-63.2,101.5-101.6,126.4c-61.3,38.3-92,38.3-1596.1,38.3C3494.9-3065.1,3464.3-3065.1,3403-3103.4z"/></g></g>
</svg>