<?xml version="1.0" encoding="utf-8"?>
<!-- Svg Vector Icons : http://www.onlinewebfonts.com/icon -->
<!DOCTYPE svg PUBLIC "-//W3C//DTD SVG 1.1//EN" "http://www.w3.org/Graphics/SVG/1.1/DTD/svg11.dtd">
<svg version="1.1" xmlns="http://www.w3.org/2000/svg" xmlns:xlink="http://www.w3.org/1999/xlink" x="0px" y="0px" viewBox="0 0 1000 1000" enable-background="new 0 0 1000 1000" xml:space="preserve">
<metadata> Svg Vector Icons : http://www.onlinewebfonts.com/icon </metadata>
<g><g transform="translate(0.000000,256.000000) scale(0.100000,-0.100000)"><path d="M2277.2-1.4C1218.8-124.1,365.6-904.5,137.4-1962.9c-49.9-228.2-49.9-730.5,0-958.7c212.8-983.6,941.4-1714.2,1928.9-1928.9c141.9-30.7,251.2-36.4,839.8-36.4c581,0,678.8,3.8,694.1,28.8c9.6,15.3,19.2,34.5,19.2,42.2c0,9.6-86.3,107.4-191.7,220.5c-220.5,237.8-362.4,427.6-500.4,669.2c-140,247.3-141.9,249.3-402.7,260.8c-352.8,17.3-604,124.6-841.8,360.5c-143.8,145.7-232,283.8-302.9,483.2c-44.1,122.7-49.8,168.7-49.8,379.7c0,210.9,5.7,256.9,49.8,379.6c70.9,199.4,159.1,337.5,302.9,483.2c145.7,143.8,281.9,230.1,483.2,302.9l140,51.8h1160h1160l140-51.8c201.3-72.9,337.5-159.1,483.2-302.9c228.2-230.1,333.6-469.8,362.4-822.6c15.4-187.9,24.9-226.3,82.5-331.7c191.7-349,636.6-423.7,949.1-161.1c30.7,26.8,86.3,101.6,122.7,168.7c65.2,120.8,65.2,120.8,63.3,370.1c-1.9,446.8-145.7,891.6-414.2,1290.4C6068-551.7,5546.5-198.9,4904.1-39.7C4748.8-3.3,4685.5-1.4,3542.7,2.5C2883.2,4.4,2313.7,4.4,2277.2-1.4z"/><path d="M6415.1-7.1c-19.2-11.5-34.5-36.4-34.5-55.6c0-17.3,84.4-120.8,187.9-226.3c209-214.7,354.7-410.3,502.4-667.3c138.1-243.5,149.6-251.2,408.4-262.7c349-15.3,600.1-124.6,837.9-360.5c143.8-145.7,232-283.8,302.9-483.2c44.1-122.7,49.9-168.7,49.9-379.6c0-210.9-5.8-256.9-49.9-379.7c-70.9-199.4-159.1-337.5-302.9-483.2c-145.7-143.8-281.9-230.1-483.2-302.9l-140-51.8h-1160h-1160l-140,51.8c-201.3,72.9-337.5,159.1-483.2,302.9c-226.3,228.2-331.7,465.9-362.4,822.6c-17.3,184.1-28.8,230.1-80.5,329.8c-69,128.5-130.4,187.9-274.2,262.7c-82.5,42.2-122.7,49.9-260.8,49.9c-149.6,1.9-172.6-3.8-283.8-63.3c-287.6-155.3-372-402.7-302.9-883.9c57.5-395,224.3-805.3,452.5-1110.2c136.2-182.1,431.4-465.9,605.9-581c266.5-174.5,571.4-303,889.7-372c149.6-32.6,262.7-36.4,1399.7-36.4s1250.2,3.8,1399.7,36.4c987.5,216.7,1718,947.2,1928.9,1928.9c49.9,228.2,49.9,730.5,0,958.7c-105.5,487-335.5,912.7-676.9,1250.2c-285.7,283.8-544.5,448.7-906.9,581C7945.2-12.9,7868.5-3.3,7128.3,4.4C6664.3,10.1,6436.2,6.3,6415.1-7.1z"/></g></g>
</svg>