<?xml version="1.0" encoding="utf-8"?>
<!-- Svg Vector Icons : http://www.onlinewebfonts.com/icon -->
<!DOCTYPE svg PUBLIC "-//W3C//DTD SVG 1.1//EN" "http://www.w3.org/Graphics/SVG/1.1/DTD/svg11.dtd">
<svg version="1.1" xmlns="http://www.w3.org/2000/svg" xmlns:xlink="http://www.w3.org/1999/xlink" x="0px" y="0px" viewBox="0 0 1000 1000" enable-background="new 0 0 1000 1000" xml:space="preserve">
<metadata> Svg Vector Icons : http://www.onlinewebfonts.com/icon </metadata>
<g><g transform="translate(0.000000,512.000000) scale(0.100000,-0.100000)"><path d="M6965.3,5007.8c-423.8-57.5-857.2-234-1223.5-496.7c-132.3-95.9-1660.7-1605.1-1702.9-1679.9c-17.3-34.5-19.2-57.5-3.8-80.5c15.3-26.9,67.1-34.5,314.5-44.1c358.6-15.3,500.5-36.4,857.2-124.6c164.9-40.3,289.6-61.4,316.4-53.7c23,5.8,253.1,220.5,512,475.6c510.1,502.4,600.2,569.6,872.5,655.8c686.5,218.6,1405.6-153.4,1633.8-845.7c44.1-132.3,51.8-186,51.8-393.1c0-209-7.7-260.8-51.8-393.1c-103.6-310.7-107.4-316.4-1240.7-1447.8C6169.4-553.5,6161.7-559.2,5853-660.8c-128.5-42.2-189.8-49.9-383.5-51.8c-366.3-1.9-594.5,84.4-905.2,345.2c-138.1,117-193.7,151.5-301.1,184.1c-153.4,46-306.8,38.4-444.9-21.1c-118.9-53.7-266.6-199.4-327.9-326c-46-92-53.7-130.4-53.7-270.4c0-209,55.6-339.4,212.9-490.9c786.2-769,2002-951.2,2987.7-450.7c349,178.4,441.1,258.9,1503.4,1315.5C8693.1,121.6,9203.2,639.3,9276,723.7c301.1,356.7,487.1,740.2,588.7,1217.7c46,226.3,47.9,730.6,0,958.8c-224.4,1072-1016.4,1869.7-2067.2,2080.7C7619.2,5017.4,7143.6,5032.7,6965.3,5007.8z"/><path d="M4228.7,2246.3c-435.3-49.9-876.4-226.3-1248.4-500.5C2811.6,1621.2,953.4-214,725.2-484.4c-303-356.7-489-740.2-590.7-1217.7c-46-222.5-46-728.7,0-962.7c210.9-1058.6,1022.1-1869.7,2080.7-2080.7c234-46,740.2-46,962.7,0c387.4,82.5,736.4,232.1,1045.1,450.7c163,115.1,1630,1553.3,1699.1,1664.5c42.2,69.1,30.7,118.9-28.8,130.4c-21.1,5.8-182.2,13.4-356.7,19.2c-318.3,9.6-657.8,63.3-861,136.2c-46,15.3-122.7,28.8-170.7,28.8h-86.3l-462.1-454.5C3454-3265,3362-3334.1,3091.6-3420.4c-404.6-128.5-839.9-51.8-1192.8,209c-324.1,241.6-525.4,688.4-498.6,1106.5c5.8,94,30.7,228.2,59.5,316.4c95.9,301.1,113.1,322.2,1152.5,1367.3C3139.5,110,3634.3,595.2,3709,656.6c257,207.1,504.3,295.3,830.3,295.3c343.3,0,594.5-95.9,882.1-337.5c216.7-180.3,293.4-212.9,498.6-214.8c140-1.9,178.3,5.8,268.5,49.9c136.2,67.1,255,186,320.3,320.2c46,92.1,53.7,132.3,53.7,270.4c0,209-55.6,339.4-212.9,490.9C5801.2,2068,5007.3,2334.5,4228.7,2246.3z"/></g></g>
</svg>