<?xml version="1.0" encoding="utf-8"?>
<!-- Svg Vector Icons : http://www.onlinewebfonts.com/icon -->
<!DOCTYPE svg PUBLIC "-//W3C//DTD SVG 1.1//EN" "http://www.w3.org/Graphics/SVG/1.1/DTD/svg11.dtd">
<svg version="1.1" xmlns="http://www.w3.org/2000/svg" xmlns:xlink="http://www.w3.org/1999/xlink" x="0px" y="0px" viewBox="0 0 1000 1000" enable-background="new 0 0 1000 1000" xml:space="preserve">
<metadata> Svg Vector Icons : http://www.onlinewebfonts.com/icon </metadata>
<g><g transform="translate(0.000000,512.000000) scale(0.100000,-0.100000)"><path d="M6541.3,4993.7c-168.6-36.4-367.8-130.2-517.2-243.3C5844,4612.5,4032,2787.1,3988,2697.1c-59.4-118.8-80.5-272-59.4-419.5c17.2-128.3,214.5-1155,319.9-1668.4l55.6-268.2l-607.2-612.9c-565.1-568.9-611-620.6-651.3-727.9c-34.5-93.8-40.2-141.7-34.5-268.2c11.5-183.9,61.3-300.7,180.1-419.5c134.1-134.1,233.7-172.4,448.2-174.3c260.5,0,306.5,26.8,670.4,386.9l298.8,291.2l72.8-373.5l74.7-375.4l-591.9-591.9c-691.5-691.5-697.2-697.2-975-697.2c-275.8,0-289.2,9.6-921.3,645.5c-492.3,496.1-542.1,551.7-580.4,653.2c-53.6,145.6-53.6,321.8,0,467.4c38.3,103.4,95.8,166.6,821.7,896.4c496.1,500,793,812.2,816,862c26.8,57.5,36.4,118.8,36.4,249c0,145.6-7.7,189.6-49.8,279.7c-69,145.6-172.4,254.8-300.7,318c-93.9,46-132.2,53.6-272,53.6c-293.1,0-256.7,28.7-1337-1049.7C883-365.7,417.5-840.8,369.7-904c-195.4-254.7-289.2-563.1-266.2-871.5c13.4-201.1,49.8-329.5,151.3-526.8c74.7-145.6,126.4-203,1055.4-1135.9c538.2-542.1,1030.5-1022.9,1093.7-1070.8c226-172.4,519.1-273.9,787.3-273.9c260.5,0,563.1,105.4,783.4,273.9c180.1,136,1990.2,1963.3,2036.1,2053.4c49.8,101.5,67,185.8,65.1,325.6c-1.9,88.1-272,1538.1-363.9,1953.8l-17.2,76.6l597.6,603.4c693.4,701.1,689.6,695.3,689.6,976.9c0,160.9-5.7,193.5-53.6,281.6c-65.1,126.4-160.9,222.2-287.3,287.3c-88.1,47.9-120.7,53.6-281.6,53.6c-260.5,0-306.5-26.8-670.4-386.9l-298.8-291.1l-72.8,373.5l-74.7,375.4l591.9,591.9c670.4,672.3,699.1,691.5,946.2,703c113,5.8,168.6-1.9,258.6-34.5c107.3-40.2,153.2-80.5,672.3-601.5c521-519.1,561.2-565.1,601.5-672.3c34.5-91.9,40.2-143.7,34.5-258.6c-15.3-258.6-7.7-249-865.8-1111C6792.2,97.8,6706,5.9,6677.2-78.4c-40.2-124.5-40.2-362,1.9-490.4c42.1-130.3,168.6-270.1,308.4-339c93.9-46,132.2-53.6,272-53.6c293.1,0,256.7-28.7,1337,1049.7c519.1,519.1,984.6,994.1,1032.4,1057.3c193.5,252.8,289.2,567,268.2,871.5c-19.2,268.2-107.3,496.1-272,708.7c-46,57.5-524.8,545.9-1066.9,1084.1l-982.6,978.8l-182,90C7104.4,5020.5,6840.1,5055,6541.3,4993.7z"/></g></g>
</svg>