<?xml version="1.0" encoding="utf-8"?>
<!-- Svg Vector Icons : http://www.onlinewebfonts.com/icon -->
<!DOCTYPE svg PUBLIC "-//W3C//DTD SVG 1.1//EN" "http://www.w3.org/Graphics/SVG/1.1/DTD/svg11.dtd">
<svg version="1.1" xmlns="http://www.w3.org/2000/svg" xmlns:xlink="http://www.w3.org/1999/xlink" x="0px" y="0px" viewBox="0 0 1000 1000" enable-background="new 0 0 1000 1000" xml:space="preserve">
<metadata> Svg Vector Icons : http://www.onlinewebfonts.com/icon </metadata>
<g><g transform="translate(0.000000,512.000000) scale(0.100000,-0.100000)"><path d="M4856.9,5004.3c-99.6-24.9-258.6-122.6-316.1-191.6c-30.7-38.3-74.7-107.3-97.7-155.2l-44.1-86.2V3488.9V2406.4l65.1-120.7c72.8-132.2,153.3-210.7,289.3-275.9c128.4-63.2,375.5-61.3,507.7,3.8c122.6,59.4,237.6,174.3,297,297l47.9,95.8v1082.5v1082.5l-47.9,95.8c-61.3,122.6-176.3,237.6-297,295C5157.7,5012,4962.3,5031.2,4856.9,5004.3z"/><path d="M1759,3728.4c-160.9-59.4-310.4-210.7-367.9-373.6c-42.2-118.8-36.4-302.7,11.5-434.9c38.3-103.5,92-160.9,772.1-843c498.1-498.1,756.8-743.3,816.2-774c128.4-65.1,356.4-72.8,502-17.2c124.5,46,260.5,166.7,319.9,283.5c80.5,159,82.4,402.3,0,565.2c-26.8,51.7-295,335.3-770.2,810.4c-682.1,680.1-739.5,733.8-843,772.1C2069.4,3764.8,1872,3768.6,1759,3728.4z"/><path d="M7799.7,3715c-95.8-34.5-174.3-107.3-837.2-770.2c-457.9-457.9-745.3-758.7-768.3-808.5c-187.8-375.5,36.4-825.7,440.7-885.1c126.4-19.2,281.6,3.8,385.1,55.6c51.7,26.8,341,300.8,810.4,770.2c680.1,682.1,733.8,739.5,772.1,843c49.8,136,53.6,314.2,7.6,446.4c-44.1,128.4-229.9,314.2-358.3,358.3C8121.6,3768.6,7930,3764.8,7799.7,3715z"/><path d="M519.4,697.5C249.3,603.6,80.7,348.8,101.8,72.9c19.2-220.3,151.4-413.8,350.6-511.5l95.8-47.9h1082.5h1082.5l95.8,47.9c122.6,59.4,237.6,174.4,297,297c67.1,137.9,67.1,379.3,0,517.3c-59.4,122.6-174.3,237.6-297,297l-95.8,47.9l-1053.7,3.8C737.8,728.1,594.1,724.3,519.4,697.5z"/><path d="M7263.3,697.5c-270.1-93.9-438.7-348.7-417.7-624.6c19.2-220.3,151.3-413.8,350.6-511.5l95.8-47.9h1082.5H9457l95.8,47.9c122.6,61.3,237.6,176.3,297,297c67.1,139.9,67.1,381.3,0,517.3c-59.4,122.6-174.3,237.6-297,297l-95.8,47.9l-1053.7,3.8C7481.7,728.1,7338,724.3,7263.3,697.5z"/><path d="M3161.4-1013.4c-178.2-30.7-231.8-74.7-986.7-829.6c-680.1-682-733.8-739.5-772.1-843c-49.8-136-53.7-314.2-7.7-446.4c44.1-128.4,229.9-314.2,358.3-358.3c132.2-46,310.4-42.2,446.4,7.6c103.5,38.3,160.9,92,843,772.1c475.1,475.1,743.3,758.7,770.2,810.4c78.6,155.2,82.4,406.2,7.7,549.9C3697.8-1107.3,3429.6-969.3,3161.4-1013.4z"/><path d="M6627.2-1015.3c-178.2-28.7-354.4-160.9-442.6-333.4c-78.6-155.2-74.7-387,9.6-555.6c23-47.9,312.3-350.6,768.3-806.6c682.1-680.1,739.5-733.8,843-772.1c136-49.8,314.2-53.6,446.4-7.6c128.4,44.1,314.2,229.9,358.3,358.3c46,132.2,42.2,310.4-7.6,446.4c-38.3,103.5-92,160.9-772.1,843c-624.6,626.5-745.3,739.5-835.3,777.8C6872.4-1009.6,6753.7-994.2,6627.2-1015.3z"/><path d="M4811-1752.9c-189.7-69-325.7-206.9-390.8-396.6c-26.8-80.5-30.7-220.3-30.7-1103.5c0-1130.4,0-1122.7,132.2-1297c44.1-59.4,113-115,193.5-159c116.9-63.2,136-69,287.4-67.1c132.2,0,180.1,9.6,258.7,46c120.7,59.4,237.6,174.3,297,297l47.9,95.8V-3255v1082.5l-47.9,95.8c-61.3,122.6-176.3,237.6-297,295C5136.7-1722.3,4931.7-1708.9,4811-1752.9z"/></g></g>
</svg>