<?xml version="1.0" encoding="utf-8"?>
<!-- Svg Vector Icons : http://www.onlinewebfonts.com/icon -->
<!DOCTYPE svg PUBLIC "-//W3C//DTD SVG 1.1//EN" "http://www.w3.org/Graphics/SVG/1.1/DTD/svg11.dtd">
<svg version="1.1" xmlns="http://www.w3.org/2000/svg" xmlns:xlink="http://www.w3.org/1999/xlink" x="0px" y="0px" viewBox="0 0 1000 1000" enable-background="new 0 0 1000 1000" xml:space="preserve">
<metadata> Svg Vector Icons : http://www.onlinewebfonts.com/icon </metadata>
<g><g transform="translate(0.000000,512.000000) scale(0.100000,-0.100000)"><path d="M1129.3,4989c-189.7-65.2-329.6-208.9-390.9-400.5c-28.7-84.3-30.7-502-26.8-4510.8l5.7-4416.9l47.9-95.8c59.4-122.6,174.4-237.6,297-297l95.8-47.9h3842.1h3842.1l95.8,47.9c122.6,59.4,237.6,174.4,297,297l47.9,95.8l5.8,3315.1c3.8,2489.2,0,3341.9-17.2,3420.5c-53.7,252.9-53.7,252.9-1203.4,1400.8c-1124.8,1126.7-1134.4,1134.4-1372,1197.6c-78.6,21.1-599.8,26.8-2788.1,24.9C1510.6,5019.7,1205.9,5015.8,1129.3,4989z M5617.1,2666.5c5.8-1107.6,5.8-1130.6,46-1182.3c21.1-28.7,63.2-70.9,92-92c51.7-40.2,74.7-40.2,1182.3-46l1128.7-3.8v-2452.8v-2452.8h-3066h-3066V116v3679.2h1839.6h1839.6L5617.1,2666.5z"/><path d="M4300.6,1325.1c-21.1-9.6-65.2-46-97.7-80.5C4143.5,1181.4,2796.4-547,2629.7-773.1c-113.1-151.4-109.2-252.9,7.7-314.3c28.8-15.3,208.9-23,588.3-23h546.1l5.8-822.1c5.7-797.1,7.7-824,46-875.7c97.7-130.3,101.6-132.2,563.4-132.2s465.6,1.9,563.4,132.2c38.3,51.7,40.2,78.6,46,875.7l5.8,822.1h553.8h551.9l59.4,49.8c65.2,55.6,76.7,118.8,32.6,201.2c-34.5,67.1-1603.9,2083-1665.2,2140.4C4482.7,1330.9,4362,1352,4300.6,1325.1z"/></g></g>
</svg>