<?xml version="1.0" encoding="utf-8"?>
<!-- Svg Vector Icons : http://www.onlinewebfonts.com/icon -->
<!DOCTYPE svg PUBLIC "-//W3C//DTD SVG 1.1//EN" "http://www.w3.org/Graphics/SVG/1.1/DTD/svg11.dtd">
<svg version="1.1" xmlns="http://www.w3.org/2000/svg" xmlns:xlink="http://www.w3.org/1999/xlink" x="0px" y="0px" viewBox="0 0 1000 1000" enable-background="new 0 0 1000 1000" xml:space="preserve">
<metadata> Svg Vector Icons : http://www.onlinewebfonts.com/icon </metadata>
<g><g transform="translate(0.000000,512.000000) scale(0.100000,-0.100000)"><path d="M4382.9,4997.9C2758.2,4794.8,1350,3800.4,625.8,2342.4C83.6,1252.3-40.9,70.1,259.9-1115.8c86.2-339.1,174.4-570.9,354.4-936.9c252.9-515.4,559.5-933,979-1341.1c881.3-856.4,2013.6-1339.2,3245.6-1383.3c816.2-28.7,1594,139.9,2325.9,503.9c1247.2,620.8,2174.6,1732,2559.6,3071.2c72.8,254.8,151.4,682.1,172.4,931.2c13.4,180.1-15.3,258.6-122.6,329.5c-61.3,42.1-82.4,44.1-448.3,44.1c-350.6,0-390.8-3.8-467.5-40.2C8739.7,5,8688-94.6,8661.2-309.2C8461.9-1930.1,7233.8-3223.3,5634-3501.1c-1628.5-283.6-3259,569-3962.1,2071.1C903.6,208.1,1457.3,2196.8,2957.5,3193.1c473.2,312.3,996.3,509.6,1551.9,578.6c281.6,36.4,293.1,40.2,375.5,99.6c105.4,80.5,116.9,132.2,116.9,553.7c0,417.7-11.5,471.3-120.7,548C4806.4,5026.6,4664.6,5034.3,4382.9,4997.9z"/></g></g>
</svg>