<?xml version="1.0" encoding="utf-8"?>
<!-- Svg Vector Icons : http://www.onlinewebfonts.com/icon -->
<!DOCTYPE svg PUBLIC "-//W3C//DTD SVG 1.1//EN" "http://www.w3.org/Graphics/SVG/1.1/DTD/svg11.dtd">
<svg version="1.1" xmlns="http://www.w3.org/2000/svg" xmlns:xlink="http://www.w3.org/1999/xlink" x="0px" y="0px" viewBox="0 0 1000 1000" enable-background="new 0 0 1000 1000" xml:space="preserve">
<metadata> Svg Vector Icons : http://www.onlinewebfonts.com/icon </metadata>
<g><g transform="translate(0.000000,512.000000) scale(0.100000,-0.100000)"><path d="M9108.9,4991.2c-51.7-19.2-2039.7-1070.6-4414.5-2338.5C1406,898.5,356.5,331.6,295.2,272.2c-101.5-99.6-180-273.9-193.4-429C82.6-415.4,222.4-672,450.3-792.7l97.7-51.7l1920.9-5.7l1919-3.8V-2817v-1963.1h647.3h647.4l34.5,72.8c363.9,752.7,4110,8765.9,4144.5,8861.6c82.4,235.6,30.7,488.4-139.8,676.1C9574.3,4995.1,9310,5064,9108.9,4991.2z M7906.2,2886.4c-3.8-9.6-519-1108.9-1145.3-2445.7L5623.3-1989.7l-9.6,974.8C5604.1-3.6,5602.2,7.9,5521.8,142c-55.5,90-166.6,195.4-262.4,245.1l-95.8,51.7l-921.2,9.6l-921.2,9.6l2288.7,1221.9c1260.2,670.3,2294.4,1220,2298.2,1220S7910,2894.1,7906.2,2886.4z"/></g></g>
</svg>