<?xml version="1.0" encoding="utf-8"?>
<!-- Svg Vector Icons : http://www.onlinewebfonts.com/icon -->
<!DOCTYPE svg PUBLIC "-//W3C//DTD SVG 1.1//EN" "http://www.w3.org/Graphics/SVG/1.1/DTD/svg11.dtd">
<svg version="1.1" xmlns="http://www.w3.org/2000/svg" xmlns:xlink="http://www.w3.org/1999/xlink" x="0px" y="0px" viewBox="0 0 1000 1000" enable-background="new 0 0 1000 1000" xml:space="preserve">
<metadata> Svg Vector Icons : http://www.onlinewebfonts.com/icon </metadata>
<g><g transform="translate(0.000000,512.000000) scale(0.100000,-0.100000)"><path d="M4735.8,5011.8c-730.1-93.9-1370.1-484.8-1776.3-1090.3c-162.9-241.4-295.1-561.4-362.2-871.9c-49.8-228-49.8-730.1,0-958.1c168.6-781.8,659.2-1395,1393.1-1741.8c195.4-93.9,304.7-178.2,364.1-289.4c21.1-38.3,28.7-264.4,36.4-1124.8c9.6-1050.1,11.5-1076.9,49.8-1128.6c97.7-130.3,101.6-132.2,563.4-132.2c461.8,0,465.6,1.9,563.4,132.2c38.3,51.7,40.2,78.6,49.8,1128.6c9.6,971.5,13.4,1082.6,42.2,1136.3c59.4,109.2,149.5,180.1,354.5,275.9c293.2,138,505.9,287.4,724.3,505.9c350.7,352.6,567.2,751.2,672.6,1237.9c49.8,228,49.8,730.1,0,958.1c-107.3,496.3-320,887.2-680.3,1247.5c-354.5,354.5-726.2,561.4-1209.1,670.7C5362.5,5004.1,4887.2,5030.9,4735.8,5011.8z M5262.8,3768.1c456.1-95.8,843.1-482.9,938.9-938.9c182-869.9-586.4-1638.3-1456.3-1456.3c-348.8,72.8-674.5,325.8-831.6,641.9c-180.1,367.9-180.1,743.5,0,1111.4C4155.3,3614.8,4716.7,3883.1,5262.8,3768.1z"/><path d="M566.2,713.7c-90.1-23-254.9-118.8-306.6-180.1C232.8,501,188.7,432,160,378.4l-51.7-97.7L102.5-1990C96.7-4521.3,89.1-4364.2,229-4548.2c46-61.3,113.1-116.9,195.5-161l124.6-69h4455.2h4455.2l97.7,51.7c145.6,76.6,205,134.1,277.9,268.3l65.2,120.7v2309v2309l-69,124.6c-78.6,143.7-201.2,247.2-346.8,295.1c-134.1,42.2-1023.2,46-1144,1.9c-137.9-47.9-247.2-139.9-392.8-331.5c-187.8-247.2-344.9-415.8-549.9-590.2c-197.4-166.7-222.3-201.2-178.2-245.3c24.9-26.8,120.7-30.7,747.3-30.7h716.7v-1533v-1533H5004.1H1325v1533v1533h716.7c618.9,0,722.4,3.8,747.3,28.7c15.3,17.3,24.9,42.2,19.2,57.5c-5.7,15.3-99.6,103.5-208.9,199.3C2386.6-24,2200.7,177.2,2030.2,409c-118.8,159-239.5,254.8-375.6,295.1C1560.7,732.9,679.3,740.5,566.2,713.7z"/></g></g>
</svg>