<?xml version="1.0" encoding="utf-8"?>
<!-- Svg Vector Icons : http://www.onlinewebfonts.com/icon -->
<!DOCTYPE svg PUBLIC "-//W3C//DTD SVG 1.1//EN" "http://www.w3.org/Graphics/SVG/1.1/DTD/svg11.dtd">
<svg version="1.1" xmlns="http://www.w3.org/2000/svg" xmlns:xlink="http://www.w3.org/1999/xlink" x="0px" y="0px" viewBox="0 0 1000 1000" enable-background="new 0 0 1000 1000" xml:space="preserve">
<metadata> Svg Vector Icons : http://www.onlinewebfonts.com/icon </metadata>
<g><g transform="translate(0.000000,512.000000) scale(0.100000,-0.100000)"><path d="M4702.7,5014.3c-30.6-3.8-134.1-17.2-229.8-28.7c-241.3-30.6-591.8-120.7-852.3-222.2C1785.7,4056.7,657.5,1999.6,1006.1-3.8c193.5-1110.9,988.3-2373.1,2191.1-3482.1C3877.2-4112.1,4718-4742.3,4911.5-4771c210.7-32.6,283.5,3.8,863.8,440.5c1199,900.2,2158.6,1944,2698.7,2940c501.8,921.3,674.2,1796.6,538.2,2731.2c-272,1873.2-1654.8,3346-3418.8,3637.2C5419,5006.7,4823.3,5031.6,4702.7,5014.3z M5593.3,3727.2c1149.2-270.1,1991.9-1162.6,2242.8-2378.8c55.5-262.4,70.9-791,30.7-1043.9c-153.2-957.7-800.6-2013-1894.2-3083.7c-317.9-314.1-496.1-473.1-787.2-706.8l-187.7-151.3l-157.1,122.6C3815.9-2725.5,2954-1727.6,2500.1-806.3c-277.7,565-371.6,909.8-386.9,1426.9c-17.2,568.8,70.9,999.8,304.5,1493.9c417.5,884.9,1225.8,1495.9,2175.8,1647.2C4785,3792.4,5407.5,3769.4,5593.3,3727.2z"/><path d="M4760.1,2535.9c-702.9-111.1-1266-651.2-1449.9-1392.4c-63.2-252.8-57.5-672.3,9.6-927c88.1-337.1,229.8-591.8,463.5-838.9c224.1-235.6,455.8-379.2,770-475c149.4-44.1,199.2-49.8,446.3-49.8s296.9,5.8,446.3,49.8c310.3,95.8,542.1,237.5,762.3,465.4c538.2,563.1,678,1369.5,365.8,2108.8c-164.7,394.5-513.3,752.7-898.3,928.9C5415.2,2524.4,5032.1,2578.1,4760.1,2535.9z M5242.8,1256.5c339-174.3,436.7-639.7,199.2-953.8c-103.4-136-268.1-218.4-442.4-218.4c-111.1,0-149.4,9.6-250.9,63.2c-465.4,239.4-419.5,951.9,72.8,1135.8C4924.9,1321.6,5141.3,1308.2,5242.8,1256.5z"/></g></g>
</svg>