<?xml version="1.0" encoding="utf-8"?>
<!-- Svg Vector Icons : http://www.onlinewebfonts.com/icon -->
<!DOCTYPE svg PUBLIC "-//W3C//DTD SVG 1.1//EN" "http://www.w3.org/Graphics/SVG/1.1/DTD/svg11.dtd">
<svg version="1.1" xmlns="http://www.w3.org/2000/svg" xmlns:xlink="http://www.w3.org/1999/xlink" x="0px" y="0px" viewBox="0 0 1000 1000" enable-background="new 0 0 1000 1000" xml:space="preserve">
<metadata> Svg Vector Icons : http://www.onlinewebfonts.com/icon </metadata>
<g><g transform="translate(0.000000,512.000000) scale(0.100000,-0.100000)"><path d="M4702.7,5014.3c-30.6-3.8-134.1-17.2-229.8-28.7c-241.3-30.6-591.8-120.7-852.3-222.2C1785.7,4056.7,657.5,1999.6,1006.1-3.8c193.5-1110.9,988.3-2373.1,2191.1-3482.1C3877.2-4112.1,4718-4742.3,4911.5-4771c210.7-32.6,283.5,3.8,863.8,440.5c1199,900.2,2158.6,1944,2698.7,2940c501.8,921.3,674.2,1796.6,538.2,2731.2c-272,1873.2-1654.8,3346-3418.8,3637.2C5419,5006.7,4823.3,5031.6,4702.7,5014.3z M5593.3,3727.2c1149.2-270.1,1991.9-1162.6,2242.8-2378.8c55.5-262.4,70.9-791,30.7-1043.9c-153.2-957.7-800.6-2013-1894.2-3083.7c-317.9-314.1-496.1-473.1-787.2-706.8l-187.7-151.3l-157.1,122.6C3815.9-2725.5,2954-1727.6,2500.1-806.3c-277.7,565-371.6,909.8-386.9,1426.9c-17.2,568.8,70.9,999.8,304.5,1493.9c417.5,884.9,1225.8,1495.9,2175.8,1647.2C4785,3792.4,5407.5,3769.4,5593.3,3727.2z"/><path d="M4880.8,1919.2c-465.4-46-858.1-396.5-992.1-884.9c-51.7-183.9-55.5-480.7-11.5-653.1c114.9-432.9,446.3-779.6,854.2-892.6c145.6-40.2,450.1-30.6,593.8,19.2c302.6,105.3,551.6,319.9,687.6,597.6c107.3,220.3,137.9,352.4,137.9,591.8c0,237.5-30.6,371.6-134.1,584.2C5800.2,1718.1,5357.7,1967.1,4880.8,1919.2z"/></g></g>
</svg>