<?xml version="1.0" encoding="utf-8"?>
<!-- Svg Vector Icons : http://www.onlinewebfonts.com/icon -->
<!DOCTYPE svg PUBLIC "-//W3C//DTD SVG 1.1//EN" "http://www.w3.org/Graphics/SVG/1.1/DTD/svg11.dtd">
<svg version="1.1" xmlns="http://www.w3.org/2000/svg" xmlns:xlink="http://www.w3.org/1999/xlink" x="0px" y="0px" viewBox="0 0 1000 1000" enable-background="new 0 0 1000 1000" xml:space="preserve">
<metadata> Svg Vector Icons : http://www.onlinewebfonts.com/icon </metadata>
<g><g transform="translate(0.000000,512.000000) scale(0.100000,-0.100000)"><path d="M4598.8,5000.4c-375.2-40.2-827-172.3-1198.4-352.2c-390.5-189.5-719.8-430.7-1045.2-771.5c-836.6-874.9-1179.2-2052.2-964.8-3309.9C1643-907.2,2692.1-2628.3,4351.9-4288c430.7-430.7,509.2-492,647-492c135.9,0,216.3,61.3,627.9,472.9C7749.8-2186,8829.5-53.4,8653.4,1673.3c-118.7,1175.4-779.1,2222.6-1788,2831.3C6204.9,4902.8,5387.5,5082.8,4598.8,5000.4z M5515.8,3740.8c851.9-193.4,1539.1-815.5,1816.7-1644.4c193.3-578.1,168.5-1188.8-74.7-1920.1c-319.7-961-997.4-2013.9-2008.1-3126.2c-130.2-143.6-243.1-260.3-248.9-260.3c-17.2,0-308.2,315.9-539.9,583.9C3624.4-1657.7,3029-689,2740,176.3c-291,871-269.9,1590.8,63.2,2253.2c373.3,742.8,1095,1248.2,1927.8,1355.4C4882.1,3804,5356.9,3777.2,5515.8,3740.8z"/><path d="M4730.9,2540.5c-448-95.7-834.7-486.3-928.5-936.1C3620.6,735.3,4388.2-32.4,5257.3,149.5c551.3,114.9,966.8,629.8,966.8,1196.5C6224.1,2123.2,5496.6,2705.1,4730.9,2540.5z"/></g></g>
</svg>