<?xml version="1.0" encoding="utf-8"?>
<!-- Svg Vector Icons : http://www.onlinewebfonts.com/icon -->
<!DOCTYPE svg PUBLIC "-//W3C//DTD SVG 1.1//EN" "http://www.w3.org/Graphics/SVG/1.1/DTD/svg11.dtd">
<svg version="1.1" xmlns="http://www.w3.org/2000/svg" xmlns:xlink="http://www.w3.org/1999/xlink" x="0px" y="0px" viewBox="0 0 1000 1000" enable-background="new 0 0 1000 1000" xml:space="preserve">
<metadata> Svg Vector Icons : http://www.onlinewebfonts.com/icon </metadata>
<g><g transform="translate(0.000000,512.000000) scale(0.100000,-0.100000)"><path d="M4702.9,5013.4c-364.2-40.2-734.2-147.6-1073.5-316.3c-302.9-149.5-548.2-327.8-795.5-573.1c-435.1-437.1-720.8-971.9-845.4-1583.4c-34.5-172.5-44.1-297.1-51.8-701.6l-7.7-492.6l-377.6-5.7c-364.2-5.8-379.6-7.7-471.6-57.5c-124.6-63.3-247.3-199.4-312.4-337.4l-51.8-109.3v-2587.8v-2587.8l47.9-95.8c59.4-122.7,174.4-237.7,297.1-297.1l95.8-47.9H5000h3843.4l95.8,47.9c122.7,59.4,237.7,174.4,297.1,297.1l47.9,95.8v2587.8V836.5l-51.8,109.3c-65.2,138-187.9,274.1-312.4,337.4c-92,49.8-107.3,51.8-471.6,57.5l-377.6,5.7l-9.6,502.2c-7.7,402.5-19.2,540.6-49.9,692c-258.8,1247.9-1198.1,2185.3-2430.6,2426.8C5379.5,5007.7,4886.9,5032.6,4702.9,5013.4z M5442.8,3742.5c337.4-88.2,607.7-243.4,853-488.8c245.4-243.4,398.7-509.9,490.7-853c34.5-122.7,42.2-218.5,49.8-600l7.7-456.2H5000H3155.9l7.7,456.2c7.7,381.5,15.3,477.3,49.8,600c92,343.1,245.4,609.6,490.7,853c277.9,277.9,590.4,442.8,975.7,517.6C4871.6,3807.7,5253,3794.3,5442.8,3742.5z M8067-1722.5v-1840.2H5000H1933v1840.2V117.7h3067h3067V-1722.5z"/></g></g>
</svg>