<?xml version="1.0" encoding="utf-8"?>
<!-- Svg Vector Icons : http://www.onlinewebfonts.com/icon -->
<!DOCTYPE svg PUBLIC "-//W3C//DTD SVG 1.1//EN" "http://www.w3.org/Graphics/SVG/1.1/DTD/svg11.dtd">
<svg version="1.1" xmlns="http://www.w3.org/2000/svg" xmlns:xlink="http://www.w3.org/1999/xlink" x="0px" y="0px" viewBox="0 0 1000 1000" enable-background="new 0 0 1000 1000" xml:space="preserve">
<metadata> Svg Vector Icons : http://www.onlinewebfonts.com/icon </metadata>
<g><g transform="translate(0.000000,512.000000) scale(0.100000,-0.100000)"><path d="M4702.9,5013.4c-1361-145.7-2444-1132.9-2714.3-2474.7c-34.5-168.7-44.1-297.1-49.8-697.8l-9.6-492.6l-84.3-11.5c-189.8-24.9-377.6-164.8-467.7-346.9l-47.9-95.8v-2616.6v-2616.6l47.9-95.8c59.4-122.7,174.4-237.7,297.1-297.1l95.8-47.9h3230h3230l95.8,47.9c122.7,59.4,237.7,174.4,297.1,297.1l47.9,95.8v2616.6V894l-47.9,95.8c-90.1,182.1-278,322-467.7,346.9l-84.3,11.5l-9.6,502.2c-7.7,400.6-19.2,538.7-49.8,690.1c-258.8,1247.9-1198.1,2185.3-2430.6,2426.8C5379.5,5007.7,4886.9,5032.6,4702.9,5013.4z M5442.8,3742.5c337.4-88.2,607.7-243.5,853-488.8c245.4-243.5,398.7-509.9,490.7-853c34.5-122.7,42.2-218.5,49.8-600l7.7-456.2H5000H3155.9l7.7,456.2c7.7,381.5,15.3,477.3,49.8,600c92,343.1,245.4,609.6,490.7,853c277.9,277.9,590.4,442.8,975.7,517.6C4871.6,3807.7,5253,3794.3,5442.8,3742.5z M7453.6-1722.6v-1840.2H5000H2546.4v1840.2V117.7H5000h2453.6V-1722.6z"/></g></g>
</svg>