<?xml version="1.0" encoding="utf-8"?>
<!-- Svg Vector Icons : http://www.onlinewebfonts.com/icon -->
<!DOCTYPE svg PUBLIC "-//W3C//DTD SVG 1.1//EN" "http://www.w3.org/Graphics/SVG/1.1/DTD/svg11.dtd">
<svg version="1.1" xmlns="http://www.w3.org/2000/svg" xmlns:xlink="http://www.w3.org/1999/xlink" x="0px" y="0px" viewBox="0 0 1000 1000" enable-background="new 0 0 1000 1000" xml:space="preserve">
<metadata> Svg Vector Icons : http://www.onlinewebfonts.com/icon </metadata>
<g><g transform="translate(0.000000,512.000000) scale(0.100000,-0.100000)"><path d="M519.2,4990.7c-189.7-67.1-329.6-208.9-390.9-400.5c-28.7-82.4-30.7-231.9-26.8-1266.7c5.7-1149.8,5.7-1172.8,46-1224.6c97.7-130.3,101.6-132.2,563.4-132.2c461.9,0,465.7,1.9,563.4,132.2c38.3,51.7,40.2,78.6,46,875.8l5.8,822.1h3677.6h3679.5V117.3v-3679.5H5003.6H1326.1l-5.8,822.1c-5.7,797.2-7.7,824-46,875.8c-97.7,130.3-101.6,132.2-563.4,132.2c-461.9,0-465.7-1.9-563.4-132.2c-40.2-51.8-40.2-70.9-40.2-1262.9v-1211.2l47.9-95.8c59.4-122.7,174.4-237.6,297-297L548-4779h4455.6h4455.6l95.8,47.9c122.7,59.4,237.6,174.4,297,297l47.9,95.8V117.3V4573l-47.9,95.8c-59.4,122.6-174.4,237.6-297,297l-95.8,47.9l-4426.9,3.8C1044.3,5021.4,597.8,5019.5,519.2,4990.7z"/><path d="M3851.9,1932.2c-69-53.7-74.7-97.7-74.7-653.5V730.6l-1742-3.8C308.4,721,291.2,721,239.5,680.8C109.1,583,107.2,579.2,107.2,117.3s1.9-465.7,132.2-563.4c51.7-40.3,69-40.3,1795.7-46l1742-3.8v-546.2c0-364.1,7.7-559.6,21.1-592.1c26.8-59.4,113.1-95.8,184-80.5c53.7,13.4,2033.3,1535,2171.3,1671.1c59.4,57.5,67.1,78.6,67.1,159.1c0,74.7-9.6,105.4-47.9,145.7c-70.9,76.7-2106.1,1657.7-2159.8,1678.8C3949.6,1962.8,3888.3,1960.9,3851.9,1932.2z"/></g></g>
</svg>