<?xml version="1.0" encoding="utf-8"?>
<!-- Svg Vector Icons : http://www.onlinewebfonts.com/icon -->
<!DOCTYPE svg PUBLIC "-//W3C//DTD SVG 1.1//EN" "http://www.w3.org/Graphics/SVG/1.1/DTD/svg11.dtd">
<svg version="1.1" xmlns="http://www.w3.org/2000/svg" xmlns:xlink="http://www.w3.org/1999/xlink" x="0px" y="0px" viewBox="0 0 1000 1000" enable-background="new 0 0 1000 1000" xml:space="preserve">
<metadata> Svg Vector Icons : http://www.onlinewebfonts.com/icon </metadata>
<g><g transform="translate(0.000000,512.000000) scale(0.100000,-0.100000)"><path d="M519.2,4990.7c-189.7-67.1-329.6-208.9-390.9-400.5C99.6,4505.9,97.6,4088.1,101.5,79l5.7-4417.3l47.9-95.8c59.4-122.7,174.4-237.6,297-297L548-4779h4455.6h4455.6l95.8,47.9c122.7,59.4,237.6,174.4,297,297l47.9,95.8v1211.2c0,1192,0,1211.2-40.2,1262.9c-97.8,130.3-101.6,132.2-563.4,132.2s-465.7-1.9-563.4-132.2c-38.3-51.8-40.2-78.6-46-875.8l-5.7-822.1H5003.6H1324.1V117.3v3679.5h3679.5h3677.6l5.7-822.1c5.8-797.2,7.7-824.1,46-875.8c97.7-130.3,101.6-132.2,563.4-132.2s465.7,1.9,563.4,132.2c40.2,51.7,40.2,70.9,40.2,1262.9V4573l-47.9,95.8c-59.4,122.6-174.4,237.6-297,297l-95.8,47.9l-4426.9,3.8C1044.3,5021.4,597.8,5019.5,519.2,4990.7z"/><path d="M5921.6,1895.8C5722.3,1752,3878.7,307.1,3834.6,261.1c-38.3-40.2-47.9-70.9-47.9-145.7c0-80.5,7.7-101.6,67.1-159.1c136.1-136.1,2115.7-1657.7,2169.4-1671.1c72.8-15.3,159.1,21.1,185.9,80.5c13.4,32.6,21.1,228,21.1,592.1v546.2l1742,3.8c1726.7,5.7,1743.9,5.7,1795.6,46c130.3,97.7,132.2,101.6,132.2,563.4s-1.9,465.7-132.2,563.4c-51.7,40.2-69,40.2-1795.6,46l-1742,3.8v548.1c0,379.4-7.7,559.6-23,588.3C6149.6,1974.3,6046.1,1985.8,5921.6,1895.8z"/></g></g>
</svg>