<?xml version="1.0" encoding="utf-8"?>
<!-- Svg Vector Icons : http://www.onlinewebfonts.com/icon -->
<!DOCTYPE svg PUBLIC "-//W3C//DTD SVG 1.1//EN" "http://www.w3.org/Graphics/SVG/1.1/DTD/svg11.dtd">
<svg version="1.1" xmlns="http://www.w3.org/2000/svg" xmlns:xlink="http://www.w3.org/1999/xlink" x="0px" y="0px" viewBox="0 0 1000 1000" enable-background="new 0 0 1000 1000" xml:space="preserve">
<metadata> Svg Vector Icons : http://www.onlinewebfonts.com/icon </metadata>
<g><g transform="translate(0.000000,352.000000) scale(0.100000,-0.100000)"><path d="M512.4,1860c-122.7-42.2-239.7-128.5-303-222.5c-117-172.6-109.3,47.9-109.3-3129.8v-2915l47.9-95.9c59.5-122.7,174.5-237.8,297.3-297.3l95.9-47.9h3845.2h3845.2l95.9,47.9c122.8,59.5,237.8,174.5,297.3,297.3l47.9,95.9l5.7,694.2l5.8,694.2l387.4,5.8c366.3,5.7,393.1,7.7,483.3,53.7c122.8,59.5,237.8,174.5,297.3,297.3l47.9,95.9v1083.6v1083.5l-47.9,95.9C9792.6-180.5,9677.5-65.4,9554.8-6c-90.2,46-117,47.9-483.3,53.7l-387.4,5.8l-5.8,694.2l-5.7,694.2l-47.9,95.9c-59.5,122.7-174.5,237.8-297.3,297.3l-95.9,47.9l-3816.4,3.8C982.3,1890.7,589.1,1888.8,512.4,1860z M7454.8-1482.7v-2147.9H4386.4H1317.9v2147.9V665.3h3068.5h3068.5V-1482.7z"/><path d="M2113.8,24.7c-78.6-34.5-159.2-132.3-172.6-209c-5.7-34.5-9.6-640.5-5.7-1350.1c5.7-1265.7,5.7-1288.7,46-1340.5c97.8-130.4,101.6-132.3,563.8-132.3c462.2,0,466,1.9,563.8,132.3c40.3,51.8,40.3,69,40.3,1392.3c0,1323.3,0,1340.5-40.3,1392.3C3013.2,38.1,3003.6,42,2568.3,45.8C2267.2,49.7,2157.9,45.8,2113.8,24.7z"/></g></g>
</svg>