<?xml version="1.0" encoding="utf-8"?>
<!-- Svg Vector Icons : http://www.onlinewebfonts.com/icon -->
<!DOCTYPE svg PUBLIC "-//W3C//DTD SVG 1.1//EN" "http://www.w3.org/Graphics/SVG/1.1/DTD/svg11.dtd">
<svg version="1.1" xmlns="http://www.w3.org/2000/svg" xmlns:xlink="http://www.w3.org/1999/xlink" x="0px" y="0px" viewBox="0 0 1000 1000" enable-background="new 0 0 1000 1000" xml:space="preserve">
<metadata> Svg Vector Icons : http://www.onlinewebfonts.com/icon </metadata>
<g><g transform="translate(0.000000,426.000000) scale(0.100000,-0.100000)"><path d="M1421.6,3275.4c-86.1-45.9-112.8-70.8-160.7-166.4l-57.4-112.8l-5.7-2580l-3.8-2582L647-2950L100-3736l7.7-346.2c5.7-311.7,9.6-351.9,47.8-422.7c65-120.5,126.2-185.5,239.1-246.7l101.4-57.4H5000h4504.1l101.4,57.4c112.9,61.2,174.1,126.2,239.1,246.7c38.3,70.8,42.1,110.9,47.8,424.6l7.7,344.3l-547,784.2l-545.1,782.2l-5.7,2562.8l-5.7,2562.8l-42.1,78.4c-57.4,107.1-151.1,197-254.4,244.8l-86.1,40.2l-3444.5,5.7l-3444.5,3.8L1421.6,3275.4z M7715.8,68.1v-2170.8H5000H2284.2V68.1v2170.8H5000h2715.8V68.1z M6090.2-3460.6v-267.8H5000H3909.8v267.8v267.8H5000h1090.2V-3460.6z"/></g></g>
</svg>