<?xml version="1.0" encoding="utf-8"?>
<!-- Svg Vector Icons : http://www.onlinewebfonts.com/icon -->
<!DOCTYPE svg PUBLIC "-//W3C//DTD SVG 1.1//EN" "http://www.w3.org/Graphics/SVG/1.1/DTD/svg11.dtd">
<svg version="1.1" xmlns="http://www.w3.org/2000/svg" xmlns:xlink="http://www.w3.org/1999/xlink" x="0px" y="0px" viewBox="0 0 1000 1000" enable-background="new 0 0 1000 1000" xml:space="preserve">
<metadata> Svg Vector Icons : http://www.onlinewebfonts.com/icon </metadata>
<g><g transform="translate(0.000000,448.000000) scale(0.100000,-0.100000)"><path d="M519.2,3737.5c-189.7-67.1-329.6-208.9-390.9-400.5c-28.7-84.3-30.7-450.4-26.8-3898l5.7-3804l47.9-95.8c59.4-122.7,174.4-237.6,297-297l95.8-47.9h4455.6h4455.6l95.8,47.9c122.7,59.4,237.6,174.4,297,297l47.9,95.8v3842.4v3842.4l-47.9,95.8c-59.4,122.6-174.4,237.6-297,297l-95.8,47.9l-4426.9,3.8C1044.3,3768.2,597.8,3766.2,519.2,3737.5z M6713,834.2L5003.6-877.2L3294.2,834.2L1582.8,2543.6h3420.8h3420.8L6713,834.2z M2113.7-1312.2l-789.6-791.5v1581v1581l789.6-791.5l791.5-789.6L2113.7-1312.2z M8683.1-526.5v-1577.2l-789.6,789.6l-791.5,791.5l785.7,785.7c431.2,431.2,787.6,785.7,789.6,785.7C8681.2,1048.8,8683.1,339.7,8683.1-526.5z M4313.7-1929.3c456.1-454.2,538.5-528.9,609.4-548.1c170.6-44.1,187.8-32.6,776.1,551.9l530.8,530.8l1098.1-1098.1l1096.2-1096.2H5003.6H1582.8l1092.3,1092.3c599.8,601.7,1096.2,1092.3,1101.9,1092.3C3781-1404.2,4022.4-1639.9,4313.7-1929.3z"/></g></g>
</svg>