<?xml version="1.0" encoding="utf-8"?>
<!-- Svg Vector Icons : http://www.onlinewebfonts.com/icon -->
<!DOCTYPE svg PUBLIC "-//W3C//DTD SVG 1.1//EN" "http://www.w3.org/Graphics/SVG/1.1/DTD/svg11.dtd">
<svg version="1.1" xmlns="http://www.w3.org/2000/svg" xmlns:xlink="http://www.w3.org/1999/xlink" x="0px" y="0px" viewBox="0 0 1000 1000" enable-background="new 0 0 1000 1000" xml:space="preserve">
<metadata> Svg Vector Icons : http://www.onlinewebfonts.com/icon </metadata>
<g><g transform="translate(0.000000,384.000000) scale(0.100000,-0.100000)"><path d="M519.2,2484.2c-189.7-67.1-329.6-208.9-390.9-400.5c-28.7-84.3-30.7-398.6-26.8-3284.7l5.7-3190.8l47.9-95.8c59.4-122.6,174.4-237.6,297-297l95.8-47.9h4455.6h4455.6l95.8,47.9c122.7,59.4,237.6,174.4,297,297l47.9,95.8v3229.1v3229.1l-47.9,95.8c-59.4,122.6-174.4,237.6-297,297l-95.8,47.9l-4426.9,3.8C1044.3,2514.9,597.8,2513,519.2,2484.2z M6406.4-112.5L5003.6-1517.2L3600.8-112.5L2196.1,1290.3h2807.5h2807.5L6406.4-112.5z M2113.7-1952.2l-789.6-791.5v1581v1581l789.6-791.5l791.5-789.6L2113.7-1952.2z M8683.1-1166.5v-1577.2l-789.6,789.6l-791.5,791.5l785.7,785.7c431.2,431.2,787.6,785.7,789.6,785.7C8681.2,408.8,8683.1-300.3,8683.1-1166.5z M4313.7-2569.3c454.2-452.3,538.5-528.9,609.4-546.2c170.6-46,187.8-34.5,776.1,550l530.8,530.8l791.5-791.5l789.6-789.6H5003.6H2196.1l785.7,785.7c431.2,433.1,789.6,785.7,795.3,785.7C3781-2044.2,4022.4-2279.9,4313.7-2569.3z"/></g></g>
</svg>