<?xml version="1.0" encoding="utf-8"?>
<!-- Svg Vector Icons : http://www.onlinewebfonts.com/icon -->
<!DOCTYPE svg PUBLIC "-//W3C//DTD SVG 1.1//EN" "http://www.w3.org/Graphics/SVG/1.1/DTD/svg11.dtd">
<svg version="1.1" xmlns="http://www.w3.org/2000/svg" xmlns:xlink="http://www.w3.org/1999/xlink" x="0px" y="0px" viewBox="0 0 1000 1000" enable-background="new 0 0 1000 1000" xml:space="preserve">
<metadata> Svg Vector Icons : http://www.onlinewebfonts.com/icon </metadata>
<g><g transform="translate(0.000000,481.000000) scale(0.100000,-0.100000)"><path d="M6318.8,4393.7c-80.4-24.9-122.5-49.8-1426.2-844.2c-693-423.1-1280.7-779.1-1303.6-788.7c-36.4-17.2-254.6,88.1-1542.9,742.8C574,4252,545.3,4265.4,417,4273c-128.3,7.7-128.3,7.7-202.9-67c-44-44-84.2-105.3-95.7-153.1c-15.3-57.4-21.1-1035.6-17.2-3484l5.7-3403.6l59.3-124.4c65.1-134,151.2-233.6,285.2-325.4c45.9-32.5,725.5-382.9,1506.6-781l1422.3-721.7h153.1c120.6,0,170.4,9.6,231.6,42.1c42.1,23,645.1,388.6,1340,811.7c693,423.1,1280.7,777.2,1303.6,788.7c34.5,15.3,264.2-95.7,1541-744.6c1468.3-746.6,1500.8-761.9,1629.1-769.6c128.3-7.7,128.3-7.7,202.9,67c42.1,42.1,84.2,107.2,95.7,149.3c28.7,101.5,30.6,6751.7,1.9,6903c-28.7,155.1-93.8,264.2-214.4,361.8c-72.7,57.4-572.4,323.5-1537.2,813.6c-788.7,400.1-1462.5,737-1500.8,750.4C6548.5,4410.9,6389.6,4414.7,6318.8,4393.7z M7892.4,2444.9l857.6-436.5V-484c0-1372.5-1.9-2494.3-5.7-2494.3c-3.8,0-394.4,197.2-867.2,436.5l-859.5,436.5L7011.8,387c-1.9,1370.6,1.9,2492.4,9.6,2492.4C7027.1,2879.4,7419.5,2684.2,7892.4,2444.9z M5859.4,327.7v-2436.9l-846.1-514.9c-467.1-281.4-853.8-516.9-861.4-520.7c-9.6-3.8-15.3,1089.2-15.3,2429.3v2438.8l855.7,520.7c470.9,287.1,859.5,520.7,861.4,520.7C5857.4,2764.6,5859.4,1667.7,5859.4,327.7z M2126.5,2153.9l851.9-434.6l5.7-2492.4c1.9-1370.6-1.9-2492.4-7.7-2492.4c-7.7,0-400.1,195.3-871,434.6l-859.5,436.4V99.9c0,1370.6,5.7,2492.4,15.3,2490.5C1268.9,2590.4,1657.5,2393.2,2126.5,2153.9z"/></g></g>
</svg>