<?xml version="1.0" encoding="utf-8"?>
<!-- Svg Vector Icons : http://www.onlinewebfonts.com/icon -->
<!DOCTYPE svg PUBLIC "-//W3C//DTD SVG 1.1//EN" "http://www.w3.org/Graphics/SVG/1.1/DTD/svg11.dtd">
<svg version="1.1" xmlns="http://www.w3.org/2000/svg" xmlns:xlink="http://www.w3.org/1999/xlink" x="0px" y="0px" viewBox="0 0 1000 1000" enable-background="new 0 0 1000 1000" xml:space="preserve">
<metadata> Svg Vector Icons : http://www.onlinewebfonts.com/icon </metadata>
<g><g transform="translate(0.000000,512.000000) scale(0.100000,-0.100000)"><path d="M519.3,4990.8c-191.6-67.1-329.6-208.9-390.9-400.5c-28.7-82.4-30.7-205-26.8-960.1c5.7-839.4,7.7-866.2,46-917.9c97.7-130.3,101.6-132.2,563.4-132.2c461.9,0,465.7,1.9,563.4,132.2c38.3,49.8,40.2,82.4,46,567.3l5.8,515.5l515.5,5.8c484.8,5.7,517.4,7.7,567.3,46c130.3,97.7,132.2,101.6,132.2,563.4s-1.9,465.7-132.2,563.4c-51.7,38.3-76.7,40.2-927.5,44.1C722.5,5021.4,594,5017.6,519.3,4990.8z"/><path d="M3959.2,4996.5c-78.6-34.5-159.1-132.2-172.5-208.9c-7.7-34.5-9.6-226.1-5.7-429.3c5.7-402.4,9.6-417.8,138-511.7c51.7-40.2,72.8-40.2,1084.7-40.2c1011.8,0,1032.9,0,1084.7,40.2c130.3,97.7,132.2,101.6,132.2,563.4s-1.9,465.7-132.2,563.4c-51.7,40.2-76.7,40.2-1061.7,44.1C4216,5021.4,4005.2,5017.6,3959.2,4996.5z"/><path d="M7638.7,4996.5c-78.6-34.5-159.1-132.2-172.5-208.9c-7.7-34.5-9.6-226.1-5.8-429.3c5.8-402.4,9.6-417.8,138-511.7c49.8-38.3,82.4-40.2,567.2-46l515.5-5.8l5.7-515.5c5.8-484.8,7.7-517.4,46-567.3c97.7-130.3,101.6-132.2,563.4-132.2c461.8,0,467.6,1.9,563.4,132.2c40.2,51.7,40.2,72.8,40.2,956.3V4573l-47.9,95.8c-59.4,122.6-174.4,237.6-297,297l-95.8,47.9l-881.5,3.8C7872.5,5021.4,7684.7,5017.6,7638.7,4996.5z"/><path d="M4572.5,1930.3c-70.9-32.6-134.1-99.7-161-170.6c-13.4-32.6-21.1-243.4-21.1-540.4V732.6l-515.5-5.8c-486.8-5.7-519.3-7.7-569.2-46c-130.3-97.7-132.2-101.6-132.2-563.4c0-461.9,1.9-465.7,132.2-563.4c49.8-38.3,82.4-40.2,567.3-46l515.5-5.8l5.8-515.5c5.7-484.8,7.7-517.4,46-567.3c97.7-130.3,101.6-132.2,563.4-132.2c461.8,0,465.7,1.9,563.4,132.2c38.3,49.8,40.3,82.4,46,567.3l5.8,515.5l515.5,5.8c484.8,5.7,517.4,7.6,567.2,46c130.3,97.7,132.2,101.6,132.2,563.4c0,461.8-1.9,465.7-132.2,563.4c-49.8,38.3-82.4,40.2-567.2,46l-515.5,5.8l-5.8,515.5c-5.7,484.8-7.7,517.4-46,567.2c-95.8,128.4-105.4,132.2-540.4,136.1C4723.8,1955.2,4616.5,1951.4,4572.5,1930.3z"/><path d="M279.8,1317.1c-78.6-34.5-159.1-132.2-172.5-208.9c-5.7-34.5-9.6-502.1-5.7-1042.5c5.7-956.3,7.7-981.2,46-1032.9c97.7-130.3,101.6-132.2,563.4-132.2c461.9,0,465.7,1.9,563.4,132.2c40.2,51.7,40.2,72.8,40.2,1084.7c0,1011.8,0,1032.9-40.2,1084.7c-95.8,128.4-105.4,132.2-540.4,136.1C433.1,1342,323.8,1338.2,279.8,1317.1z"/><path d="M8865.2,1317.1c-78.6-34.5-159.1-132.2-172.5-208.9c-5.8-34.5-9.6-502.1-5.8-1042.5c5.8-956.3,7.7-981.2,46-1032.9c97.7-130.3,101.6-132.2,563.4-132.2c461.8,0,465.7,1.9,563.4,132.2c40.2,51.7,40.2,72.8,40.2,1084.7c0,1011.8,0,1032.9-40.2,1084.7c-95.8,128.4-105.4,132.2-540.4,136.1C9018.5,1342,8909.2,1338.2,8865.2,1317.1z"/><path d="M279.8-2362.4c-78.6-34.5-159.1-132.2-172.5-208.9c-5.7-34.5-9.6-444.6-5.7-914.1l5.7-852.8l47.9-95.8c59.4-122.7,174.4-237.6,297-297l95.8-47.9h904.5c883.4,0,904.5,0,956.3,40.2c130.3,95.8,132.2,101.6,132.2,563.4c0,461.8-1.9,465.7-132.2,563.4c-49.8,38.3-82.4,40.2-567.3,46l-515.5,5.8l-5.8,515.5c-5.7,484.8-7.7,517.4-46,567.2C1178.5-2349,1169-2345.1,734-2341.3C433.1-2337.5,323.8-2341.3,279.8-2362.4z"/><path d="M8865.2-2362.4c-70.9-32.6-134.2-99.7-161-170.5c-13.4-32.6-21.1-243.4-21.1-540.4v-486.8l-515.5-5.8c-486.8-5.7-519.3-7.6-569.1-46c-130.3-97.7-132.2-101.6-132.2-563.4c0-461.8,1.9-467.6,132.2-563.4c51.7-40.2,72.8-40.2,956.2-40.2h904.6l95.8,47.9c122.7,59.4,237.6,174.4,297,297l47.9,95.8v904.5c0,883.4,0,904.5-40.2,956.3c-95.8,128.4-105.4,132.2-540.4,136.1C9016.6-2337.5,8909.2-2341.3,8865.2-2362.4z"/><path d="M3959.2-3588.9c-78.6-34.5-159.1-132.2-172.5-208.9c-7.7-34.5-9.6-226.1-5.7-429.3c5.7-402.4,9.6-417.8,138-511.7c51.7-40.2,72.8-40.2,1084.7-40.2c1011.8,0,1032.9,0,1084.7,40.2c130.3,97.7,132.2,101.6,132.2,563.4c0,461.8-1.9,465.7-132.2,563.4c-51.7,40.2-76.7,40.2-1061.7,44.1C4216-3563.9,4005.2-3567.8,3959.2-3588.9z"/></g></g>
</svg>