<?xml version="1.0" encoding="utf-8"?>
<!-- Svg Vector Icons : http://www.onlinewebfonts.com/icon -->
<!DOCTYPE svg PUBLIC "-//W3C//DTD SVG 1.1//EN" "http://www.w3.org/Graphics/SVG/1.1/DTD/svg11.dtd">
<svg version="1.1" xmlns="http://www.w3.org/2000/svg" xmlns:xlink="http://www.w3.org/1999/xlink" x="0px" y="0px" viewBox="0 0 1000 1000" enable-background="new 0 0 1000 1000" xml:space="preserve">
<metadata> Svg Vector Icons : http://www.onlinewebfonts.com/icon </metadata>
<g><g transform="translate(0.000000,512.000000) scale(0.100000,-0.100000)"><path d="M5595.6,4994.7c-199.2-63.2-250.9-218.3-134.1-404.1c32.6-51.7,361.9-398.3,731.5-769.8l672.2-676L4425.5,705.1C3083.1-637.4,1974.3-1736.6,1964.7-1736.6c-11.5,0-321.7,302.6-689.4,672.2C905.7-694.8,566.7-367.4,520.8-336.7c-63.2,42.1-109.2,55.5-176.2,55.5c-78.5,0-97.7-7.7-147.5-65.1c-36.4-42.1-67-105.3-80.4-168.5c-15.3-72.8-19.2-635.8-15.3-2047.1l5.7-1943.7l53.6-80.4c28.7-44,88.1-103.4,132.1-132.1l80.4-53.6l1943.7-5.7c1394.1-3.8,1974.4,1.9,2051,17.2c143.6,30.7,229.8,114.9,229.8,226c0,44-13.4,107.2-30.6,141.7c-17.2,34.5-348.5,381.1-737.3,769.8l-706.6,708.6L5574.5-463.1l2449.3,2449.3l676-672.2c371.5-369.6,718.1-699,769.8-731.5c72.8-44,116.8-59.4,185.7-59.4c78.5,0,97.7,7.7,147.5,65.1c36.4,42.1,67,105.3,80.4,168.5c15.3,72.8,19.2,635.8,15.3,2047.2l-5.7,1943.7l-53.6,80.4c-28.7,44.1-88.1,103.4-132.1,132.1l-80.4,53.6l-1972.5,3.8C6026.4,5021.5,5664.5,5015.8,5595.6,4994.7z"/></g></g>
</svg>