<?xml version="1.0" encoding="utf-8"?>
<!-- Svg Vector Icons : http://www.onlinewebfonts.com/icon -->
<!DOCTYPE svg PUBLIC "-//W3C//DTD SVG 1.1//EN" "http://www.w3.org/Graphics/SVG/1.1/DTD/svg11.dtd">
<svg version="1.1" xmlns="http://www.w3.org/2000/svg" xmlns:xlink="http://www.w3.org/1999/xlink" x="0px" y="0px" viewBox="0 0 1000 1000" enable-background="new 0 0 1000 1000" xml:space="preserve">
<metadata> Svg Vector Icons : http://www.onlinewebfonts.com/icon </metadata>
<g><g transform="translate(0.000000,512.000000) scale(0.100000,-0.100000)"><path d="M519.2,4990.7c-189.7-67.1-329.6-208.9-390.9-400.5C99.6,4505.9,97.6,4088.1,101.5,79l5.7-4417.3l47.9-95.8c59.4-122.7,174.4-237.6,297-297L548-4779h4455.6h4455.6l95.8,47.9c122.7,59.4,237.6,174.4,297,297l47.9,95.8V117.3V4573l-47.9,95.8c-59.4,122.6-174.4,237.6-297,297l-95.8,47.9l-4426.9,3.8C1044.3,5021.4,597.8,5019.5,519.2,4990.7z M8683.1,117.3v-3679.5H5003.6H1324.1V117.3v3679.5h3679.5h3679.5V117.3z"/><path d="M5659,3152.9c-90.1-63.2-63.3-105.4,297-471.4l339.2-341.1l-615.2-619c-622.8-622.8-676.5-688-676.5-816.4c0-107.3,42.2-166.7,322-450.4c281.7-285.5,354.5-337.3,463.8-337.3c130.3,0,193.5,51.7,818.3,676.5l619,615.2l341.1-339.2c366-360.3,408.2-387.1,471.4-297c26.8,38.3,30.7,174.4,30.7,1094.3c0,849-5.7,1061.7-26.8,1111.5c-30.7,74.7-116.9,157.1-189.7,184c-36.4,13.4-408.2,21.1-1101.9,21.1C5833.4,3183.6,5697.3,3179.7,5659,3152.9z"/><path d="M4083.7,86.7c-40.2-17.3-308.5-270.2-684.2-645.8l-619-615.2l-341.1,339.2c-366,360.3-408.2,387.1-471.4,297.1c-26.8-38.3-30.7-174.4-30.7-1092.4c0-693.7,7.7-1065.5,21.1-1101.9c26.8-72.8,109.2-159.1,184-189.7c49.8-21.1,262.5-26.8,1111.5-26.8c919.9,0,1055.9,3.8,1094.3,30.6c90.1,63.3,63.2,105.4-297,471.4L3712-2105.7l615.2,619c412,412,626.7,640.1,647.7,688c36.4,88.1,36.4,170.6,1.9,251c-34.5,78.6-578.8,619-649.7,645.8C4252.4,125,4162.3,121.2,4083.7,86.7z"/></g></g>
</svg>