<?xml version="1.0" encoding="utf-8"?>
<!-- Svg Vector Icons : http://www.onlinewebfonts.com/icon -->
<!DOCTYPE svg PUBLIC "-//W3C//DTD SVG 1.1//EN" "http://www.w3.org/Graphics/SVG/1.1/DTD/svg11.dtd">
<svg version="1.1" xmlns="http://www.w3.org/2000/svg" xmlns:xlink="http://www.w3.org/1999/xlink" x="0px" y="0px" viewBox="0 0 1000 1000" enable-background="new 0 0 1000 1000" xml:space="preserve">
<metadata> Svg Vector Icons : http://www.onlinewebfonts.com/icon </metadata>
<g><g transform="translate(0.000000,512.000000) scale(0.100000,-0.100000)"><path d="M6658.9,4998.3c-42.2-15.3-78.6-28.8-80.5-28.8c-1.9,0-19.2-26.8-36.4-59.5c-28.8-55.6-28.8-67.1,3.8-149.6c26.9-71,134.2-189.9,556.2-615.6l523.6-529.3L6657,2648.9c-533.2-533.1-985.8-1001.1-1006.8-1039.5c-84.4-163-40.3-260.8,234-542.7c241.6-247.4,326-312.6,427.7-329.9c153.4-24.9,166.8-13.4,1210.1,1029.9l976.2,976.2l521.6-515.9c573.4-571.5,638.7-619.5,761.4-569.6c122.7,51.8,118.9-1.9,118.9,1666.6c0,1494,0,1509.3-40.3,1561.1c-21.1,28.8-63.3,71-92.1,92.1c-51.8,40.3-70.9,40.3-1541.9,44.1C6963.8,5025.1,6724.1,5021.3,6658.9,4998.3z"/><path d="M3504.1-534.6c-36.4-19.2-502.5-471.8-1035.6-1004.9L1501.9-2508l-529.3,523.6c-427.7,423.8-544.7,529.3-615.6,556.2c-80.5,30.7-94,30.7-145.8,3.8C98.1-1482,100-1439.8,100-3089.1c0-1494,0-1509.3,40.3-1561.1c21.1-28.8,63.3-71,92.1-92.1c51.8-40.3,67.1-40.3,1570.7-40.3c1400,0,1522.7,1.9,1578.4,32.6c34.5,19.2,69,57.5,80.5,88.2c40.3,117,0,170.7-565.8,736.4L2363-3392.1l991.5,991.5c1072.1,1074,1054.8,1054.8,1022.2,1227.4c-11.5,61.4-57.5,118.9-283.8,349c-149.6,151.5-299.2,287.7-333.7,301.1C3674.8-486.7,3584.7-490.5,3504.1-534.6z"/></g></g>
</svg>